<?xml version="1.0" encoding="utf-8" ?>
<svg baseProfile="full" height="300mm" version="1.1" viewBox="0,0,200,300" width="200mm" xmlns="http://www.w3.org/2000/svg" xmlns:ev="http://www.w3.org/2001/xml-events" xmlns:xlink="http://www.w3.org/1999/xlink"><defs /><rect fill="#222222" height="300" width="200" x="0" y="0" /><text fill="#FFFFFF" style="font-size:12px; font-family:Arial; font-weight:bold;" x="10" y="20">Over 8km Runs</text><text fill="#FFFFFF" style="font-size:4px; font-family:Arial" x="10" y="280">ATHLETE</text><text fill="#FFFFFF" style="font-size:9px; font-family:Arial" x="10" y="290">mujingy</text><text fill="#FFFFFF" style="font-size:4px; font-family:Arial" x="120" y="280">STATISTICS</text><text fill="#FFFFFF" style="font-size:3px; font-family:Arial" x="120" y="285">Number: 6</text><text fill="#FFFFFF" style="font-size:3px; font-family:Arial" x="120" y="290">Weekly: 1.0</text><text fill="#FFFFFF" style="font-size:3px; font-family:Arial" x="141" y="285">Total: 60.9 km</text><text fill="#FFFFFF" style="font-size:3px; font-family:Arial" x="141" y="290">Avg: 10.2 km</text><text fill="#FFFFFF" style="font-size:3px; font-family:Arial" x="167" y="285">Min: 8.3 km</text><text fill="#FFFFFF" style="font-size:3px; font-family:Arial" x="167" y="290">Max: 12.4 km</text><polyline fill="none" points="86.0,66.563867637582 85.97269624576438,66.4456298473815 85.95904436858837,66.35695145976206 85.91808873723494,66.22393380611902 85.84982935152948,66.15003507223446 85.82252559729386,66.10569581904565 85.75426621164661,65.98745776344731 85.57679180888226,65.7657612246694 85.45392491470557,65.41104626184097 85.44027303758776,65.17456927752937 85.13993174064672,64.46513668108673 85.03071672352962,63.7113618459407 84.97610921500018,63.46010294905864 84.97610921500018,63.312303453480126 84.29351535835303,62.898464296522434 83.96587030717637,62.898464296522434 83.16040955629433,63.0019241644186 82.40955631399993,63.20884374290472 81.72696245735278,63.41576311162498 81.27645051199943,63.50444277685892 80.94880546076456,63.652242133321124 80.86689419794129,63.7113618459407 80.64846416382352,63.97740034085291 80.41638225258794,64.46513668108673 79.69283276452916,65.02677102324378 78.83276450517587,64.68683463233174 78.46416382252937,64.43557693602634 77.78156996588223,64.45035680910223 77.41296928329393,64.47991655195074 76.3890784982359,64.6424950613291 76.22525597276399,64.70161448714498 75.56996587029425,64.7902935938182 75.47440273041138,64.83463313270477 74.77815699664643,64.8641928199504 74.3686006825883,64.8494129768369 74.02730375429383,64.8494129768369 73.83617747441167,64.83463313270477 73.42662116035353,64.87897266194341 73.2491467577056,64.89375250290323 72.85324232082348,64.9085323427862 72.67576791811734,64.9085323427862 72.29351535835303,64.89375250290323 72.10238907852909,64.87897266194341 71.78839590441203,64.8494129768369 71.41979522182373,64.80507344120997 71.25597269629361,64.7902935938182 70.84641638229368,64.74595404529828 70.31399317405885,64.70161448714498 70.13651877135271,64.65727491940197 69.78156996588223,64.5981554807222 69.45392491464736,64.55381589042372 69.30375426623505,64.53903602488572 68.59385665529408,64.45035680910223 68.40273037541192,64.42079706193181 68.02047781570582,64.37645743315807 67.6382252559415,64.31733791316219 67.44709897611756,64.30255803049658 67.05119453923544,64.24343848908029 66.68259385670535,64.21387871194747 66.5051194538828,64.19909882180218 66.16382252558833,64.16953903823742 65.99999999994179,64.16953903823742 65.68600682588294,64.1547591448616 65.50853242323501,64.1547591448616 65.16723549488233,64.16953903823742 65.003412969294,64.16953903823742 64.66211604099954,64.16953903823742 64.52559726958862,64.16953903823742 64.15699658700032,64.16953903823742 63.965870307176374,64.16953903823742 63.638225255999714,64.16953903823742 63.2559726962354,64.21387871194747 63.078498293529265,64.22865860104503 62.682593856647145,64.31733791316219 62.31399317405885,64.43557693602634 62.15017064847052,64.46513668108673 61.645051194529515,64.61293534198194 61.45392491464736,64.65727491940197 61.13993174058851,64.71639434095414 60.79863481229404,64.83463313270477 60.443686006823555,64.99721135952859 60.102389078529086,65.13022981247923 59.965870307176374,65.18934909708332 59.46075085317716,65.39626645832323 59.33788395905867,65.45538566590403 58.982935153646395,65.60318360989913 58.832764505117666,65.6770825417334 58.57337883958826,65.82488032519177 58.300341296882834,66.01701728376793 58.25938566552941,66.07613631153072 58.191126279882155,66.15003507223446 58.05460750852944,66.29783251330082 57.94539249141235,66.40129065838119 57.84982935158769,66.46040957489458 57.6177474402939,66.6968850697449 57.35836177470628,66.91858059738297 57.12627986341249,67.1107165266294 57.01706484641181,67.21417425977415 56.74402730370639,67.46542853627761 56.58020477811806,67.56888608967711 55.883959044353105,68.02705462451559 55.40614334476413,68.52956086756603 55.324232081882656,68.6921361519926 55.2559726962354,69.09118402852619 55.023890784941614,69.44589259738859 54.72354948805878,69.59368765250838 54.49146757676499,69.72670311067486 53.89078498294111,70.022292707421 53.69965870300075,70.31788187620987 53.59044368600007,70.4508968625887 53.38566552900011,70.74648541089846 53.071672354941256,71.13074988393055 52.94880546070635,71.24898496094102 52.593856655294076,71.36721996945562 52.430034129705746,71.30810247376212 52.034129692823626,71.10119110399683 51.733788395882584,70.95339714009606 51.44709897605935,70.87950011802604 51.18771331058815,70.99773534051201 50.88737201364711,71.10119110399683 50.77815699658822,71.16030865960056 50.55972696247045,71.27854371948342 50.47781569964718,71.30810247376212 50.39590443682391,71.3376612237189 50.040955631411634,71.81060064162011 49.877133105823305,72.01751129249169 49.372013651940506,72.28353896408225 49.29010238905903,72.37221477756975 49.04436860064743,72.66780054448463 48.66211604094133,72.68257982158684 48.361774744000286,72.62346270671696 48.21160409558797,72.56434557474859 47.883959044353105,72.5052284256235 47.488054607470986,72.71213837260439 46.846416382235475,72.94860662668361 46.30034129694104,73.11117839252984 45.45392491464736,73.39198386497446 44.757679180882405,73.55455527782033 44.56655290100025,73.61367212311598 44.23890784982359,73.7171265611978 44.07508532423526,73.76146416149277 43.81569965870585,73.85013933316804 43.63822525594151,73.98315201848163 43.48805460752919,74.20483963481092 43.36518771329429,74.24917712919705 43.11945392488269,74.36741040047491 42.122866894176695,74.50042274882435 41.86348122864729,74.52998103669961 41.04436860064743,74.61865587465581 40.53924914676463,74.66299327918387 40.33447098976467,74.69255154351413 39.802047781529836,74.66299327918387 39.2559726962354,74.67777241187287 39.03754266205942,74.69255154351413 38.6279863481177,74.72210980356613 38.300341296882834,74.79600543499691 37.7542662115884,74.98813395157049 37.61774744023569,75.01769216885441 37.35836177470628,75.04725038184552 37.18088737200014,75.06202948675491 36.71672354947077,75.18026228738017 36.26621160405921,75.29849501955323 36.10238907847088,75.31327410630183 35.76109215017641,75.41672768330318 35.1194539249409,75.59407655053656 34.95563139929436,75.65319280541735 34.64163822523551,75.80098336767696 34.47781569964718,75.87487860865076 34.136518771294504,76.03744804479356 33.959044368588366,76.14090125492658 33.45392491464736,76.43648156654672 33.31740614329465,76.51037657762936 33.05802047782345,76.68772449504468 32.757679180882405,76.85029328409291 32.197952218411956,77.01286194365821 31.85665529005928,77.0719777878403 31.460750853235368,77.04241986789566 31.064846416353248,77.02764090632263 30.505119453941006,76.90940917526314 30.191126279823948,76.71728246631392 29.822525597235654,76.4660395741812 29.167235494882334,76.0670061101846 28.989761092117988,75.96355286259495 28.689419795176946,75.84532051545102 28.22525597270578,75.7418671555788 28.047781569941435,75.72708809989854 27.52901023888262,75.54973934814916 26.846416382177267,75.29849501955323 26.6279863481177,75.26893684294191 26.273037542647216,75.20982047686994 25.91808873717673,75.20982047686994 25.7542662115884,75.19504138264165 25.385665529000107,75.19504138264165 25.194539249117952,75.22459956997773 24.689419795235153,75.20982047686994 24.211604095529765,75.25415775299189 23.829351535823662,75.23937866203778 23.29692832758883,75.29849501955323 22.914675767882727,75.28371593178599 22.57337883953005,75.25415775299189 22.368600682588294,75.23937866203778 21.986348122823983,75.22459956997773 21.45392491464736,75.20982047686994 21.331058020412456,75.20982047686994 21.20819112623576,75.22459956997773 20.88054607511731,75.26893684294191 20.689419795176946,75.26893684294191 20.334470989764668,75.26893684294191 20.020477815705817,75.28371593178599 19.829351535823662,75.28371593178599 18.873720136471093,75.56451841669332 18.49146757676499,75.59407655053656 17.91808873717673,75.66797186642361 17.535836177470628,75.66797186642361 17.44027303752955,75.65319280541735 17.085324232059065,75.65319280541735 16.757679180824198,75.65319280541735 16.58020477811806,75.63841374329058 15.747440273000393,75.57929748414608 15.187713310529944,75.41672768330318 14.80546075082384,75.38716952379036 14.436860068177339,75.40194860406336 14.259385665529408,75.40194860406336 14.0,75.75664621021133 14.259385665529408,75.75664621021133 14.49146757676499,75.75664621021133 14.614334470999893,75.75664621021133 14.81911262794165,75.7418671555788 14.941979522118345,75.75664621021133 15.105802047764882,75.75664621021133 16.047781569941435,75.99311093868164 16.307167235470843,76.17045930532913 16.443686006823555,76.28869146422949 16.73037542658858,76.48081857639772 17.071672354941256,76.62860853971506 17.645051194529515,76.746840433334 17.822525597235654,76.7320614503551 18.518771331058815,76.56949256721418 18.791808873647824,76.3921445470769 18.88737201364711,76.27391244810133 19.269624573353212,75.99311093868164 19.406143344647717,75.91921574046137 19.624573378823698,75.80098336767696 19.897610921470914,75.75664621021133 20.047781569941435,75.75664621021133 20.375426621176302,75.72708809989854 21.098976109176874,75.3428322764812 21.29010238905903,75.29849501955323 21.60409556311788,75.25415775299189 21.904436860000715,75.23937866203778 22.09556313988287,75.23937866203778 22.436860068293754,75.26893684294191 22.73720136517659,75.26893684294191 22.928327645000536,75.26893684294191 23.255972696235403,75.22459956997773 23.651877133059315,75.19504138264165 23.815699658647645,75.20982047686994 24.116040955588687,75.19504138264165 24.457337883941364,75.16548319104186 24.839590443647467,75.1359249951638 25.235494880529586,75.12114589560952 25.645051194471307,75.15070409364125 25.83617747441167,75.16548319104186 26.204778156999964,75.16548319104186 26.34129692829447,75.16548319104186 26.778156996588223,75.25415775299189 26.914675767882727,75.32805319192994 27.296928327647038,75.49062306336418 27.638225255941506,75.59407655053656 28.0068259385298,75.66797186642361 28.375426621118095,75.75664621021133 28.74402730370639,75.86009956261842 29.399317406117916,76.18523832893698 29.563139931706246,76.31824949324073 30.0,76.64338753015909 30.122866894176695,76.746840433334 30.423208191117737,76.90940917526314 31.1194539249409,77.0571988283773 31.28327645052923,77.0571988283773 31.556313993118238,77.10153570346301 31.84300341294147,77.0719777878403 31.99317406141199,77.04241986789566 32.279863481235225,76.95374608242128 32.430034129705746,76.90940917526314 32.67576791805914,76.7616194151924 32.83959044364747,76.68772449504468 33.262798634765204,76.43648156654672 33.426621160353534,76.36258652876131 33.76791808876442,76.21479637295124 33.93174061429454,76.14090125492658 34.25938566552941,75.99311093868164 34.532423208176624,75.84532051545102 34.81911262794165,75.6827509263967 34.94197952217655,75.60885561586474 35.3788395904121,75.40194860406336 35.55631399311824,75.3428322764812 36.03412969276542,75.23937866203778 36.33447098970646,75.18026228738017 36.443686006823555,75.1359249951638 36.81228668935364,75.06202948675491 36.97610921500018,75.04725038184552 37.53583617747063,74.94379661764833 37.71331058017677,74.92901750419696 38.08191126282327,74.86990103969583 38.2593856654712,74.85512192087481 38.7508532422944,74.8107845580962 38.94197952223476,74.79600543499691 39.815699658647645,74.72210980356613 40.27986348117702,74.66299327918387 40.62116040952969,74.61865587465581 40.921501706470735,74.55953932028206 41.249146757647395,74.44130616023904 41.42662116041174,74.41174785952899 41.726962457294576,74.35263124528865 41.89078498294111,74.30829377338523 42.300341296882834,74.19006046783761 42.46416382252937,74.13094378942333 42.77815699658822,74.05704791731841 43.13310580205871,73.98315201848163 43.78839590441203,73.76146416149277 43.965870307176374,73.73190576238267 44.293515358353034,73.62845133176597 45.27645051194122,73.39198386497446 45.59044368600007,73.3033084943163 46.04095563135343,73.08161989926884 46.19112627982395,73.03728215135925 47.01023890788201,72.80081399997289 47.392491467588115,72.62346270671696 47.5153583617066,72.53478700232517 48.293515358294826,72.0914079026843 48.430034129705746,72.04706993977015 48.73037542658858,71.97317331352679 49.03071672352962,71.88449732669687 49.15358361770632,71.81060064162011 49.412969283235725,71.6480278402887 49.67235494882334,71.5445723538578 49.91808873717673,71.4706755457155 50.32764505117666,71.30810247376212 50.832764505117666,71.10119110399683 50.95563139929436,71.04207353126549 51.21501706482377,70.9238383344491 51.35153583611827,70.89427952458209 52.32081911264686,71.14552927234035 52.47098976111738,71.2194261981058 53.46757679176517,70.67258831391518 53.740614334412385,70.21442571580701 55.05119453929365,69.26853838999523 55.023890784941614,69.10596356455062 55.078498293529265,68.76603396575956 55.35153583617648,68.3374262736179 55.802047781588044,67.99749539521872 56.40273037541192,67.62800466807676 56.53924914676463,67.5245471446542 57.20819112623576,66.85946181353938 57.795221843000036,66.41607038911025 58.532423208176624,65.81010055168008 58.696245733764954,65.72142188801081 58.996587030705996,65.60318360989913 59.11945392488269,65.54406444510096 59.46075085317716,65.38148665378685 59.61092150170589,65.30758761492325 59.952218430058565,65.15978945694224 60.293515358353034,65.02677102324378 60.443686006823555,64.9676516915788 60.97610921494197,64.7902935938182 61.331058020470664,64.71639434095414 62.28668941982323,64.53903602488572 62.64163822523551,64.45035680910223 62.80546075082384,64.42079706193181 63.13310580205871,64.36167755478527 63.2559726962354,64.34689767530654 63.6245733788237,64.30255803049658 63.802047781588044,64.28777814672503 64.19795221841196,64.25821837603871 64.5119453924708,64.22865860104503 64.67576791805914,64.22865860104503 65.03071672352962,64.21387871194747 65.19453924911795,64.18431893052184 65.54948805464664,64.19909882180218 65.71331058023497,64.19909882180218 66.06825938564725,64.21387871194747 66.2457337884116,64.21387871194747 66.61433447099989,64.22865860104503 66.79180887370603,64.24343848908029 67.18771331058815,64.27299826192029 67.36518771329429,64.28777814672503 67.73378839588258,64.34689767530654 68.52559726958862,64.46513668108673 68.93515358364675,64.49469642182521 69.3720136519405,64.55381589042372 69.72696245741099,64.61293534198194 69.90443686005892,64.62771520217939 71.02389078499982,64.81985328748124 71.18771331058815,64.83463313270477 71.72013651876478,64.89375250290323 71.8839590443531,64.89375250290323 72.23890784982359,64.9085323427862 73.0034129692358,64.89375250290323 73.3720136518823,64.9085323427862 73.54948805458844,64.9085323427862 73.89078498294111,64.89375250290323 74.06825938564725,64.89375250290323 74.40955631399993,64.89375250290323 74.55972696241224,64.89375250290323 74.91467576788273,64.89375250290323 75.21501706482377,64.8641928199504 75.3788395904121,64.80507344120997 75.8839590443531,64.74595404529828 76.15699658700032,64.70161448714498 77.44027303752955,64.39123731051222 77.74061433447059,64.31733791316219 78.27303754264722,64.36167755478527 78.40955631399993,64.42079706193181 78.8737201365293,64.6424950613291 79.2423208191176,64.83463313270477 79.52901023888262,64.9085323427862 79.66552901023533,64.9085323427862 79.93856655288255,64.81985328748124 80.12969283282291,64.65727491940197 80.18430034135235,64.56859575494309 80.38907849829411,64.11041945831676 80.96245733788237,63.726141771432594 81.39931740611792,63.51922271732474 81.68600682594115,63.41576311162498 81.78156996588223,63.38620321462804 81.93174061435275,63.35664331338194 82.09556313994108,63.29752349802584 82.57337883958826,63.17928381594538 82.64163822529372,63.194063779956196 82.92832764500054,63.194063779956196 83.52901023894083,63.0019241644186 83.67918088735314,62.95758422747895 84.23890784982359,62.928024264154374 84.48464163817698,63.075824037980055 84.79863481229404,63.54878259504039 84.8805460750591,63.74092169580399 85.003412969294,64.09563956064812 85.05802047782345,64.24343848908029 85.27645051194122,64.9085323427862 85.42662116041174,65.20412891556043 85.46757679182338,65.35192704145447 85.68600682594115,65.72142188801081" stroke="#4dd2ff" stroke-linecap="round" stroke-linejoin="round" stroke-width="0.5"><title>2023-02-26 12.4km</title></polyline><polyline fill="none" points="184.9339182890253,74.7876482673455 184.42061968741473,74.57392207003431 183.94680559355766,74.33882307432941 183.7296408006223,74.14646921129315 183.49273375363555,73.97548789455323 183.03866191382986,73.74038842236041 182.7622703590896,73.6976430437062 181.6567041403614,72.9709706591675 181.43953934742603,72.84273417035001 181.0446942691924,72.56488825354609 180.80778722232208,72.37253323491313 180.3931998902699,72.09468687564367 179.84041678078938,71.75272176694125 179.66273649560753,71.58173906401498 178.91253084724303,71.02604459581198 178.5176857690094,70.74819696947816 178.34000548394397,70.57721368485363 178.0636139292037,70.36348443981842 177.80696462839842,70.08563619002234 177.64902659715153,69.93602548568742 177.27392377296928,69.57268488808768 177.07650123385247,69.42307392376824 176.38552234717645,68.69639101889334 176.18809980805963,68.52540654610493 175.61557444464415,67.77734831310227 175.47737866744865,67.5849901754118 175.2009871127084,67.17890036205063 174.90485330403317,66.62319760702667 174.60871949535795,65.96062757060281 174.39155470242258,65.51178895909106 174.0756786399288,64.89196308809915 173.89799835486338,64.72097641188884 173.70057581563015,64.037028716848 173.64134905405808,63.887414947355865 173.3649574992014,62.09204379891162 172.57526734296698,60.93787086618249 172.18042226473335,60.8096291506663 171.78557718661614,60.87375001536566 171.56841239368077,60.93787086618249 171.3117630929919,60.980618092318764 171.11434055375867,61.023365312226815 171.01562928431667,61.066112525964854 169.5349602412898,61.38671643176349 168.86372360831592,61.5790786081634 168.35042500670534,61.7286935475131 168.11351795995142,61.7714406591258 167.28434329573065,62.17753791069845 167.0079517411068,62.43402009757119 166.8105292021064,62.775996000069426 166.711817932548,62.989730737986974 165.9616122840671,63.930161746335216 165.21140663558617,63.951535143569345 164.71785028791055,63.80192133074161 164.5401700027287,63.71642768930178 163.41486152994912,63.310332554683555 162.96078969014343,63.24621221917914 162.52646010415629,63.28895911102882 162.28955305728596,63.35307943724911 161.83548121736385,63.43857318389928 161.61831642442849,63.45994661664008 161.06553331506439,63.524066905723885 160.82862626807764,63.566813757352065 160.35481217433698,63.63093402318191 160.1376473812852,63.65230744209839 159.72306004934944,63.73780110201915 159.50589525629766,63.7591745131067 158.91362763906363,63.78054792268085 158.65697833837476,63.80192133074161 158.18316424451768,63.82329473720165 157.88703043595888,63.80192133074161 157.39347408828326,63.84466814211919 157.1763092953479,63.84466814211919 156.64326843980234,63.84466814211919 156.14971209212672,63.82329473720165 155.89306279132143,63.82329473720165 155.3995064436458,63.80192133074161 155.16259939677548,63.80192133074161 154.45187825604808,63.78054792268085 154.21497120917775,63.7591745131067 153.72141486150213,63.71642768930178 153.4845078146318,63.69505427510012 153.0304359748261,63.63093402318191 152.79352892783936,63.60956060278113 152.33945708803367,63.54544033226557 152.0630655332934,63.502693477552384 151.5695091857342,63.43857318389928 151.03646833007224,63.39582631364465 150.8587880448904,63.35307943724911 150.7008500136435,63.33170599673758 150.36523169733118,63.28895911102882 150.16780915821437,63.26758566594799 149.6939950644737,63.1820918697631 149.47683027142193,63.160718416882446 148.9832739237463,63.07522458976018 148.76610913081095,63.05385112913791 148.39100630651228,62.989730737986974 148.15409925964195,62.9469838028017 147.75925418140832,62.9256103328662 147.26569783384912,62.818742960022064 146.8708527556155,62.79736948086065 146.6734302166151,62.79736948086065 146.5154921852518,62.775996000069426 146.08116259938106,62.711875548557146 145.82451329857577,62.711875548557146 145.07430765009485,62.669128573092166 144.87688511109445,62.69050206159591 144.54126679466572,62.73324903391767 144.0871949547436,62.73324903391767 143.9292569233803,62.7546225177648 143.49492733750958,62.73324903391767 143.2382780367043,62.69050206159591 142.6854949273402,62.62638159148628 142.15245407179464,62.647755083075026 141.67863997805398,62.711875548557146 140.9086920756381,62.9256103328662 140.4151357280789,63.032477666973136 140.17822868109215,63.032477666973136 139.72415684117004,63.160718416882446 139.48724979429971,63.2248387709551 139.01343570055906,63.35307943724911 138.81601316144224,63.41719974952866 138.34219906770159,63.58818718086695 137.730189196649,63.86604154552333 136.96024129423313,64.16526903037447 136.3679736769991,64.44312285192427 136.17055113788228,64.57136298899422 135.40060323558282,65.02020303026075 135.16369618859608,65.1484429166594 134.78859336441383,65.53316224180162 134.92678914172575,66.06749380606925 134.96627364959568,66.28122616099427 135.14395393477753,66.73006360270665 135.26240745815448,66.92242229744443 136.0126131066354,68.84600235137623 136.22977789957076,69.29483589407755 136.32848916912917,69.52993890602374 136.52591170824599,69.93602548568742 136.72333424724638,70.32073857227806 136.8220455168048,70.53446784822154 137.05895256367512,70.98329882413964 137.45379764190875,72.09468687564367 137.13792157941498,72.67175209862762 136.94049904029816,72.77861590505927 136.38771593081765,73.12057982568513 135.79544831370004,73.44117064157035 135.40060323558282,73.67627035197802 135.2031806963496,73.78313379484462 134.72936660272535,74.06097856530687 134.53194406360853,74.18921452504583 134.0976144776214,74.42431363987271 133.900191938621,74.53117681201547 133.50534686038736,74.76627565460512 133.36715108307544,74.8731387029984 132.2813271181658,75.42882593112881 132.10364683298394,75.51431618109928 131.64957499317825,75.77078678255202 131.43241020012647,75.85627693351125 131.03756512200925,76.09137472111615 130.62297778995708,76.32647232146701 129.79380312585272,76.81803942655097 129.5963805867359,76.92490173238912 128.82643268443644,77.09588134137448 128.60926789138466,77.03176399963559 128.27364957495593,76.9035292743647 128.135453797644,76.86078435354284 127.93803125852719,76.77529449335998 127.3260213873582,76.49745227690437 127.14834110229276,76.47607978794258 126.83246503979899,76.34784482134273 126.69426926237065,76.30509982010699 126.55607348505873,76.2409823066555 126.20071291469503,76.04862968274392 125.78612558275927,75.83490439812886 125.33205374283716,75.70666915306356 125.09514669596683,75.62117895879783 124.22648752387613,75.23647277819691 124.0488072388107,75.15098244772526 123.4960241294466,74.98000171268359 123.00246778177097,74.89451130799716 122.46942692622542,74.98000171268359 121.83767480123788,75.1937276161043 121.3243761996273,75.3433356564201 121.10721140669193,75.40745336477994 120.65313956676982,75.57843385232263 120.43597477383446,75.64255150969257 120.0608719495358,75.7494142409414 119.88319166447036,75.81353186114575 119.42911982454825,75.9845121135877 118.95530573069118,76.15549226701842 118.71839868393727,76.2409823066555 118.08664655883331,76.45470729738008 117.8892240197165,76.47607978794258 117.45489443384577,76.64705965673784 117.21798738685902,76.75392202447983 116.38881272287108,77.07450889566098 115.8162873594556,77.37372299472918 115.65834932832513,77.52332993058371 115.36221551964991,77.86528835649369 115.22401974222157,78.07901217159815 114.94762818748131,78.48508699412923 114.63175212510396,78.7629273404018 114.41458733205218,78.91253357249661 114.0,79.19037351658335 114.13819577742834,79.23311810020823 114.33561831642874,79.14762892684666 114.69097888679244,78.91253357249661 114.84891691803932,78.7629273404018 115.6188648204552,77.77979878714541 116.23087469150778,77.35235056915553 116.44803948444314,77.22411598308827 116.90211132436525,77.07450889566098 117.139018371352,76.98901909738197 117.57334795733914,76.81803942655097 117.81025500409305,76.77529449335998 118.22484233614523,76.62568717854447 118.4420071290806,76.54019725031685 118.83685220731422,76.36921731958864 119.05401700024959,76.30509982010699 119.4488620783668,76.15549226701842 119.64628461748362,76.07000220267219 120.33726350427605,75.83490439812886 120.57417055114638,75.7494142409414 121.04798464488704,75.55706129682949 121.28489169187378,75.45019849599339 121.67973676987458,75.25784535697312 121.91664381686132,75.1937276161043 122.54839594184887,75.06549209260265 122.98272552783601,75.1937276161043 123.2393748286413,75.25784535697312 123.69344666856341,75.40745336477994 123.91061146149877,75.49294362094952 124.32519879355095,75.64255150969257 124.54236358648632,75.70666915306356 124.97669317247346,75.87764946735115 125.39128050452564,76.07000220267219 125.60844529757742,76.15549226701842 126.02303262951318,76.32647232146701 126.43761996156536,76.47607978794258 126.63504250068218,76.54019725031685 126.97066081711091,76.68980460846797 127.18782561016269,76.75392202447983 127.76035097334534,76.94627418892924 128.35261859057937,77.18137110871612 128.55004112969618,77.24548841797514 129.1028242391767,77.30960571332253 129.47792706335895,77.15999866917264 129.67534960247576,77.05313644840498 130.050452426658,76.88215681473957 130.22813271183986,76.77529449335998 130.6032355360221,76.58294221750111 130.78091582120396,76.45470729738008 131.19550315337256,76.28372731714626 131.39292569237296,76.17686477926327 131.80751302442513,75.94176705973223 132.0246778173605,75.83490439812886 132.45900740334764,75.57843385232263 132.65642994234804,75.47157105925726 133.01179051271174,75.27921793411952 133.24869755958207,75.17235503270058 133.70276939950418,74.89451130799716 133.91993419243954,74.74490304026403 134.3937482862966,74.48843154782662 134.6503975869855,74.36019571800716 135.14395393477753,74.10372389139957 135.38086098153144,73.954115222994 135.815190567635,73.6976430437062 136.0126131066354,73.59077956987312 136.4666849465575,73.33430707495427 136.68384973949287,73.22744346965919 137.05895256367512,73.01371614303207 137.45379764190875,72.77861590505927 137.84864272002596,72.07331406796584 137.76967370440252,71.68860326494905 137.69070468877908,71.5176205248863 137.47353989584371,71.15428187357611 137.39457088010386,71.00467171071796 137.33534411841538,70.87643436790677 137.1774060871685,70.53446784822154 137.05895256367512,70.36348443981842 136.86153002467472,69.97877140893252 136.76281875523273,69.78641470556613 136.5653962159995,69.40170092269545 136.48642720037606,69.2307168583211 136.28900466137566,68.80325626416015 135.99287085270043,68.2048103925481 135.9139018371934,68.0124525334104 135.73622155201156,67.6277364390262 135.51905675895978,67.22164668451296 135.42034548940137,67.05066135755624 135.2031806963496,66.6659440099611 135.08472717297263,66.47358514816733 134.92678914172575,66.21710647075088 134.78859336441383,66.04612056206679 134.63065533316694,65.87513455437147 134.96627364959568,65.25530944616185 135.4993145050248,65.02020303026075 135.93364409101196,64.80646976240678 136.17055113788228,64.67822972740396 136.90101453242823,64.31488265909138 137.05895256367512,64.18664241052466 137.47353989584371,63.99428193329368 137.6709624348441,63.887414947355865 138.55936386075336,63.566813757352065 139.052920208429,63.41719974952866 139.28982725529931,63.37445287624723 139.78338360297494,63.1820918697631 140.27693995065056,63.09659804889816 140.53358925145585,63.07522458976018 141.04688785306644,63.01110420326586 141.2640526460018,62.989730737986974 141.69838223198894,62.882863388367696 141.9155470249243,62.86148991383379 142.29064984922297,62.84011643769918 142.4288456265349,62.84011643769918 142.64601041947026,62.86148991383379 143.06059775163885,62.86148991383379 143.51466959144454,62.818742960022064 143.77131889224984,62.775996000069426 144.1464217164321,62.73324903391767 144.38332876330242,62.711875548557146 144.81765834928956,62.69050206159591 145.09404990402982,62.69050206159591 145.6073485056404,62.69050206159591 146.10090485331602,62.69050206159591 146.3575541540049,62.73324903391767 146.83136824786197,62.7546225177648 147.75925418140832,62.904236861359095 148.19358376751188,62.989730737986974 148.4304908143822,63.01110420326586 149.2399232245516,63.07522458976018 149.63476830266882,63.11797150640632 149.81244858785067,63.160718416882446 150.3060049355263,63.20346532113035 150.54291198251303,63.24621221917914 150.93775706063025,63.310332554683555 151.33260213874746,63.39582631364465 151.68796270911116,63.48132004789659 151.92486975586507,63.502693477552384 152.29997258016374,63.48132004789659 152.53687962703407,63.502693477552384 152.9317247052677,63.502693477552384 153.72141486150213,63.60956060278113 154.01754867006093,63.65230744209839 154.53084727167152,63.71642768930178 154.76775431865826,63.73780110201915 155.26131066633388,63.78054792268085 155.47847545926925,63.78054792268085 156.03125856863335,63.7591745131067 156.82094872486778,63.71642768930178 156.99862901016604,63.71642768930178 157.41321634221822,63.71642768930178 157.90677268989384,63.73780110201915 158.10419522889424,63.69505427510012 158.81491636962164,63.78054792268085 159.52563751023263,63.69505427510012 159.76254455710296,63.65230744209839 160.51275020558387,63.524066905723885 160.71017274470069,63.502693477552384 161.69728544005193,63.310332554683555 162.66465588158462,63.05385112913791 163.15821222914383,62.989730737986974 163.45434603781905,63.032477666973136 163.65176857693586,63.11797150640632 164.00712914718315,63.33170599673758 164.184809432365,63.48132004789659 164.55991225666367,63.73780110201915 164.75733479566406,63.86604154552333 165.23114888952114,64.037028716848 165.70496298314538,64.0156553258712 166.17877707700245,63.80192133074161 166.57362215511966,63.1820918697631 166.75130244041793,62.45539360307157 167.22511653404217,62.07067026710138 167.75815738958772,61.835561314976076 167.9753221825231,61.792814212618396 168.6860433232505,61.5790786081634 168.8834658623673,61.53633146864013 169.2388264326146,61.45083717117086 169.3967644639779,61.40809001313755 169.57444474904332,61.38671643176349 169.75212503422517,61.36534284890513 169.91006306558847,61.30122209095862 170.62078420619946,61.08748613053467 170.6997532218229,61.08748613053467 171.43021661636885,60.91649725078605 171.963257471798,60.8096291506663 172.20016451878473,60.76688189979177 172.75294762814883,60.95924448000733 173.04908143682405,61.32259567847359 173.54263778438326,62.73324903391767 173.58212229213677,63.7591745131067 173.75980257743504,64.35762939616689 173.75980257743504,64.72097641188884 174.51000822591595,65.89650781071396 175.02330682752654,66.77280999018694 175.31944063608535,67.15752719849115 175.43789415957872,67.32851246354403 175.8919659993844,67.88421389099676 176.08938853850123,68.07657183374977 176.54346037842333,68.76051017068676 176.8593364408007,69.08110572077567 176.99753221822903,69.2307168583211 177.33315053465776,69.52993890602374 178.0241294214502,70.00014436827041 178.63613929250278,70.57721368485363 179.01124211680144,70.89780726228491 179.14943789411336,71.02604459581198 179.50479846447706,71.23977336115786 179.66273649560753,71.32526482403046 180.09706608159468,71.64585758923204 180.72881820658222,72.15880528948037 181.87386893329676,72.86410692232312 182.3081985192839,73.20607074393774 183.03866191382986,73.48391605739016 183.25582670688163,73.56940687046153 184.3811351795448,74.29607778222999 184.79572251159698,74.65941256756196 185.24979435151909,74.95862911385484 185.46695914445445,75.04411949997302 186.0,75.38608079688856" stroke="#4dd2ff" stroke-linecap="round" stroke-linejoin="round" stroke-width="0.5"><title>2023-02-12 10.1km</title></polyline><polyline fill="none" points="84.82576787169091,152.96633142841165 84.72791519435123,153.0722654097044 84.61049198149703,153.17819935265288 84.53220983967185,153.13582578008936 84.29736341384705,153.4536274248967 84.12122859468218,153.55956122987845 83.80810002714861,153.83498894327204 83.67110627889633,153.98329606623156 83.39711878215894,154.21634996475768 82.79043218260631,154.91551054702722 82.69257950526662,155.04263047347195 82.55558575689793,155.1909369845671 82.30116879579145,155.48754978130455 82.20331611845177,155.61466945934808 81.98804022825789,155.91128182671673 81.90975808631629,155.9960281622043 81.16607773851138,156.58925182356325 81.12693666748237,156.6104383606871 80.36368578416295,156.2926401431614 80.10926882294007,156.0384013207513 79.9331340037752,155.9324684128951 79.40472954604775,155.59348285014858 79.01331883657258,155.3180567913514 78.7980429463787,155.21212362287042 78.01522152754478,154.74601722585794 77.8195161728654,154.61889717061422 77.21282957307994,154.21634996475768 77.01712421851698,154.06804295988695 76.35172601242084,153.79261546576163 76.11687958682887,153.66549499644316 75.07964120688848,153.05107861646684 74.55123674904462,152.77565016548033 74.14025550417136,152.43666094691434 72.82902962761,151.63155997927242 72.20277249242645,151.20782173836778 69.61946181033272,149.0255600829696 69.20848056534305,148.64419229817577 69.01277521066368,148.47469534547417 68.6996466430137,148.13570114554022 68.50394128833432,147.94501673556806 68.03424843703397,147.3941499643406 67.7211198695004,146.9915928219998 67.5645555856172,146.80090766656213 67.17314487625845,146.2288514549291 66.97743952157907,145.84748002592823 66.87958684412297,145.63560679508373 66.13590649631806,144.55505093184183 65.84234846418258,143.8982405163406 65.41179668379482,142.71174054530275 65.31394400645513,142.45748992559675 65.19652079360094,141.94898802363605 65.15737972268835,141.6947367413086 65.07909758086316,141.18623351390124 64.04185920080636,140.23278758098604 63.787442239699885,140.275163021739 62.96547974983696,140.52941553744313 62.65235118230339,140.72010477927688 62.14351726009045,140.8048555135174 61.84995922795497,140.8048555135174 61.24327262828592,140.88960622320883 60.98885566717945,140.9531692393939 60.40173960314132,141.10148289010976 59.73634139704518,141.3557346878806 59.599347648676485,141.46167287175194 59.325360152171925,141.80067480244907 59.031802120036446,142.30917696213874 58.87523783626966,142.52105260125245 57.4270182113396,143.2838036319008 56.89861375372857,143.07192854501773 56.663767328020185,142.94480341924645 56.252786083030514,142.71174054530275 56.057080728467554,142.62699036329286 55.430823593284,142.43630236404715 55.215547703090124,142.47867748572025 54.765425387304276,142.58461526306928 54.31530307140201,142.66936545733188 53.747757542761974,142.75411562711815 53.532481652568094,142.796490702749 53.06278880115133,142.90242836505058 52.10383256315254,142.98717846727232 51.908127208356746,143.07192854501773 50.73389508004766,143.15667859815585 50.12720848049503,143.11430357462086 49.85322098387405,143.09311606058327 49.03125849401113,143.11430357462086 48.81598260381725,143.09311606058327 48.32671921711881,143.09311606058327 47.85702636570204,143.07192854501773 47.641750475624576,143.05074102786602 47.13291655341163,143.05074102786602 46.64365316648036,143.00836598903697 46.408806740888394,143.00836598903697 45.91954335407354,142.96599094405246 45.66512639296707,142.94480341924645 44.88230497413315,142.71174054530275 44.647458548424765,142.71174054530275 44.099483555182815,142.69055300208856 43.86463712959085,142.66936545733188 43.23837999452371,142.62699036329286 42.709975536796264,142.60580281392322 42.43598804017529,142.60580281392322 41.92715411784593,142.54224015669024 41.67273715673946,142.52105260125245 41.1834737699246,142.43630236404715 40.948627344332635,142.4151148008823 40.478934493032284,142.30917696213874 40.263658602838404,142.2668018159311 39.715683609596454,142.20323908509454 39.480837184004486,142.16086392352008 38.97200326167513,142.11848875581927 38.75672737148125,142.0973011696624 38.32617559109349,142.03373840196582 38.11089970089961,142.01255080969713 37.66077738511376,142.05492599276477 37.171513998298906,142.03373840196582 36.42783365037758,142.03373840196582 36.2125577601837,142.01255080969713 35.74286490888335,142.03373840196582 35.52758901868947,142.03373840196582 34.098939929157495,142.07611358197755 33.23783636849839,142.30917696213874 32.787714052712545,142.39392723617493 32.1223158466164,142.58461526306928 31.88746942090802,142.6481779110909 31.417776569607668,142.77530316566117 30.948083718307316,142.92361589295615 30.41967926057987,143.13549108721782 30.145691763958894,143.17786610758048 29.675998912658542,143.32617863084306 29.22587659675628,143.58042849578487 29.010600706678815,143.6863658743241 28.560478390776552,143.91942797214142 28.364773036097176,144.06774011954258 27.895080184796825,144.25842705574178 27.679804294602945,144.36436418886296 27.05354715953581,144.83048711896117 26.662136450060643,145.1694851473003 26.329437347012572,145.50848278292688 25.938026637537405,145.82629270970938 25.09649361227639,146.69497141544707 24.391954335267656,147.11871618994337 24.039684696821496,147.3729627601424 23.804838271229528,147.54246035088727 22.982875781483017,148.22044973236916 22.748029355774634,148.68656652104983 22.689317749347538,148.91962463701202 22.571894536493346,149.47048853707383 22.10220168507658,149.8518552451569 21.8869257948827,149.91541631480504 21.554226691951044,150.02135140028258 20.712693666573614,150.5510262526659 20.438706170069054,150.93239155282208 20.20385974436067,151.33494327502558 19.910301712341607,151.73749444363057 19.147050828905776,152.47903462065733 18.65778744209092,152.33072673557035 18.52079369383864,152.28835304027598 18.364229410071857,152.2247924858675 17.953248165198602,152.012923871589 16.896439249743707,151.9281763828476 16.72030443046242,152.012923871589 16.191899972734973,152.20360563136637 15.976624082541093,152.30953988869442 15.095949986367486,152.62734243065643 14.821962489746511,152.75446335082233 14.391410709358752,152.96633142841165 14.0,153.43244065938052 14.19570535456296,154.0044827919337 14.782821418717504,154.15278982900782 15.428649089299142,154.15278982900782 15.585213373065926,154.1951632543787 16.250611579045653,154.38584359257948 16.50502854026854,154.51296374906087 16.994291927083395,154.7036438802461 17.22913835279178,154.78839056537254 17.953248165198602,155.08500377000018 18.677357977605425,155.36043004808016 18.912204403313808,155.42398992160452 19.362326719099656,155.61466945934808 19.59717314480804,155.67822927766247 20.106007067020983,155.86890864977613 20.340853492729366,155.9960281622043 20.810546344029717,156.16552075954678 21.025822234223597,156.25026702144532 21.9652079368243,156.2926401431614 22.39575971721206,156.05958789773285 22.591465071891434,155.95365499751642 22.982875781483017,155.82653546673828 23.21772220695857,155.76297568061273 23.589562380919233,155.57229623947933 23.804838271229528,155.4663631629519 24.235390051500872,155.2333102596167 24.470236477209255,155.10619041594327 24.920358793111518,154.89432388721616 25.135634683305398,154.78839056537254 25.585756999091245,154.51296374906087 25.801032889285125,154.40703028917778 26.251155205187388,154.15278982900782 26.466431095264852,154.02566951610788 26.916553411167115,153.79261546576163 27.131829301360995,153.70786849236174 27.54281054623425,153.4536274248967 27.75808643642813,153.34769358162885 28.129926610388793,153.1146389914502 28.345202500582673,153.00870502558246 28.775754280970432,152.79683697865403 28.99103017116431,152.6697160768672 29.38244088063948,152.45784778456436 29.51943462889176,152.37310042472382 30.165262299473397,151.25019559006614 29.98912748019211,150.80526984133758 29.85213373193983,150.5722132268129 29.38244088063948,149.7671071307268 29.186735525843687,149.36455325220595 28.971459635649808,148.96199881999928 28.677901603630744,148.38994683232158 28.364773036097176,147.81789372654748 28.26692035875749,147.58483473326487 28.051644468447194,147.16109063364274 27.97336232662201,146.94921835378045 27.718945365515538,146.29241331138473 27.581951617146842,144.80929972912418 27.75808643642813,144.7457375505037 28.403914106893353,144.36436418886296 28.834465887397528,144.15248988429084 29.069312312989496,144.0253652279207 29.617287306347862,143.64399092752137 30.223973905900493,143.26261613005772 30.400108725065365,143.17786610758048 31.92661049182061,142.69055300208856 32.494156020577066,142.52105260125245 33.355259581352584,142.45748992559675 33.55096493603196,142.43630236404715 34.0597988582449,142.37273966998328 34.31421581946779,142.35155210226367 34.76433813525364,142.28798938983527 34.96004349004943,142.28798938983527 35.41016580583528,142.24561424049898 35.64501223154366,142.24561424049898 36.03642294090241,142.24561424049898 36.31041043752339,142.224426663568 36.78010328882374,142.182051505064 36.975808643503115,142.182051505064 37.46507203031797,142.182051505064 37.77820059785154,142.20323908509454 38.365316662122495,142.20323908509454 38.932862190762535,142.224426663568 39.18727915186901,142.24561424049898 39.754824680509046,142.35155210226367 40.14623538998421,142.4151148008823 40.57678717037197,142.45748992559675 40.81163359596394,142.47867748572025 41.28132644726429,142.54224015669024 41.985865724273026,142.69055300208856 42.47512911108788,142.75411562711815 43.101386246155016,142.796490702749 43.394944278290495,142.8600533047429 43.962489806930535,142.96599094405246 44.216906768037006,143.05074102786602 44.62788801291026,143.13549108721782 45.17586300626863,143.11430357462086 45.48899157368578,143.11430357462086 46.01739603141323,143.17786610758048 47.11334601789713,143.24142862675944 47.38733351440169,143.24142862675944 48.3658602880314,143.11430357462086 50.24463169334922,143.07192854501773 51.04702364769764,143.19905361550627 51.516716498997994,143.17786610758048 51.73199238907546,143.13549108721782 52.456102201598696,143.05074102786602 52.71051916270517,143.00836598903697 53.473770046141,142.88124083566072 53.94346289744135,142.69055300208856 54.72628431627527,142.58461526306928 54.92198967107106,142.54224015669024 55.430823593284,142.54224015669024 55.58738787705079,142.56342771061463 56.13536287017632,142.796490702749 56.4876325087389,143.09311606058327 57.05517803749535,143.3685536236735 57.485729817766696,143.41092861033394 58.22941016580444,143.2838036319008 58.679532481590286,142.796490702749 58.87523783626966,142.224426663568 59.56020657788031,141.46167287175194 59.73634139704518,141.39810996600136 60.147322641918436,141.27098411317274 60.519162815995514,141.18623351390124 60.65615656413138,141.1438582051196 60.77357977698557,141.0802952303493 61.10627888003364,140.93198156889412 61.28241369931493,140.88960622320883 61.49768958950881,140.91079389683728 62.10437618906144,140.7624801494385 62.84805653709918,140.5506032371486 63.72873063327279,140.29635073982354 64.19842348457314,140.19041213403398 64.7072574069025,140.38110159678035 65.07909758086316,141.12267054838594 65.45093775470741,141.88542522375064 65.76406632224098,143.19905361550627 65.84234846418258,143.45330359089712 66.35118238639552,144.63980055548018 66.56645827670582,145.12711041524017 66.86001630872488,145.61441946352716 67.09486273443326,146.10172770045756 67.21228594717104,146.27122602745658 68.6605055721011,148.15688829457213 68.99320467514917,148.43232109196833 69.18891002982855,148.62300518446136 69.5803207391873,149.00437299683108 70.03044305508956,149.38574031223834 70.22614840976894,149.5552367373457 70.55884751281701,149.89422929314605 70.6762707256712,150.1060994411382 71.45909214450512,150.52983927700552 72.20277249242645,151.03832627026713 72.43761891813483,151.14426094930968 74.33596085885074,152.88158421579283 74.786083174753,152.98751822776103 75.07964120688848,153.00870502558246 75.7254688773537,153.34769358162885 76.37129654793534,153.77142872470722 77.29111171513796,154.36465689446777 77.93693938560318,154.74601722585794 78.68061973352451,155.2333102596167 78.83718401729129,155.38161667408713 79.28730633319356,155.61466945934808 79.8744223973481,156.0384013207513 80.30497417773586,156.2926401431614 81.45963577053044,156.88586320343893 81.69448219623882,156.97060925675032 82.37945093773305,157.16128778705024 82.73172057617921,157.47908506156818 82.98613753728569,157.71213617688045 83.22098396299407,157.83925488889508 84.80619733617641,158.72908432714758 85.17803751013707,159.06806625885656 86.0,159.80958786596602 85.88257678714581,159.7036563228321 85.72601250337902,159.57653842041327 85.53030714858323,159.42823413119186 84.9431910845451,159.00450717657804 84.74748572974931,158.87738897057716 84.21908127202187,158.6019660015736 83.80810002714861,158.36891559463402 83.63196520786732,158.17823785096698 82.92742593085859,157.71213617688045 82.51644468598533,157.39433915540576 82.28159826027695,157.28840673824016 81.8119054089766,156.99179576628376 81.42049469961785,156.8223036473355" stroke="#4dd2ff" stroke-linecap="round" stroke-linejoin="round" stroke-width="0.5"><title>2023-02-05 10.1km</title></polyline><polyline fill="none" points="186.0,156.9876070319733 184.65905140305404,156.36822437361116 184.49813757149968,156.29080144045292 184.24782716680784,156.1359555068484 184.033275391208,156.00046524143545 183.71144772786647,155.78755182851455 183.56841321091633,155.69077294839371 183.3359821208287,155.51657087597414 183.22870623297058,155.43914769624826 182.28110255778302,154.78104976346367 182.1559473554371,154.70362637081416 180.56468835368287,153.8132557438512 180.0998261733912,153.61969651961408 179.86739508330356,153.48420497926418 179.45617084682453,153.13579784607282 179.24161907134112,153.0003060605668 178.6337223740993,152.4970502561482 177.99006704741623,152.2260659691965 177.8470325304661,152.14864183675672 176.79215296753682,151.41311146052612 176.43456667498685,151.16148218313174 176.2736528434325,151.00663327937946 175.7909113484202,150.56144218148256 175.4869629997993,150.27109976182692 175.34392848273274,150.09689415867615 174.95058356109075,149.57427666826698 174.87906630255748,149.49685176803905 174.39632480766159,149.01294563342526 174.27116960519925,148.81938293436542 174.020859200391,148.47096972294094 173.87782468344085,148.29676294694946 173.32356593001168,147.38701460622542 173.25204867159482,147.23216351657175 172.80506580590736,146.34176801040303 172.67991060344502,145.97399508820672 172.57263471570332,145.79978668535477 172.39384156942833,145.12230848397303 172.01837596227415,144.4061153758521 171.78594487218652,143.80606021363928 171.73230692825746,143.5737804344244 171.6786689844448,143.1866470206005 171.6607896698406,142.97372340402217 170.8919791408116,142.21881103343912 170.62378942151554,142.2962380413519 170.17680655582808,142.4123785111733 170.0158927241573,142.4510919898894 169.56890985846985,142.5478756622324 168.96101316122804,142.6833727445337 168.4425130370073,142.78015633273753 167.67370250821114,142.97372340402217 166.94065060839057,143.16729033517186 166.761857462232,143.1866470206005 166.42215048428625,143.34150045340357 166.29699528194033,143.49635379652318 165.95728830399457,144.0576964133943 165.83213310164865,144.4641851588094 165.5818226968404,144.85131672273565 165.24211571901105,145.12230848397303 164.74149490951095,145.21909118928306 164.27663272910286,145.12230848397303 163.95480506587774,144.9093864089955 163.79389123420697,144.75453388434835 163.23963248089422,144.4061153758521 162.59597715421114,144.3093323763169 162.38142537872773,144.3286889789888 161.9702011423651,144.4254719715682 161.7556493668817,144.4641851588094 161.09411472571082,144.5996812700032 160.64713186002336,144.65775101084728 160.5040973429568,144.67710758835892 159.89620064559858,144.75453388434835 159.48497640935238,144.81260359156295 159.3061832630774,144.83196015788417 158.9307176558068,144.89002984833496 158.10826918308157,144.8706732862338 157.89371740759816,144.8706732862338 157.46461385651492,144.9093864089955 157.2500620810315,144.9093864089955 156.74944127141498,144.9093864089955 156.51701018132735,144.9093864089955 156.05214800103568,144.9093864089955 155.80183759634383,144.9093864089955 155.35485473065637,144.89002984833496 155.12242364045233,144.8706732862338 154.46088899928145,144.81260359156295 154.22845790919382,144.79324702390295 153.79935435811058,144.75453388434835 153.56692326802295,144.73517731242464 153.28085423400626,144.7158207391476 153.030543829198,144.67710758835892 151.9577849516645,144.56096810237796 151.74323317606468,144.54161151646986 151.11745716421865,144.48354175036366 150.92078470333945,144.4448285659164 150.50956046686042,144.36740218025807 150.31288800598122,144.36740218025807 149.93742239894345,144.3093323763169 149.5083188478602,144.25126255971554 149.29376707226038,144.23190595141205 148.90042215050198,144.1931927305268 148.68587037501857,144.17383611803234 148.25676682405174,144.11576627200702 148.0422150484519,144.09640965388098 147.59523218276445,144.0576964133943 147.39855972188525,144.01898316730512 146.98733548552264,143.99962654216506 146.82642165396828,143.980269915628 146.70126645150594,143.96091328769398 146.34368015895598,143.980269915628 146.14700769807678,143.980269915628 145.6821455177851,143.980269915628 145.4675937423017,143.96091328769398 145.05636950593907,143.99962654216506 144.85969704505987,144.03833979106275 144.43059349397663,144.0576964133943 144.0014899428934,144.13512288872153 143.3220759871183,144.21254934168246 143.08964489703067,144.23190595141205 142.6426620313432,144.3093323763169 142.4281102558598,144.34804558036558 141.98112739017233,144.4448285659164 141.3553513782099,144.5996812700032 141.12292028812226,144.65775101084728 140.69381673703901,144.77389045481686 140.46138564695138,144.85131672273565 140.05016141058877,144.96745608262427 139.67469580331817,145.12230848397303 139.46014402783476,145.21909118928306 139.1025577354012,145.33523038939165 138.85224733059295,145.4320130175911 138.36950583569705,145.62557816892513 138.17283337481786,145.72236069204519 137.7437298237346,145.87721265618165 137.51129873364698,145.97399508820672 137.11795381177217,146.16755984716292 136.9570399801014,146.28369863526314 136.2597467097221,146.96117389382562 136.09883287805133,147.07731233719096 135.759125900222,147.34830184225575 135.4909361808095,147.67736015768605 135.1691085175844,147.92899271387432 135.02607400051784,148.0644870691467 134.6863670226885,148.31611926105688 134.52545319101773,148.43225711588457 134.1857462131884,148.703245247656 133.98907375219278,148.8000266567251 133.63148745975923,149.05165815640066 132.77328035759274,150.17431888516876 132.7375217283843,150.67757906108454 132.5229699529009,151.12276996563014 132.29053886269685,151.16148218313174 131.41445244604256,151.33568709270912 130.9674695803551,151.7808769015246 130.84231437800918,151.9744374567963 130.59200397320092,152.30349007918267 130.4847280854592,152.47769424476428 130.28805562458,152.82610223542724 130.03774521988817,153.11644188089122 129.55500372499228,153.5616287250159 129.16165880311746,153.3874252656242 128.98286565684248,153.271289562952 128.66103799361736,153.03901800626772 128.2140551279299,152.8648142064194 127.76707226235885,152.8454582216218 127.39160665508825,152.96159410919063 127.21281350881327,153.03901800626772 126.81946858705487,153.21322169268387 126.30096846295055,153.48420497926418 126.14005463127978,153.5229168549704 125.31760615855455,153.89067939433153 124.96001986600459,154.08423842240882 124.79910603433382,154.16166199445433 124.17333002237137,154.31650907117 123.85150235914625,154.37457670184085 123.24360566178802,154.6262029557256 122.86814005475026,154.87782897283614 120.82989818730857,155.72948450465628 120.63322572642937,155.84561913979996 120.04320834367536,156.09724400946288 119.81077725358773,156.1359555068484 118.98832878074609,156.32951290981146 118.77377700526267,156.38758010338643 118.36255276878364,156.5037144527305 118.18375962262508,156.56178160847048 117.62950086919591,156.75533870320942 117.48646635224577,156.79405010532355 117.325552520575,156.8521171980392 117.00372485723346,156.94889565787162 116.78917308175005,156.9876070319733 116.39582815999165,157.08438544278033 116.1633970697876,157.14245247244253 115.73429351882078,157.25858649393194 115.53762105794158,157.31665348578827 115.05487956292927,157.43278743160772 114.5900173826376,157.52956568128138 114.41122423647903,157.60698825585132 114.0,157.70376644247153 114.08939657313749,157.78118896656088 114.28606903401669,157.72312207557843 114.92972436069977,157.52956568128138 115.14427613618318,157.4908543856145 115.50186242861673,157.3940761219128 115.71641420410015,157.33600914689305 116.89644896949176,156.9876070319733 117.11100074509159,156.91018427813833 117.64738018380012,156.75533870320942 117.86193195928354,156.7166272954637 118.27315619576257,156.6392044631648 118.48770797124598,156.5811373242177 118.93469083693344,156.445647284374 119.95381177053787,156.1940227424493 120.34715669229627,156.077888258631 121.16960516513791,155.69077294839371 121.77750186237972,155.45850349331158 122.5284330768045,155.20687802256725 122.86814005475026,154.97460814712394 123.04693320090882,154.85847313379054 123.40451949345879,154.606847098461 123.77998510061298,154.45200018979085 123.97665756149217,154.41328844863165 124.38788179785479,154.31650907117 125.46064067550469,153.85196757189988 125.63943382177968,153.77454391025822 125.99702011432964,153.6390524483868 126.3546064067632,153.48420497926418 126.80158927245066,153.32935742057452 127.03402036253829,153.21322169268387 127.42736528429668,153.05837397706637 128.19617581320927,152.9809500855772 128.58952073508408,153.15515380982833 128.71467593743,153.21322169268387 128.85771045449656,153.271289562952 129.2152967469301,153.48420497926418 130.3595728831133,152.8648142064194 130.4847280854592,152.67125429565203 130.73503849026747,152.28413405381434 131.77203873859253,151.41311146052612 132.3441768066259,151.2969749003678 132.68388378445525,150.92920879386656 132.7196424137801,150.75500361947343 132.77328035759274,150.11625034242752 133.04147007700521,149.6323453287623 133.3096597964177,149.400070611111 133.45269431336783,149.30328941928747 133.75664266210515,149.05165815640066 133.93543580838013,148.8774517588172 134.34666004474275,148.62582009517064 134.70424633729272,148.4129008102027 134.84728085435927,148.29676294694946 135.1691085175844,148.02577440319874 135.79488452943042,147.40637098612206 135.99155699030962,147.27087629737798 136.31338465365116,146.99988671387837 136.67097094620112,146.5934018236003 137.18947107030544,146.2643421741086 137.36826421658043,146.18691631537513 137.7437298237346,145.99335157043242 137.9225229700096,145.9159256331768 138.315867891768,145.76107369149395 138.5125403526472,145.6642911824165 139.22771293774713,145.31587385953753 139.4065060840221,145.19973465098883 139.76409237645566,145.06423884395917 139.9786441520555,145.00616919134336 140.7653339955723,144.77389045481686 140.9620064564515,144.7158207391476 141.60566178301815,144.56096810237796 141.83809287310578,144.50289834044816 142.2493171095848,144.4061153758521 142.46386888506822,144.4061153758521 142.9287310653599,144.38675877878268 143.59026570653077,144.25126255971554 143.82269679673482,144.23190595141205 144.19816240377259,144.1544795040827 144.3948348647682,144.13512288872153 144.73454184259754,144.13512288872153 144.8954556742683,144.11576627200702 145.03849019133486,144.07705303432886 145.3960764837684,144.0576964133943 145.53911100083496,144.0576964133943 146.12912838347256,144.0576964133943 146.32580084435176,144.07705303432886 146.77278371003922,144.09640965388098 147.2376458903309,144.11576627200702 147.64887012680992,144.17383611803234 147.86342190217692,144.17383611803234 148.2388875093311,144.21254934168246 148.4176806556061,144.23190595141205 148.84678420668934,144.28997577217524 149.22224981384352,144.3286889789888 149.4010429601185,144.34804558036558 149.7943878818769,144.4061153758521 149.97318102815188,144.4061153758521 150.36652594979387,144.4641851588094 150.56319841078948,144.50289834044816 150.9744226471521,144.56096810237796 151.11745716421865,144.5996812700032 151.2604916812852,144.5996812700032 151.85050906380638,144.67710758835892 152.4405264465604,144.73517731242464 152.6550782220438,144.77389045481686 153.0484231438022,144.83196015788417 153.24509560479783,144.8706732862338 154.0139061337104,144.96745608262427 154.83635460643563,145.00616919134336 155.06878569663968,145.00616919134336 156.19518251810223,144.9868126376823 156.39185497898143,144.9868126376823 157.07126893475652,145.04488229450362 157.21430345182307,145.06423884395917 157.6434070027899,145.06423884395917 157.8400794636691,145.06423884395917 158.2513037000317,145.04488229450362 158.46585547563154,145.02552574366564 158.84132108278573,145.00616919134336 159.03799354366492,144.96745608262427 159.43133846542332,144.8706732862338 159.6995281848358,144.8706732862338 160.16439036512747,144.81260359156295 160.3789421406109,144.77389045481686 160.7722870623693,144.7158207391476 161.00471815257333,144.69646416445903 161.48745964746922,144.6190378516476 161.71989073755685,144.56096810237796 162.11323565943167,144.4641851588094 162.3635460641235,144.4061153758521 163.1502359076403,144.4061153758521 163.45418425637763,144.5996812700032 163.9190464366693,144.96745608262427 164.04420163901523,145.04488229450362 164.16935684136115,145.10295193870843 164.72361559479032,145.27716079563834 165.47454680909868,145.02552574366564 165.85001241625287,144.50289834044816 165.8857710455777,144.34804558036558 165.93940898939036,143.99962654216506 166.51154705742374,143.5157104580867 166.8691333499737,143.34150045340357 167.31611621566117,143.1866470206005 167.49490936181974,143.10922027057677 167.88825428369455,143.03179349808488 168.08492674457375,142.97372340402217 168.4246337224031,142.89629659232742 168.56766823946964,142.8769398859149 168.83585795888212,142.85758317809086 168.96101316122804,142.79951304619317 169.67618574632797,142.60594584874343 169.8907375218114,142.5478756622324 170.44499627512414,142.37366502684017 170.65954805072397,142.33495153690455 171.2853240626864,142.2962380413519 171.4819965235656,142.72208618406148 171.53563446737826,142.9156532973866 171.64291035523638,143.26407374822884 171.78594487218652,143.63185039816017 171.875341445324,143.7867035731033 172.054134591599,144.67710758835892 172.054134591599,144.8706732862338 172.12565185001586,145.2578042615787 172.30444499640726,145.5868651498604 172.46535882807802,145.9159256331768 172.78718649130315,146.55468894468504 173.12689346913248,147.1547379380936 173.32356593001168,147.50315286465047 173.41296250314917,147.65800379739085 173.60963496402837,148.02577440319874 173.7347901664907,148.19998135573405 173.98510057118256,148.49032602433 174.07449714432005,148.6838889616629 174.3248075491283,148.97423310480372 174.55723863933235,149.2258644405374 174.66451452707406,149.400070611111 174.9148249317659,149.748482611918 175.07573876343668,149.88397604518104 175.3975664266618,150.213031240055 175.5048423144035,150.3485244378826 175.77303203381598,150.63886677351547 176.0769803825533,150.871140415009 176.39880804577842,151.14212607506488 176.47032530419528,151.25826270248217 176.5597218774492,151.31633099728788 176.82791159674525,151.52924797024752 176.93518748460338,151.6260283564916 177.0603426869493,151.72280870765098 177.66823938430753,152.20670993815293 178.00794636213686,152.47769424476428 178.20461882301606,152.574474287685 178.61584305937868,152.82610223542724 178.81251552025788,152.92288215228473 179.77799851004966,153.65840837568976 180.13558480259962,153.8132557438512 180.35013657819945,153.89067939433153 180.72560218535364,154.0068148279388 180.886516016908,154.122950211211 181.35137819731608,154.47135605831863 181.8519990068162,154.78104976346367 182.04867146769539,154.85847313379054 182.42413707473315,155.05203146138228 182.7459647380747,155.2649454599159 182.90687856974546,155.36172449406877 183.40749937924556,155.67141716819606 183.7472063570749,155.86497490736656 183.94387881807052,155.96175372443395 184.28358579601627,156.1553112534748 184.46237894217484,156.25208996547735 184.89148249325808,156.48435873133712 185.08815495413728,156.6392044631648 185.71393096609972,157.0069627169578 185.94636205618735,157.14245247244253" stroke="#4dd2ff" stroke-linecap="round" stroke-linejoin="round" stroke-width="0.5"><title>2023-01-08 10.0km</title></polyline><polyline fill="none" points="86.0,253.7523351748241 84.96774193504825,253.65919090854004 79.20430107507855,251.3305820588721 78.17204301059246,250.77171530702617 73.35483870981261,250.02655925962608 72.58064516121522,250.58542633557227 68.88172043021768,252.91403653577436 63.72043010732159,250.11970378935803 61.74193548364565,248.25681191601325 59.419354838784784,245.83504844317213 57.44086021464318,244.71730991650838 51.0752688171342,244.5310200676322 48.666666666045785,244.90359973849263 46.51612903177738,245.27617930155247 44.021505375858396,246.39391734206583 41.956989246886224,247.51165441051126 38.25806451588869,248.53624586912338 35.677419354207814,248.44310122483876 33.956989246886224,249.18825819017366 33.09677419345826,250.21284831198864 30.25806451542303,252.6346035344759 28.021505375858396,253.93862368701957 27.677419354673475,258.8752594209509 27.505376344081014,258.688971624244 27.677419354673475,259.0615471904166 27.677419354673475,258.7821155257989 28.62365591386333,254.49748906167224 29.655913978349417,253.93862368701957 31.462365590967238,252.35517047252506 32.494623655453324,246.95278599788435 31.63440860202536,246.11448292294517 30.25806451542303,244.43787513300776 27.763440859969705,241.0846529903356 18.473118279129267,236.8931130071869 17.698924730997533,236.0548033696832 14.860215053427964,233.81930832983926 14.258064515888691,232.2358303234214 17.784946236293763,228.41684592689853 22.516129031777382,224.87728927796707 23.376344085205346,224.13211821496952 24.752688171807677,222.1760421176441 25.44086021464318,220.31310973281506 25.698924730997533,219.28849576995708 26.215053763240576,217.05297156027518 26.73118279548362,214.81744346092455 27.333333333022892,213.60653078299947 28.27956989221275,211.65043866203632 28.79569892399013,210.71896517672576 33.956989246886224,211.46414401882794 34.90322580607608,211.83673327800352 36.36559139797464,211.09155465173535 37.053763440810144,209.2286061954219 37.74193548364565,208.20398339338135 39.118279569316655,206.62047381873708 38.688172042835504,203.1740050574299 37.139784946106374,202.05622941988986 30.774193548131734,206.71362149482593 31.462365590967238,209.97378590225708 34.98924731137231,211.83673327800352 36.27956989221275,211.09155465173535 36.62365591386333,210.06693333515432 39.032258064020425,206.62047381873708 39.4623655914329,205.9684398972895 39.118279569316655,203.1740050574299 38.25806451588869,202.52196938695852 36.96774193504825,201.77678535832092 34.55913978489116,201.8699333856348 33.01075268769637,203.08085712464526 32.408602150157094,203.82604039728176 31.462365590967238,204.94381449499633 30.860215053427964,205.68899668683298 31.032258064020425,209.50804863625672 31.72043010732159,209.97378590225708 34.129032257944345,211.18470200360753 36.10752688162029,210.81211255548988 36.36559139797464,210.06693333515432 38.774193548131734,206.89991682674736 39.20430107507855,203.45344881503843 37.82795698894188,202.42882140702568 36.45161290280521,201.59048928366974 34.043010752648115,201.68363732437138 32.83870967710391,202.89456123916898 32.408602150157094,203.5465967206983 31.80645161261782,204.19863187125884 30.860215053427964,205.68899668683298 30.430107526946813,206.34103075007442 31.204301075078547,209.50804863625672 31.97849462321028,210.06693333515432 33.78494623629376,211.18470200360753 36.36559139797464,210.62581779109314 36.70967741915956,209.6943435629364 38.34408602118492,207.17935977387242 38.51612903224304,203.63974461937323 37.82795698894188,202.9877091854578 35.0752688171342,201.4973412360996 34.387096773833036,202.05622941988986 33.78494623629376,202.33567342034075 32.83870967710391,203.5465967206983 32.408602150157094,203.91918827570044 32.06451612850651,204.47807540593203 32.408602150157094,210.34637559356634 30.688172042835504,206.06158762064297 31.97849462321028,204.01233614748344 32.83870967710391,202.9877091854578 38.946236558724195,205.9684398972895 38.25806451588869,206.71362149482593 37.82795698894188,207.17935977387242 36.88172042975202,208.8560161801288 35.24731182772666,211.46414401882794 34.129032257944345,211.09155465173535 30.946236558724195,209.6943435629364 30.516129031777382,205.9684398972895 31.204301075078547,205.13011008361354 32.408602150157094,203.1740050574299 33.09677419345826,202.24252542678732 35.50537634361535,201.4973412360996 36.62365591386333,202.05622941988986 39.118279569316655,205.22325786750298 38.43010752648115,205.9684398972895 37.311827956698835,207.73824548558332 36.79569892445579,210.06693333515432 36.5376344085671,212.11617515119724 36.27956989221275,214.6311492769746 35.677419354207814,216.4940898999339 35.33333333302289,217.42555919848382 34.47311827912927,219.38164252764545 34.043010752648115,220.31310973281506 32.75268817180768,223.2938002521405 32.23655913909897,224.22526462143287 31.54838709626347,225.9018987842137 31.118279569782317,226.55392259033397 30.516129031777382,228.13740759866778 30.08602150483057,230.18662059505004 29.827956988941878,230.9317881471943 29.569892472587526,232.60841355950106 29.397849461995065,233.35357970686164 29.225806451402605,234.0987454225542 28.7096774186939,235.58907555695623 28.36559139750898,236.24109444755595 27.935483870562166,236.8931130071869 24.838709676638246,238.01085833949037 23.80645161261782,237.82456751831342 23.032258064486086,238.01085833949037 22.25806451588869,238.10400374000892 20.7096774186939,238.01085833949037 19.247311827726662,237.45198579493444 18.559139784425497,236.9862584886141 17.52688171993941,235.96165782073513 16.580645160749555,235.12334757577628 16.06451612850651,234.75076506927144 15.290322579909116,234.37818245438393 14.258064515888691,232.88785091543104 14.602150537073612,231.49066352751106 14.860215053427964,231.0249340608716 16.322580644860864,229.62774464732502 16.924731182400137,229.1620145054767 17.35483870934695,228.88257633906323 19.247311827726662,227.76482306641992 20.881720429752022,226.55392259033397 21.655913978349417,225.9018987842137 22.602150537073612,225.15672831539996 23.290322580374777,224.5047038004268 23.89247311791405,223.8526789547177 24.666666666045785,222.54862827039324 25.61290322523564,220.219963042764 25.784946236293763,219.47478927858174 26.129032257478684,217.7981467290083 26.301075268536806,217.14611848001368 26.301075268536806,216.4009429330472 26.98924731183797,214.53800217504613 27.333333333022892,213.79282511549536 27.677419354673475,213.14079483388923 28.36559139750898,211.83673327800352 28.62365591386333,211.27784934884403 29.483870967291296,209.60119610279799 29.655913978349417,207.73824548558332 30.17204301059246,206.43417844641954 30.774193548131734,205.68899668683298 31.290322580374777,205.0369622927392 32.1505376342684,203.73289251152892 32.494623655453324,203.26715298346244 33.44086021464318,202.14937742659822 33.87096774158999,201.68363732437138 34.215053762774915,201.31104512081947 37.139784946106374,202.14937742659822 38.0,202.6151173603721 38.946236558724195,205.31640564498957 38.60215053753927,206.06158762064297 37.225806451402605,207.9245406689588 36.96774193504825,208.6697211317951 36.62365591386333,210.34637559356634 36.36559139797464,212.11617515119724 36.36559139797464,213.51338360679802 36.19354838691652,215.0037376176333 35.763440859969705,216.58723686030135 35.591397849377245,217.14611848001368 35.33333333302289,217.8912935947301 34.64516129018739,219.47478927858174 33.87096774158999,220.96513637469616 33.44086021464318,221.80345585662872 32.580645161215216,223.66638608067296 32.23655913909897,224.5047038004268 31.376344085671008,225.99504506250378 30.774193548131734,227.39223842602223 30.516129031777382,228.23055371490773 30.25806451542303,228.97572240128648 29.827956988941878,230.74549629969988 29.655913978349417,231.6769552670885 29.483870967291296,233.2604339622194 29.053763440344483,234.65761942556128 28.881720429752022,235.4027843849035 28.021505375858396,236.7999675187748 27.591397848911583,237.45198579493444 24.580645160749555,237.82456751831342 23.97849462321028,237.73142209742218 22.688172042369843,237.82456751831342 21.311827956698835,237.91771293221973 20.53763440810144,237.91771293221973 19.247311827726662,237.6382766701281 18.043010752182454,236.42738549830392 17.44086021510884,235.96165782073513 16.838709677103907,235.30963878845796 15.4623655914329,234.56447377509903 14.688172042835504,234.19189110654406 14.08602150529623,232.51526776049286 14.602150537073612,231.3043717610417 15.032258064020425,230.83864222676493 16.06451612850651,229.814036656986 16.752688171342015,229.34830658242572 19.677419354673475,227.39223842602223 22.34408602118492,225.34302097302862 22.946236558724195,224.78414291888475 23.462365590967238,224.22526462143287 24.408602150622755,223.20065377815627 24.838709676638246,222.4554817425087 25.35483870888129,221.24457626289222 25.526881720405072,220.49940309289377 26.129032257478684,218.17073415126652 26.301075268536806,217.42555919848382 26.387096773833036,216.6803838138003 26.55913978489116,215.37632585025858 27.161290322430432,213.79282511549536 28.36559139750898,211.55729134380817 29.139784946106374,210.25322818069253 29.483870967291296,209.50804863625672 29.741935483645648,208.29713095445186 29.91397849470377,206.99306448246352 30.860215053427964,205.87529216706753 31.290322580374777,205.31640564498957 31.63440860202536,204.7575188796036 32.408602150157094,203.5465967206983 32.83870967710391,202.89456123916898 33.69892473053187,201.8699333856348 35.0752688171342,200.93845280946698 35.849462365265936,201.4041931820102 36.27956989221275,201.77678535832092 39.032258064020425,203.82604039728176 39.54838709672913,204.38492756767664 39.118279569316655,205.13011008361354 38.0,206.71362149482593 37.569892472587526,207.27250740933232 36.88172042975202,208.57657359773293 36.62365591386333,210.06693333515432 36.5376344085671,210.81211255548988 36.45161290280521,211.55729134380817 36.36559139797464,212.8613531832816 36.27956989221275,213.60653078299947 36.10752688162029,215.09688468603417 36.10752688162029,215.93520799675025 35.591397849377245,217.05297156027518 35.41935483831912,217.7981467290083 35.0752688171342,218.7296150822658 34.215053762774915,220.40625641634688 33.956989246886224,221.15142964024562 33.6129032257013,221.80345585662872 32.83870967710391,223.4800931798527 32.322580644860864,224.3184110210277 31.54838709626347,225.71560620784294 31.204301075078547,226.3676301081432 30.860215053427964,227.01965367770754 30.34408602118492,228.23055371490773 30.25806451542303,228.7894302699715 30.25806451542303,229.62774464732502 29.91397849470377,232.04953866510186 29.483870967291296,233.81930832983926 29.139784946106374,234.75076506927144 28.36559139750898,236.3342399763642 27.935483870562166,236.9862584886141 27.419354838319123,237.6382766701281 25.44086021464318,238.10400374000892 24.494623655453324,237.6382766701281 23.72043010732159,237.6382766701281 22.602150537073612,237.91771293221973 21.91397849423811,238.01085833949037 18.98924731137231,237.26569489273243 18.387096773833036,236.7999675187748 16.838709677103907,235.4027843849035 15.376344085671008,234.47132811835036 14.688172042835504,234.00559973157942 14.0,232.422121954849 14.344086021184921,231.86324697954115 14.688172042835504,231.39751764782704 15.376344085671008,230.18662059505004 15.89247311791405,229.72089065553155 17.096774192992598,228.7894302699715 18.98924731137231,227.76482306641992 20.36559139750898,227.11279987485614 21.569892473053187,226.27448385686148 22.25806451588869,225.52931360388175 24.408602150622755,223.2938002521405 25.09677419345826,221.80345585662872 25.35483870888129,221.15142964024562 25.526881720405072,220.49940309289377 25.956989246886224,219.009055456263 26.129032257478684,218.26388098997995 26.301075268536806,216.8666777005419 26.387096773833036,216.02835499751382 27.0752688171342,214.2585608282825 27.505376344081014,213.51338360679802 28.36559139750898,211.65043866203632 28.881720429752022,210.81211255548988 29.655913978349417,208.48342605668586 30.516129031777382,206.34103075007442 31.80645161261782,204.47807540593203 32.322580644860864,203.82604039728176 32.580645161215216,203.36030090251006 33.52688171993941,202.14937742659822 34.043010752648115,201.68363732437138 34.98924731137231,200.93845280946698 36.70967741915956,201.4041931820102 39.20430107507855,203.1740050574299 39.63440860202536,204.94381449499633 38.774193548131734,206.15473533712793 38.17204301059246,206.89991682674736 36.79569892445579,209.60119610279799 36.70967741915956,210.4395229993388 36.5376344085671,211.09155465173535 36.27956989221275,212.5819114719052 36.27956989221275,214.53800217504613 36.27956989221275,215.2831788023468 35.849462365265936,216.6803838138003 35.33333333302289,217.61185297730844 35.0752688171342,218.26388098997995 34.81720430077985,219.009055456263 33.956989246886224,220.592549762805 33.69892473053187,221.43086948781274 32.92473118240014,223.10750729730353 32.1505376342684,224.5047038004268 31.72043010732159,225.24987464747392 31.376344085671008,225.9018987842137 30.516129031777382,227.11279987485614 30.08602150483057,228.6031381119974 29.827956988941878,230.0934746208368 29.741935483645648,230.9317881471943 29.483870967291296,232.70155935140792 29.311827956698835,233.35357970686164 28.967741935513914,234.84391070588026 28.7096774186939,235.68222113326192 27.849462365265936,237.17254943132866 27.333333333022892,237.82456751831342 26.55913978489116,240.06005559046753 26.215053763240576,239.31489333161153 25.26881720405072,238.38343990105204 24.236559139564633,238.01085833949037 22.860215053427964,238.10400374000892 21.139784945640713,238.56973064108752 20.193548386916518,239.40803863771725 19.591397849377245,239.87376506614964 19.07526881666854,240.2463460873114 17.784946236293763,241.1777981678024 16.580645160749555,241.55037881119642 15.720430106855929,243.41328040673397 16.236559139564633,244.34473019163124 16.838709677103907,245.55561390263028 17.182795698288828,246.02133810322266 18.043010752182454,247.9773779020179 18.98924731137231,247.88423321722075 19.591397849377245,247.7910885256715 22.08602150529623,246.39391734206583 22.602150537073612,245.92819327663165 23.72043010732159,244.62416499538813 22.516129031777382,245.64875875622965 21.99999999953434,246.3007725425996 19.591397849377245,248.07052258006297 18.90322580654174,247.9773779020179 18.387096773833036,248.07052258006297 17.52688171993941,248.53624586912338" stroke="#4dd2ff" stroke-linecap="round" stroke-linejoin="round" stroke-width="0.5"><title>2022-08-26 8.3km</title></polyline><polyline fill="none" points="182.49927431053948,235.4586317249341 182.37735849054297,235.32664813332667 182.0812772133504,235.15695484587923 181.5413642960484,234.81756793933164 181.19303338171449,234.66672917225515 180.8969521044637,234.478180590595 180.61828737292672,234.23306723040878 180.5137880985858,234.15764768856752 180.02612481854158,233.91253402679286 179.83454281563172,233.81825948007463 178.63280116103124,232.95093204943987 178.4238026124658,232.83780217164895 177.83164005796425,232.55497726227622 177.69230769225396,232.47955723456107 177.57039187225746,232.40413718498894 177.30914368649246,232.27215204577078 177.04789550066926,232.1024567684799 176.92597968067275,232.00818156669266 176.78664731490426,231.93276138065266 176.56023222056683,231.76306588224543 176.43831640051212,231.66879055758181 175.88098693755455,231.19741342248744 175.72423802613048,231.06542767181236 175.4281567489379,230.7826008379634 175.2888243831112,230.66947001848894 175.06240928877378,230.3677875928406 174.81857764872257,230.0849600015208 174.67924528301228,229.95297368713364 174.3831640058197,229.68900085770292 174.22641509433743,229.53815912075515 173.89550072565908,229.2176201397524 173.75616835989058,229.10448864048522 173.42525399127044,228.6331068646832 172.9550072568236,228.0674476076092 172.78084179968573,227.69034075374657 172.6937590711168,227.53949785928125 172.5544267053483,227.18124563491438 172.2931785195833,226.691004950364 172.24092888244195,226.52130603684054 172.10159651667345,226.20076334298938 171.9100145137636,225.89907574134122 171.75326560233952,225.78594280063407 171.57910014508525,225.48425471849623 171.47460087074433,225.16371074829658 171.14368650212418,224.48491045022092 171.03918722784147,223.9003865536506 171.0043541364139,223.67411888661445 170.88243831630098,222.8633247987891 170.65602322202176,222.50506614193728 169.9593613932957,222.46735467571125 169.78519593609963,222.50506614193728 169.05370101588778,222.6182005078881 168.98403483303264,222.59934478362266 168.74020319298143,222.63705623078567 167.712626995577,222.97645900909265 167.24238026118837,223.12730454640405 166.75471698108595,223.22158296284033 166.38896952103823,223.35357268850203 166.11030478950124,223.50441800737462 165.60522496368503,223.9003865536506 165.3962264151196,224.18322086095577 165.18722786643775,224.5603327929275 165.08272859209683,224.73003298416734 163.86357039189897,225.12599966701237 163.49782293173485,224.8997330648126 163.14949201740092,224.69232184010616 162.99274310591863,224.59804395612446 162.4005805514753,224.40948808568646 162.06966618285514,224.4660548610991 161.84325108851772,224.5037660379312 161.02467343973694,224.67346626604558 160.39767779386602,224.76774412274244 160.1538461537566,224.80545525588968 159.75326560228132,224.86202194534417 159.3875181422336,224.93744417882408 159.23076923075132,224.956299733778 158.27285921620205,225.01286639047612 158.0812772132922,225.01286639047612 157.64586357038934,225.03172193997307 157.4368650217075,225.03172193997307 157.08853410737356,225.03172193997307 156.8969521044637,225.0505774881458 156.54862119012978,225.06943303489243 156.35703918721993,225.06943303489243 155.9912917270558,225.08828858028573 155.79970972420415,225.06943303489243 155.43396226415643,225.08828858028573 155.25979680696037,225.0505774881458 154.77213352685794,225.08828858028573 154.19738751812838,224.99401083962584 154.0406386066461,224.99401083962584 153.67489114659838,224.9185886225314 153.29172714072047,224.8997330648126 153.04789550066926,224.86202194534417 152.56023222062504,224.78659969003638 152.29898403480183,224.74888855413883 151.88098693755455,224.7111774128134 151.65457184321713,224.65461069058802 150.74891146586742,224.54147720930632 150.53991291724378,224.5226216243318 150.10449927434092,224.48491045022092 149.58200290275272,224.40948808568646 149.3381712627015,224.37177689517557 148.86792452831287,224.31521009924472 148.65892597968923,224.27749889517145 147.9274310595356,224.18322086095577 147.68359941948438,224.1643652500352 147.28301886789268,224.12665402407583 147.1088534106966,224.12665402407583 146.79535558779025,224.08894279267406 146.53410740202526,224.08894279267406 146.35994194477098,224.1077984090516 146.15094339620555,224.1077984090516 145.76777939038584,224.1077984090516 145.576197387476,224.12665402407583 145.19303338171449,224.14550963774673 145.053701015946,224.1643652500352 144.89695210452192,224.20207647053758 144.56603773578536,224.23978768556844 144.33962264150614,224.23978768556844 143.79970972426236,224.29635449788475 143.31204644415993,224.35292129794834 142.12772133527324,224.44719927065307 141.57039187231567,224.5603327929275 141.36139332363382,224.616899535642 140.96081277210033,224.73003298416734 140.80406386061804,224.76774412274244 140.38606676337076,224.8808775057405 140.15965166903334,224.956299733778 139.1843251088867,225.3334105463582 139.01015965163242,225.40883264331205 138.60957910009893,225.63509880323545 138.3831640058197,225.72937631183595 138.03483309142757,225.89907574134122 137.84325108851772,225.99335315442295 137.30333817121573,226.25732972941478 136.92017416539602,226.5024505952024 136.11901306238724,227.20010102745437 135.85776487662224,227.55835322588973 135.6661828737124,227.78461751836585 135.57910014508525,227.86003890557913 135.19593613932375,228.23714551370358 134.81277213356225,228.4256986130349 134.44702467339812,228.6708174381347 133.92452830192633,229.02906761367922 133.75036284467205,229.17990964541968 133.14078374451492,229.76442169341317 133.05370101588778,229.95297368713364 133.01886792451842,230.4243530742824 131.78229317854857,231.19741342248744 131.207547169819,231.83848611738358 130.89404934691265,232.27215204577078 130.73730043543037,232.55497726227622 130.63280116108945,232.74352723597258 130.45863570389338,233.12062677394715 129.93613933236338,233.32803128717933 129.62264150945703,233.2149015731702 129.43105950648896,233.10177181003382 129.08272859209683,232.89436711667804 128.69956458633533,232.74352723597258 128.3338171262294,232.72467224473075 128.14223512331955,232.80009220146167 127.37590711179655,233.10177181003382 127.20174165454227,233.17719165758172 126.88824383163592,233.2903213879472 126.67924528301228,233.36574118091085 126.29608127713436,233.49772576605028 126.13933236571029,233.59200042879093 126.03483309148578,233.6485652100382 125.70391872274922,233.7994045666128 125.51233671983937,233.8748242122092 125.11175616830587,234.0068085394014 124.41509433957981,234.23306723040878 124.20609579101438,234.30848675045127 123.85776487662224,234.51589031786716 123.37010159646161,234.83642277907347 122.65602322207997,235.21351928732474 121.88969521044055,235.47748651826987 121.47169811319327,235.62832481582882 121.26269956462784,235.72259870752168 120.84470246732235,235.89229162651463 120.39187227858929,235.94885590828198 120.269956458651,235.96771066612564 119.6081277212943,236.19396765396232 119.41654571844265,236.2316771328915 119.03338171268115,236.38251499376202 118.26705370098352,236.5710621970793 118.09288824390387,236.58991690991388 117.5181422351161,236.7407545633905 117.30914368649246,236.7973186609306 116.7518142235349,236.96701087984547 116.38606676342897,237.08013896437478 116.19448476051912,237.136702988224 115.75907111761626,237.24983099910605 115.5674891146482,237.30639498609526 115.20174165460048,237.4383775746537 115.02757619740441,237.47608687338652 114.62699564587092,237.49494152073748 114.45283018867485,237.5137961666769 114.12191582005471,237.5515054545249 114.0,237.58921473684313 114.10449927434092,237.62692401377717 114.27866473147878,237.58921473684313 114.94049346877728,237.49494152073748 115.14949201740092,237.41952292321366 115.53265602316242,237.30639498609526 115.72423802607227,237.26868566275516 116.10740203189198,237.1744123306562 116.62989840348018,237.06128428704687 117.15239477501018,236.91044681917992 117.53555878082989,236.8161733573652 117.70972423802596,236.7407545633905 118.11030478955945,236.60877162138058 118.3018867924693,236.5522074828914 118.73730043537216,236.43907916909666 118.91146589256823,236.40136972026085 119.31204644410172,236.3070960742334 120.58345428155735,235.94885590828198 120.98403483309085,235.85458209850185 121.15820029028691,235.72259870752168 122.09869375906419,235.40206733673404 122.41219158197055,235.251228908106 123.21335268503753,234.9495517888572 123.37010159646161,234.85527761743288 123.87518142233603,234.51589031786716 124.27576197386952,234.32734162703855 124.48476052249316,234.23306723040878 125.12917271407787,234.0068085394014 125.73875181429321,233.74283981816552 126.10449927428272,233.62971028435277 126.4005805515335,233.47887082940724 126.783744557295,233.30917633823992 126.99274310591863,233.2337565289199 127.39332365745213,233.0452069100429 127.60232220607577,232.9697870242817 127.9506531204679,232.81894718726107 128.83889695204562,232.89436711667804 129.3788098693476,233.17719165758172 129.57039187225746,233.27146643633023 130.54571843252052,232.91322209563805 130.65021770686144,232.74352723597258 131.01596516685095,232.1590218732017 131.12046444119187,231.97047147637932 131.3468795355875,231.6310804181703 131.59071117563872,231.4048194670322 132.14804063859629,231.23512362473411 132.68795355584007,231.1597032148129 133.05370101588778,230.66947001848894 133.01886792451842,230.21694624907104 133.05370101588778,230.10381518382928 133.78519593609963,229.2176201397524 133.92452830192633,229.10448864048522 134.2380261248909,228.80280440227943 134.3599419448292,228.70852800614375 134.76052249636268,228.33142208046047 134.9869375906419,228.10515826295887 135.23076923075132,227.95431560878933 135.59651669085724,227.67148539671325 136.11901306238724,227.27552258384821 136.24092888244195,227.14353484580352 136.64150943397544,226.8041374979075 136.86792452831287,226.55901691610052 137.04208998550894,226.4647397077497 137.37300435407087,226.33275155883166 137.75616835989058,226.16305241191003 137.93033381708665,226.08763053330767 138.29608127719257,225.89907574134122 138.67924528301228,225.74823180949898 139.04499274306,225.5785322816664 139.20174165454227,225.48425471849623 139.5500725688762,225.3145550187037 139.6719883889309,225.25798842750373 139.79390420898562,225.20142182406562 140.05515239475062,225.08828858028573 140.2293178520049,225.03172193997307 140.57764876633883,224.9185886225314 140.75181422347669,224.8243108204042 141.1175616835826,224.73003298416734 141.5007256893441,224.65461069058802 141.67489114654018,224.616899535642 142.09288824384566,224.48491045022092 142.47605224960716,224.42834367886826 142.6850507982308,224.39063249115134 143.05079825833673,224.37177689517557 143.24238026124658,224.33406569928047 143.66037735855207,224.29635449788475 143.85195936140371,224.29635449788475 144.20029027579585,224.27749889517145 144.3744557328755,224.27749889517145 144.72278664726764,224.25864329106116 144.89695210452192,224.23978768556844 145.2975326560554,224.18322086095577 145.6806966618169,224.18322086095577 146.0638606675784,224.14550963774673 146.2031930333469,224.12665402407583 146.67343976779375,224.12665402407583 147.09143686498282,224.1643652500352 147.30043541360646,224.1643652500352 147.71843251085375,224.2209320787515 148.2931785195833,224.25864329106116 148.65892597968923,224.31521009924472 149.0769230768783,224.35292129794834 149.26850507984636,224.39063249115134 149.65166908560786,224.44719927065307 149.82583454280393,224.48491045022092 150.19158200285165,224.54147720930632 150.3831640057615,224.57918837520992 150.73149492015364,224.59804395612446 150.9230769230635,224.616899535642 151.32365747453878,224.65461069058802 151.48040638602106,224.67346626604558 151.86357039184077,224.74888855413883 152.43831640057033,224.86202194534417 152.62989840348018,224.86202194534417 153.20464441209333,224.93744417882408 153.3962264150614,224.93744417882408 153.81422351230867,224.956299733778 154.00580551516032,224.99401083962584 154.98113207548158,225.10714412436937 155.2075471697608,225.12599966701237 155.5907111755223,225.12599966701237 155.79970972420415,225.12599966701237 156.58345428155735,225.06943303489243 156.7750362844672,225.0505774881458 157.1756168359425,225.03172193997307 157.38461538456613,225.03172193997307 157.71552975324448,225.0505774881458 157.88969521044055,225.06943303489243 158.23802612477448,225.0505774881458 158.76052249636268,225.01286639047612 158.93468795355875,225.01286639047612 159.61393323651282,224.8808775057405 160.1712626995286,224.78659969003638 160.6937590710586,224.67346626604558 161.12917271407787,224.59804395612446 161.66908563132165,224.40948808568646 161.8606676342315,224.37177689517557 162.243831639993,224.29635449788475 162.3831640057615,224.33406569928047 162.80116110300878,224.5226216243318 162.9230769231217,224.63575511383533 162.99274310591863,224.7111774128134 163.20174165454227,224.8997330648126 163.84615384612698,225.3145550187037 164.19448476051912,225.40883264331205 164.69956458633533,225.27684395927645 164.9956458635861,225.06943303489243 165.1175616835826,224.8997330648126 165.2394775035791,224.5603327929275 165.34397677792003,224.25864329106116 165.3788098693476,224.08894279267406 165.5181422350579,223.80610838290886 165.7619738751673,223.6175519391254 165.97097242373275,223.5232736660837 166.38896952103823,223.33471701751114 166.63280116108945,223.25929431985423 166.9637155297096,223.1650159170531 167.55587808409473,222.9953147060587 168.20029027573764,222.9953147060587 168.32220609579235,222.9953147060587 168.74020319298143,222.731334824668 169.14078374451492,222.54277760270634 169.36719883891055,222.52392187299847 169.73294629895827,222.46735467571125 169.90711175615434,222.44849894054641 170.2206095790607,222.37307598622283 170.51669085625326,222.37307598622283 170.65602322202176,222.48621040949365 170.76052249636268,222.58048905803298 170.88243831630098,222.8256133844552 170.9869375906419,223.14616023242706 171.02177068212768,223.29700567139662 171.23076923075132,223.74954146415985 171.2656023221789,223.97580906562507 171.31785195932025,224.25864329106116 171.3875181421754,224.59804395612446 171.54426705365768,224.9185886225314 171.73584905656753,225.23913289442135 171.80551523948088,225.3899771211145 172.27576197386952,226.52130603684054 172.32801161095267,226.6532940902107 172.46734397666296,226.99269163465942 172.58925979677588,227.35094411842874 172.937590711168,227.86003890557913 173.30333817121573,228.31256676984776 173.4775036284118,228.57654099428328 173.68650217703544,228.84051495113818 173.94775036285864,229.14219914570276 174.03483309142757,229.23647538482328 174.17416545713786,229.3684620622662 174.41799709718907,229.65129043166235 174.539912917302,229.78327689893194 174.83599419449456,230.12267036476987 175.14949201740092,230.4243530742824 175.46298984030727,230.7260354343889 175.91582002898213,231.17855831938505 176.0725689404644,231.2728338214365 176.31640058051562,231.48023980595462 176.52539912913926,231.6876456252503 176.69956458627712,231.80077600257937 177.04789550066926,231.98932652223448 177.62264150939882,232.3287171136326 178.0406386066461,232.61154226869985 178.73730043537216,233.08291684475262 178.8417997097131,233.2337565289199 179.62554426700808,233.76169473571645 180.09579100139672,233.85596930283646 180.40928882430308,234.04451833487838 180.75761973875342,234.289631872467 181.22786647314206,234.5724548984872 181.75036284461385,234.9495517888572 181.87227866472676,235.02497110143304 182.2206095790607,235.251228908106 182.39477503625676,235.34550293622306 182.69085631344933,235.53405089009902 182.88243831635918,235.66603437661252 183.02177068212768,235.74145348173624 183.54426705359947,236.09969393293431 183.71843251085375,236.19396765396232 184.1538461538148,236.4767886125046 184.44992743100738,236.68419045355404 184.97242380259559,236.92930150743632 185.68650217703544,237.41952292321366 186.0,237.49494152073748" stroke="#4dd2ff" stroke-linecap="round" stroke-linejoin="round" stroke-width="0.5"><title>2022-05-28 10.0km</title></polyline></svg>