<?xml version="1.0" encoding="utf-8" ?>
<svg baseProfile="full" height="300mm" version="1.1" viewBox="0,0,200,300" width="200mm" xmlns="http://www.w3.org/2000/svg" xmlns:ev="http://www.w3.org/2001/xml-events" xmlns:xlink="http://www.w3.org/1999/xlink"><defs /><rect fill="#222222" height="300" width="200" x="0" y="0" /><text fill="#FFFFFF" style="font-size:12px; font-family:Arial; font-weight:bold;" x="10" y="20">Over 8km Runs</text><text fill="#FFFFFF" style="font-size:4px; font-family:Arial" x="10" y="280">ATHLETE</text><text fill="#FFFFFF" style="font-size:9px; font-family:Arial" x="10" y="290">mujingy</text><text fill="#FFFFFF" style="font-size:4px; font-family:Arial" x="120" y="280">STATISTICS</text><text fill="#FFFFFF" style="font-size:3px; font-family:Arial" x="120" y="285">Number: 2</text><text fill="#FFFFFF" style="font-size:3px; font-family:Arial" x="120" y="290">Weekly: 1.0</text><text fill="#FFFFFF" style="font-size:3px; font-family:Arial" x="141" y="285">Total: 18.4 km</text><text fill="#FFFFFF" style="font-size:3px; font-family:Arial" x="141" y="290">Avg: 9.2 km</text><text fill="#FFFFFF" style="font-size:3px; font-family:Arial" x="167" y="285">Min: 8.3 km</text><text fill="#FFFFFF" style="font-size:3px; font-family:Arial" x="167" y="290">Max: 10.0 km</text><polyline fill="none" points="154.0,125.62850276229437 152.4516129028052,125.48878636292648 143.80645161308348,121.99587308836635 142.25806451635435,121.15757296059746 135.03225806495175,120.03983888961375 133.87096774205565,120.8781395034166 128.32258064532652,124.37105480383616 120.58064516121522,120.17955568409525 117.6129032257013,117.38521787407808 114.12903225794435,113.7525726648746 111.16129032243043,112.07596487482078 101.6129032257013,111.7965301014483 97.99999999953434,112.35539960779715 94.77419354813173,112.91426895232871 91.03225806402043,114.59087601315696 87.93548387056217,116.26748161576688 82.3870967742987,117.80436880374327 78.51612903177738,117.66465183743276 75.93548387056217,118.7823872853769 74.64516129018739,120.31927246809937 70.38709677336738,123.95190530188847 67.03225806448609,125.90793553064577 66.51612903224304,133.31288913148455 66.25806451635435,133.03345743648242 66.51612903224304,133.59232078574132 66.51612903224304,133.17317328881472 67.93548387056217,126.74623359262478 69.48387096775696,125.90793553064577 72.19354838691652,123.532755708904 73.74193548317999,115.42917899682652 72.45161290327087,114.17172438453417 70.38709677336738,111.65681269974448 66.64516129018739,106.62697948561981 52.70967741915956,100.33966951083858 51.54838709626347,99.08220505469944 47.290322579909116,95.72896249499172 46.387096773833036,93.35374548530672 51.677419354673475,87.62526889052242 58.774193548131734,82.31593391718343 60.06451612850651,81.19817732251249 62.129032257944345,78.26406317658257 63.16129032243043,75.4696645992808 63.54838709672913,73.93274365505204 64.32258064486086,70.57945734041277 65.09677419345826,67.22616519150324 65.99999999953434,65.4097961744992 67.41935483831912,62.47565799311269 68.19354838645086,61.078447765205055 75.93548387056217,62.19621602841653 77.35483870888129,62.755099917179905 79.54838709719479,61.63733197771944 80.58064516121522,58.84290929324925 81.6129032257013,57.30597509013023 83.67741935420781,54.93071072816383 83.03225806448609,49.76100758614484 80.70967741915956,48.084344129893 71.16129032196477,55.07043224235531 72.19354838691652,59.96067885356024 77.4838709672913,62.755099917179905 79.41935483878478,61.63733197771944 79.93548387102783,60.100400002789684 83.54838709626347,54.93071072816383 84.19354838691652,53.952659846050665 83.67741935420781,49.76100758614484 82.3870967742987,48.78295408049598 80.45161290280521,47.6651780375978 76.83870967756957,47.80490007845219 74.51612903177738,49.62128568708431 73.61290322523564,50.739060595980845 72.19354838691652,52.415721742552705 71.29032258037478,53.533495030365884 71.54838709626347,59.26207295444328 72.58064516121522,59.96067885356024 76.19354838691652,61.777053005527705 79.16129032243043,61.21816883329302 79.54838709719479,60.100400002789684 83.16129032243043,55.34987524012104 83.80645161261782,50.18017322255764 81.74193548364565,48.643232110654935 79.67741935467348,47.385733925621025 76.06451612897217,47.525455986731686 74.25806451588869,49.34184185881168 73.61290322523564,50.31989508122206 72.70967741915956,51.297947807004675 71.29032258037478,53.533495030365884 70.64516129018739,54.51154612516984 71.80645161308348,59.26207295444328 72.96774193504825,60.100400002789684 75.67741935467348,61.777053005527705 79.54838709719479,60.93872668675613 80.06451612897217,59.54151534452103 82.51612903177738,55.769039660925046 82.7741935485974,50.45961692917626 81.74193548364565,49.48156377824489 77.6129032257013,47.24601185426582 76.58064516121522,48.084344129893 75.67741935467348,48.50351013056934 74.25806451588869,50.31989508122206 73.61290322523564,50.87878241355065 73.09677419345826,51.717113108956255 73.61290322523564,60.51956339040771 71.03225806402043,54.092381431139074 72.96774193504825,51.01850422122516 74.25806451588869,49.48156377824489 83.41935483878478,53.952659846050665 82.3870967742987,55.07043224235531 81.74193548364565,55.769039660925046 80.3225806443952,58.28402427036781 77.87096774159,62.19621602841653 76.19354838691652,61.63733197771944 71.41935483831912,59.54151534452103 70.77419354766607,53.952659846050665 71.80645161308348,52.69516512542032 73.61290322523564,49.76100758614484 74.64516129018739,48.363788140239194 78.25806451588869,47.24601185426582 79.93548387102783,48.084344129893 83.67741935420781,52.83488680131268 82.64516129018739,53.952659846050665 80.96774193504825,56.607368228491396 80.19354838645086,60.100400002789684 79.80645161308348,63.174262726912275 79.41935483878478,66.94672391552012 78.51612903177738,69.74113485007547 77.99999999953434,71.13833879784215 76.70967741915956,74.07246379146818 76.06451612897217,75.4696645992808 74.12903225747868,79.94070037826896 73.35483870934695,81.3378969321493 72.32258064486086,83.85284817649517 71.67741935467348,84.83088388550095 70.77419354766607,87.20611139805987 70.12903225794435,90.27993089274969 69.74193548364565,91.39768222090788 69.35483870934695,93.9126203393098 69.09677419345826,95.03036956046708 68.8387096771039,96.14811813388951 68.06451612850651,98.38361333555076 67.54838709626347,99.36164167150855 66.90322580654174,100.33966951083858 62.25806451542303,102.01628750923555 60.7096774186939,101.73685127752833 59.54838709672913,102.01628750923555 58.387096773833036,102.1560056101298 56.06451612850651,102.01628750923555 53.870967742055655,101.17797869245987 52.83870967710391,100.47938773303758 51.290322579909116,98.9424867312191 49.87096774158999,97.68502136378083 49.0967741929926,97.12614760396536 47.935483870096505,96.5672736816341 46.387096773833036,94.33177637332119 46.90322580607608,92.23599529149942 47.290322579909116,91.53740109142382 49.483870967291296,89.44161697104573 50.3870967742987,88.74302175827324 51.032258064020425,88.32386450876947 53.870967742055655,86.64723459968809 56.322580644860864,84.83088388550095 57.483870967291296,83.85284817649517 58.90322580607608,82.73509247309994 59.93548387102783,81.75705570075661 60.838709676638246,80.77901843213476 61.99999999953434,78.82294240570627 63.41935483831912,75.32994456414599 63.677419354673475,74.21218391787261 64.19354838645086,71.69722009357065 64.45161290280521,70.71917772013694 64.45161290280521,69.6014143996872 65.48387096775696,66.80700326268561 65.99999999953434,65.68923767330125 66.51612903224304,64.71119225095026 67.54838709626347,62.755099917179905 67.93548387056217,61.91677402344067 69.2258064514026,59.40179415431339 69.48387096775696,56.607368228491396 70.25806451635435,54.651267669629306 71.16129032196477,53.533495030365884 71.93548387056217,52.55544343928341 73.22580645186827,50.599338767468 73.74193548317999,49.90072947531007 75.16129032243043,48.22406614013016 75.80645161261782,47.525455986731686 76.32258064486086,46.96656768140383 80.70967741915956,48.22406614013016 82.0,48.922676040558144 83.41935483878478,52.97460846765898 82.90322580654174,54.092381431139074 80.8387096771039,56.8868110034382 80.45161290280521,58.00458169786725 79.93548387102783,60.51956339040771 79.54838709719479,63.174262726912275 79.54838709719479,65.27007541025523 79.29032258037478,67.50560642662458 78.64516129018739,69.88085529056843 78.3870967742987,70.71917772013694 77.99999999953434,71.83694039215334 76.96774193504825,74.21218391787261 75.80645161261782,76.44770456210244 75.16129032243043,77.70518378505949 73.87096774159,80.49957912112586 73.35483870934695,81.75705570075661 72.06451612897217,83.99256759393029 71.16129032196477,86.08835763903335 70.77419354766607,87.3458305724198 70.38709677336738,88.46358360198792 69.74193548364565,91.11824444960803 69.48387096775696,92.51543290074915 69.2258064514026,94.8906509433873 68.58064516074955,96.98642913857475 68.32258064486086,98.10417657741345 67.03225806448609,100.1999512782786 66.38709677383304,101.17797869245987 61.87096774158999,101.73685127752833 60.96774193504825,101.59713314624969 59.032258064020425,101.73685127752833 56.967741935513914,101.87656939844601 55.80645161261782,101.87656939844601 53.870967742055655,101.45741500519216 52.06451612850651,99.6410782475723 51.16129032243043,98.9424867312191 50.25806451588869,97.96445818291977 48.19354838691652,96.84671066282317 47.032258064486086,96.28783665993251 46.129032257944345,93.77290164085571 46.90322580607608,91.95655764162075 47.54838709626347,91.25796334026381 49.0967741929926,89.72105498565361 50.129032257478684,89.0224598738132 54.51612903177738,86.08835763903335 58.51612903177738,83.01453145965934 59.41935483831912,82.17621437832713 60.19354838691652,81.3378969321493 61.6129032257013,79.80098066735081 62.25806451542303,78.68322261387948 63.032258064020425,76.86686439439654 63.29032258084044,75.74910463951528 64.19354838645086,72.25610122701619 64.45161290280521,71.13833879784215 64.58064516074955,70.02057572081685 64.8387096771039,68.0644887755625 65.74193548364565,65.68923767330125 67.54838709626347,62.33593701582868 68.70967741915956,60.379842271097004 69.2258064514026,59.26207295444328 69.6129032257013,57.445696431794204 69.87096774205565,55.4895967238117 71.29032258037478,53.81293825071771 71.93548387056217,52.97460846765898 72.45161290327087,52.13627831940539 73.61290322523564,50.31989508122206 74.25806451588869,49.34184185881168 75.54838709626347,47.80490007845219 77.6129032257013,46.40767921425868 78.77419354813173,47.10628977313172 79.41935483878478,47.6651780375978 83.54838709626347,50.739060595980845 84.32258064486086,51.577391351689585 83.67741935420781,52.69516512542032 82.0,55.07043224235531 81.35483870934695,55.908761114114895 80.3225806443952,57.86486039671581 79.93548387102783,60.100400002789684 79.80645161308348,61.21816883329302 79.67741935467348,62.33593701582868 79.54838709719479,64.29202977509703 79.41935483878478,65.4097961744992 79.16129032243043,67.64532702916767 79.16129032243043,68.90281199524179 78.3870967742987,70.57945734041277 78.12903225747868,71.69722009357065 77.6129032257013,73.09442262351513 76.32258064486086,75.60938462463673 75.93548387056217,76.72714446042664 75.41935483878478,77.70518378505949 74.25806451588869,80.22013976983726 73.48387096775696,81.47761653165799 72.32258064486086,83.57340931182262 71.80645161308348,84.55144516227301 71.29032258037478,85.52948051667772 70.51612903177738,87.3458305724198 70.38709677336738,88.18414540507365 70.38709677336738,89.44161697104573 69.87096774205565,93.074307997711 69.2258064514026,95.72896249499172 68.70967741915956,97.12614760396536 67.54838709626347,99.5013599647209 66.90322580654174,100.47938773303758 66.12903225794435,101.45741500519216 63.16129032243043,102.1560056101298 61.74193548364565,101.45741500519216 60.580645160749555,101.45741500519216 58.90322580607608,101.87656939844601 57.87096774112433,102.01628750923555 53.483870967291296,100.89854233909864 52.580645161215216,100.1999512782786 50.25806451588869,98.10417657741345 48.06451612850651,96.70699217764195 47.032258064486086,96.00839959736913 46.0,93.6331829323899 46.51612903177738,92.79487046948634 47.032258064486086,92.09627647185698 48.06451612850651,90.27993089274969 48.83870967710391,89.58133598335553 50.64516128972173,88.18414540507365 53.483870967291296,86.64723459968809 55.54838709672913,85.66919981245883 57.35483870934695,84.41172578535043 58.387096773833036,83.29397040593904 61.6129032257013,79.94070037826896 62.64516129018739,77.70518378505949 63.032258064020425,76.72714446042664 63.29032258084044,75.74910463951528 63.935483870562166,73.51358318456914 64.19354838645086,72.39582148508634 64.45161290280521,70.30001655092929 64.58064516074955,69.04253249638714 65.6129032257013,66.38784124248195 66.25806451635435,65.27007541025523 67.54838709626347,62.47565799311269 68.32258064486086,61.21816883329302 69.48387096775696,57.72513908520341 70.77419354766607,54.51154612516984 72.70967741915956,51.717113108956255 73.48387096775696,50.739060595980845 73.87096774159,50.04045135376509 75.29032258037478,48.22406614013016 76.06451612897217,47.525455986731686 77.4838709672913,46.40767921425868 80.06451612897217,47.10628977313172 83.80645161261782,49.76100758614484 84.45161290280521,52.415721742552705 83.16129032243043,54.232103005750105 82.25806451588869,55.34987524012104 80.19354838645086,59.40179415431339 80.06451612897217,60.659284499124624 79.80645161308348,61.63733197771944 79.41935483878478,63.872867207974195 79.41935483878478,66.80700326268561 79.41935483878478,67.92476820363663 78.77419354813173,70.02057572081685 77.99999999953434,71.41777946613729 77.6129032257013,72.39582148508634 77.2258064514026,73.51358318456914 75.93548387056217,75.8888246442657 75.54838709626347,77.14630423183553 74.38709677383304,79.66126094595529 73.22580645186827,81.75705570075661 72.58064516121522,82.87481197132729 72.06451612897217,83.85284817649517 70.77419354766607,85.66919981245883 70.12903225794435,87.90470716822892 69.74193548364565,90.14021193131339 69.6129032257013,91.39768222090788 69.2258064514026,94.05233902728651 68.96774193504825,95.03036956046708 68.45161290327087,97.2658660588786 68.06451612850651,98.5233317000093 66.77419354813173,100.75882414716762 65.99999999953434,101.73685127752833 64.8387096771039,105.0900833858177 64.32258064486086,103.97233999753371 62.90322580654174,102.57515985157806 61.35483870934695,102.01628750923555 59.29032258037478,102.1560056101298 56.70967741915956,102.85459596174769 55.29032258037478,104.11205795663409 54.387096773833036,104.81064759928267 53.6129032257013,105.3695191310253 51.677419354673475,106.76669725182 49.87096774158999,107.32556821685284 48.580645160749555,110.11992061021738 49.35483870981261,111.51709528756328 50.25806451588869,113.33342085406184 50.77419354766607,114.03200715500861 52.06451612850651,116.96606685302686 53.483870967291296,116.82634982594755 54.387096773833036,116.68663278862368 58.129032257944345,114.59087601315696 58.90322580607608,113.89228991500568 60.580645160749555,111.9362474931404 58.774193548131734,113.47313813457731 57.99999999953434,114.45115881389938 54.387096773833036,117.10578387021087 53.35483870981261,116.96606685302686 52.580645161215216,117.10578387021087 51.290322579909116,117.80436880374327" stroke="#4dd2ff" stroke-linecap="round" stroke-linejoin="round" stroke-width="0.5"><title>2022-08-26 8.3km</title></polyline><polyline fill="none" points="148.748911465751,218.18794758740114 148.56603773578536,217.98997220001183 148.1219158200547,217.73543226881884 147.31204644404352,217.2263519090193 146.78955007262994,217.00009375839727 146.34542815666646,216.71727088591433 145.92743105941918,216.34960084562772 145.7706821479369,216.2364715328731 145.03918722772505,215.86880104019656 144.75181422347669,215.72738922011922 142.94920174160507,214.42639807416708 142.6357039186405,214.25670325747342 141.74746008694638,213.83246589344344 141.53846153838094,213.7193358518707 141.35558780829888,213.60620577749796 140.9637155297678,213.40822806867072 140.57184325100388,213.1536851527344 140.38896952092182,213.01227235005354 140.1799709723564,212.89914207099355 139.84034833090845,212.64459882338997 139.65747460070997,212.50318583639455 138.82148040633183,211.79612013374572 138.58635703916661,211.59814150774037 138.14223512331955,211.17390125695965 137.9332365746377,211.00420502774068 137.59361393318977,210.55168138927547 137.22786647302564,210.12744000228122 137.0188679244602,209.92946053072228 136.57474600872956,209.53350128655438 136.33962264144793,209.30723868115456 135.8432510884013,208.82643020962132 135.63425253983587,208.65673296072055 135.13788098690566,207.94966029701754 134.4325108852936,207.10117141142837 134.1712626995286,206.53551113061258 134.0406386066461,206.30924678893643 133.83164005796425,205.77186845237156 133.43976777931675,205.03650742556783 133.36139332363382,204.78195905528264 133.1523947750684,204.30114501449862 132.8650217705872,203.84861361203366 132.62989840342198,203.6789142009511 132.36865021754056,203.2263820777589 132.21190130605828,202.7455661224667 131.71552975324448,201.7273656753532 131.5587808417622,200.85057983049774 131.50653120456263,200.51117832993623 131.32365747448057,199.2949871981982 130.98403483303264,198.75759921292774 129.93904208997265,198.70103201357415 129.67779390420765,198.75759921292774 128.58055152383167,198.92730076186126 128.47605224954896,198.8990171754267 128.11030478950124,198.95558434620034 126.56894049339462,199.4646885136608 125.86357039178256,199.6909568196279 125.13207547168713,199.8323744442605 124.58345428155735,200.0303590327676 124.16545718431007,200.25662701105466 123.40783744549844,200.85057983049774 123.0943396226503,201.27483129143366 122.78084179968573,201.84049918939127 122.62409288820345,202.0950494762801 120.79535558784846,202.6889995005331 120.24673439760227,202.3495995972189 119.72423802607227,202.03848276016652 119.48911465879064,201.89706593420124 118.60087082721293,201.61423212854424 118.10449927428272,201.69908229165594 117.76487663271837,201.7556490569259 116.53701015957631,202.01019939908292 115.59651669079904,202.15161618412822 115.2307692306349,202.20818288382725 114.62989840342198,202.29303291803808 114.0812772132922,202.40616626825067 113.84615384612698,202.434449600667 112.40928882430308,202.51929958572146 112.1219158199383,202.51929958572146 111.4687953555258,202.5475829099596 111.15529753256124,202.5475829099596 110.63280116103124,202.5475829099596 110.34542815666646,202.5758662322187 109.82293178513646,202.6041495523532 109.53555878077168,202.6041495523532 108.9869375906419,202.63243287045043 108.69956458627712,202.6041495523532 108.15094339614734,202.63243287045043 107.88969521038234,202.5758662322187 107.15820029028691,202.63243287045043 106.29608127719257,202.49101625944604 106.06095790991094,202.49101625944604 105.51233671989758,202.37788293379708 104.9375907110516,202.3495995972189 104.57184325100388,202.29303291803808 103.84034833090845,202.17989953505457 103.44847605214454,202.1233328312228 102.82148040633183,202.06676611924195 102.48185776476748,201.98191603587475 101.12336719885934,201.8122158139886 100.80986937589478,201.78393243651954 100.15674891148228,201.7273656753532 99.37300435407087,201.61423212854424 99.00725689402316,201.55766534278519 98.3018867924111,201.47281514888164 97.98838896944653,201.416248342779 96.89114658930339,201.27483129143366 96.52539912925567,201.2465478750819 95.92452830180991,201.18998103612103 95.66328011604492,201.18998103612103 95.19303338171449,201.1334141890111 94.80116110306699,201.1334141890111 94.53991291718557,201.16169761359924 94.22641509433743,201.16169761359924 93.65166908560786,201.16169761359924 93.36429608124308,201.18998103612103 92.78955007262994,201.21826445663464 92.58055152394809,201.2465478750819 92.34542815678287,201.30311470583547 91.84905660361983,201.35968152835267 91.50943396228831,201.35968152835267 90.69956458639354,201.44453174684895 89.96806966618169,201.5293819469225 88.19158200290985,201.6707989059796 87.3555878084153,201.84049918939127 87.04208998545073,201.925349303463 86.44121915812138,202.0950494762801 86.20609579095617,202.15161618412822 85.57910014514346,202.32131625863258 85.23947750357911,202.434449600667 83.77648766327184,203.0001158195373 83.51523947739042,203.11324896497536 82.91436865006108,203.45264820486773 82.57474600872956,203.5940644677612 82.05224963708315,203.84861361203366 81.76487663283478,203.99002973164897 80.95500725682359,204.38599459413672 80.38026124809403,204.7536758928327 79.17851959355175,205.80015154118882 78.78664731490426,206.33752983884187 78.49927431053948,206.67692627757788 78.36865021754056,206.7900583583687 77.79390420892742,207.35571827055537 77.21915820031427,207.6385479195451 76.67053701006807,208.0062261572166 75.8867924528895,208.54360142053338 75.62554426700808,208.7698644681368 74.71117561683059,209.64663254012703 74.58055152383167,209.92946053072228 74.52830188674852,210.63652961145272 72.67343976779375,211.79612013374572 71.81132075469941,212.75772917608265 71.34107402036898,213.40822806867072 71.10595065308735,213.83246589344344 70.94920174160507,214.1152908539807 70.68795355584007,214.68094016093528 69.90420899854507,214.9920469307981 69.43396226409823,214.82235235976987 69.14658925973345,214.65265771505074 68.62409288820345,214.34155067504616 68.04934687947389,214.1152908539807 67.50072568934411,214.08700836711796 67.21335268497933,214.20013830219978 66.06386066763662,214.65265771505074 65.8026124817552,214.7657874863944 65.33236574742477,214.93548208192806 65.01886792446021,215.04861177137354 64.44412191573065,215.2465886490827 64.20899854856543,215.38800064320094 64.05224963719957,215.47284781505005 63.55587808403652,215.69910684993374 63.268505079788156,215.81223631833564 62.66763425245881,216.01021280910936 61.62264150939882,216.34960084562772 61.309143686434254,216.46273012569873 60.78664731490426,216.77383547680802 60.05515239469241,217.2546341686102 58.98403483314905,217.82027893100167 57.83454281557351,218.2162297774048 57.2075471697608,218.44248722374323 56.89404934691265,218.58389806130435 56.267053700983524,218.8384374397865 55.58780841785483,218.9232838624448 55.404934688005596,218.95156599918846 54.41219158191234,219.29095148097258 54.12481857766397,219.34751569933724 53.55007256893441,219.57377249063575 52.40058055147529,219.85659329564078 52.139332365826704,219.88487536489265 51.277213352615945,220.11113184510032 50.963715529767796,220.19597799141775 50.127721335273236,220.4505163197755 49.57910014514346,220.62020844657673 49.291727140778676,220.7050544823578 48.63860667636618,220.8747464986518 48.3512336720014,220.9595924791647 47.80261248187162,221.1575663620024 47.54136429610662,221.21413031007978 46.94049346877728,221.24241228110623 46.67924528301228,221.2706942500081 46.182873730082065,221.32725818178733 46.0,221.38382210527197 46.15674891148228,221.44038602066576 46.41799709724728,221.38382210527197 47.41074020310771,221.24241228110623 47.72423802607227,221.12928438483505 48.29898403480183,220.9595924791647 48.5863570390502,220.90302849415457 49.16110304789618,220.76161849600612 49.94484760519117,220.59192643058486 50.728592162486166,220.36567022878444 51.30333817133214,220.22426003607688 51.56458635709714,220.11113184510032 52.16545718431007,219.91315743207815 52.45283018867485,219.82831122435164 53.10595065308735,219.65861875365954 53.367198838852346,219.60205458040582 53.96806966618169,219.4606441113574 55.87518142233603,218.9232838624448 56.47605224966537,218.78187314776005 56.73730043543037,218.58389806130435 58.14804063865449,218.10310100510833 58.61828737298492,217.87684336217353 59.8200290275272,217.4243276832858 60.05515239469241,217.28291642616387 60.81277213350404,216.77383547680802 61.41364296071697,216.49101244058693 61.72714078379795,216.34960084562772 62.693759071058594,216.01021280910936 63.6081277213525,215.6142597272701 64.15674891136587,215.44456542652915 64.60087082732935,215.21830624411814 65.17561683594249,214.9637645073526 65.48911465879064,214.8506347934017 66.08998548611999,214.5678103650862 66.40348330908455,214.45468053643708 66.92597968061455,214.22842078091344 68.25834542803932,214.34155067504616 69.0682148039341,214.7657874863944 69.3555878084153,214.90719965449534 70.81857764883898,214.36983314345707 70.97532656032126,214.1152908539807 71.52394775021821,213.23853280980256 71.6806966617005,212.95570721456897 72.02031930338126,212.4466206272482 72.38606676342897,212.10722920057015 73.22206095792353,211.85268543710117 74.0319303337019,211.7395548222412 74.58055152383167,211.00420502774068 74.52830188674852,210.32541937360656 74.58055152383167,210.15572277575848 75.67779390420765,208.82643020962132 75.8867924528895,208.65673296072055 76.35703918733634,208.2042066034337 76.53991291730199,208.06279200923746 77.14078374451492,207.4971331207198 77.48040638596285,207.15773739444558 77.84615384612698,206.93147341319127 78.39477503625676,206.50722809508443 79.17851959355175,205.91328387579415 79.36139332363382,205.71530226871255 79.96226415096316,205.20620624689036 80.3018867924111,204.83852537415805 80.5631349781761,204.69710956164636 81.05950653110631,204.49912733826204 81.63425253983587,204.24457861788687 81.89550072560087,204.13144579995424 82.44412191573065,203.84861361203366 83.01886792446021,203.62234771426301 83.56748911458999,203.36779842252145 83.80261248187162,203.2263820777589 84.3251088532852,202.97183252807008 84.50798258348368,202.88698264127015 84.69085631344933,202.8021327361057 85.08272859209683,202.63243287045043 85.34397677797824,202.5475829099596 85.86647314950824,202.37788293379708 86.12772133515682,202.23646623062086 86.67634252540302,202.0950494762801 87.25108853401616,201.98191603587475 87.51233671978116,201.925349303463 88.1393323658267,201.7273656753532 88.71407837443985,201.6425155182951 89.027576197288,201.585948736727 89.5761973875342,201.55766534278519 89.86357039178256,201.50109854893526 90.4905660378281,201.44453174684895 90.77793904207647,201.44453174684895 91.30043541360646,201.416248342779 91.56168359937146,201.416248342779 92.08417997090146,201.38796493661357 92.34542815678287,201.35968152835267 92.94629898411222,201.27483129143366 93.52104499272536,201.27483129143366 94.09579100133851,201.21826445663464 94.30478955002036,201.18998103612103 95.01015965163242,201.18998103612103 95.63715529744513,201.2465478750819 95.9506531204097,201.2465478750819 96.57764876633883,201.3313981181418 97.43976777943317,201.38796493661357 97.98838896944653,201.47281514888164 98.61538461537566,201.5293819469225 98.90275761974044,201.585948736727 99.47750362847,201.6707989059796 99.738751814235,201.7273656753532 100.28737300424837,201.8122158139886 100.57474600861315,201.86878256281489 101.09724238014314,201.89706593420124 101.38461538462434,201.925349303463 101.98548621183727,201.98191603587475 102.22060957900248,202.01019939908292 102.79535558773205,202.1233328312228 103.65747460082639,202.29303291803808 103.94484760519117,202.29303291803808 104.8069666181691,202.40616626825067 105.09433962253388,202.40616626825067 105.72133526846301,202.434449600667 106.00870827271137,202.49101625944604 107.47169811325148,202.6607161865686 107.81132075469941,202.6889995005331 108.38606676331256,202.6889995005331 108.69956458627712,202.6889995005331 109.87518142233603,202.6041495523532 110.16255442670081,202.5758662322187 110.76342525391374,202.5475829099596 111.0769230768783,202.5475829099596 111.57329462980852,202.5758662322187 111.83454281557351,202.6041495523532 112.35703918721993,202.5758662322187 113.14078374451492,202.51929958572146 113.40203193027992,202.51929958572146 114.42089985474013,202.32131625863258 115.25689404923469,202.17989953505457 116.0406386066461,202.01019939908292 116.6937590710586,201.89706593420124 117.50362844695337,201.61423212854424 117.79100145131815,201.55766534278519 118.3657474599313,201.44453174684895 118.57474600861315,201.50109854893526 119.20174165454227,201.78393243651954 119.38461538462434,201.95363267074572 119.48911465879064,202.06676611924195 119.8026124817552,202.3495995972189 120.76923076913226,202.97183252807008 121.29172714077868,203.11324896497536 122.04934687947389,202.9152659389074 122.49346879532095,202.6041495523532 122.67634252540302,202.3495995972189 122.85921625536866,201.84049918939127 123.01596516685095,201.38796493661357 123.0682148039341,201.1334141890111 123.27721335249953,200.70916257437784 123.64296081278007,200.42632790870266 123.95645863562822,200.28491049914737 124.58345428155735,200.00207552628126 124.94920174160507,199.88894147978863 125.44557329453528,199.74752387558692 126.33381712611299,199.49297205911716 127.30043541360646,199.49297205911716 127.48330914368853,199.49297205911716 128.11030478950124,199.09700223701657 128.7111756168306,198.81416640407406 129.05079825827852,198.78588280951953 129.5994194484083,198.70103201357415 129.8606676341733,198.67274841081235 130.33091436862014,198.55961397936335 130.7750362843508,198.55961397936335 130.98403483303264,198.72931561424048 131.14078374451492,198.8707335870713 131.32365747448057,199.23842007669737 131.48040638596285,199.7192403486406 131.53265602316242,199.94550850710948 131.84615384612698,200.62431219624705 131.89840348321013,200.9637135984376 131.97677793900948,201.38796493661357 132.0812772132922,201.89706593420124 132.3164005804574,202.37788293379708 132.6037735848222,202.85869934162474 132.70827285922132,203.0849656816863 133.41364296083339,204.78195905528264 133.4920174163999,204.9799411353306 133.70101596508175,205.48903745200369 133.88388969516382,206.02641617765767 134.4063860666938,206.7900583583687 134.9550072568236,207.46885015477892 135.2162554425886,207.86481149145402 135.52975326555315,208.2607724267291 135.92162554431707,208.71329871856142 136.05224963708315,208.85471307724947 136.261248185765,209.0526930934284 136.6269956458127,209.47693564748624 136.80986937589478,209.67491534841247 137.25399129174184,210.18400554716936 137.72423802607227,210.63652961145272 138.1944847604027,211.08905315160519 138.8737300435314,211.7678374790994 139.1088534106966,211.90925073216204 139.47460087074433,212.2203597089392 139.7880986937089,212.53146843789727 140.0493468794739,212.70116400386905 140.57184325100388,212.983989783359 141.43396226409823,213.49307567047072 142.06095790991094,213.9173134030716 143.10595065308735,214.62437526715803 143.26269956456963,214.8506347934017 144.43831640051212,215.6425421035965 145.14368650200777,215.78395395426196 145.6139332364546,216.06677750233212 146.13642960810103,216.43444780871505 146.8417997097131,216.85868234772352 147.62554426689167,217.4243276832858 147.80841799709015,217.53745665214956 148.33091436862014,217.87684336217353 148.59216255438514,218.01825440433458 149.0362844702322,218.3010763351631 149.32365747448057,218.49905156492605 149.53265602316242,218.61218022261164 150.3164005804574,219.14954089940875 150.57764876633883,219.29095148097258 151.23076923075132,219.71518291876419 151.67489114648197,220.02628568036016 152.45863570389338,220.39395226116176 153.52975326555315,221.12928438483505 154.0,221.24241228110623" stroke="#4dd2ff" stroke-linecap="round" stroke-linejoin="round" stroke-width="0.5"><title>2022-05-28 10.0km</title></polyline></svg>