<?xml version="1.0" encoding="utf-8" ?>
<svg baseProfile="full" height="300mm" version="1.1" viewBox="0,0,200,300" width="200mm" xmlns="http://www.w3.org/2000/svg" xmlns:ev="http://www.w3.org/2001/xml-events" xmlns:xlink="http://www.w3.org/1999/xlink"><defs /><rect fill="#222222" height="300" width="200" x="0" y="0" /><text fill="#FFFFFF" style="font-size:12px; font-family:Arial; font-weight:bold;" x="10" y="20">Over 8km Runs</text><text fill="#FFFFFF" style="font-size:4px; font-family:Arial" x="10" y="280">ATHLETE</text><text fill="#FFFFFF" style="font-size:9px; font-family:Arial" x="10" y="290">mujingy</text><text fill="#FFFFFF" style="font-size:4px; font-family:Arial" x="120" y="280">STATISTICS</text><text fill="#FFFFFF" style="font-size:3px; font-family:Arial" x="120" y="285">Number: 4</text><text fill="#FFFFFF" style="font-size:3px; font-family:Arial" x="120" y="290">Weekly: 1.0</text><text fill="#FFFFFF" style="font-size:3px; font-family:Arial" x="141" y="285">Total: 38.5 km</text><text fill="#FFFFFF" style="font-size:3px; font-family:Arial" x="141" y="290">Avg: 9.6 km</text><text fill="#FFFFFF" style="font-size:3px; font-family:Arial" x="167" y="285">Min: 8.3 km</text><text fill="#FFFFFF" style="font-size:3px; font-family:Arial" x="167" y="290">Max: 10.1 km</text><polyline fill="none" points="94.17898885556497,78.33712285695947 94.06890459358692,78.45629858589382 93.93680347921327,78.5754742717254 93.84873606951442,78.52780400257325 93.58453384053428,78.88533085299423 93.3863821689738,79.00450638358598 93.03411253052764,79.31436256115558 92.87999456375837,79.48120807448868 92.57175862998702,79.74339371031965 91.88923620537389,80.52994936538744 91.77915194339585,80.67295928264502 91.62503397651017,80.83980410761433 91.33881489525083,81.17349350394215 91.22873063327279,81.31650314174476 90.98654525680467,81.65019205503631 90.89847784710582,81.74553168247803 90.06183745572343,82.412908301485 90.01780375093222,82.43674315576209 89.15914650715422,82.07922016104567 88.87292742589489,81.79320148582337 88.67477575421799,81.67402696449426 88.0803207391873,81.29266820641351 87.6399836911587,80.9828138902667 87.39779831469059,80.86363907571649 86.51712421840057,80.33926937906654 86.29695569444448,80.19625931693008 85.61443326971494,79.74339371031965 85.39426474575885,79.57654832984554 84.6456917639589,79.26669239896 84.38148953509517,79.12368187098764 83.21459635766223,78.43246344351792 82.62014134263154,78.12260643616901 82.15778744220734,77.74124356525135 80.68265833100304,76.83550497665419 79.9781190539943,76.3587994556583 77.07189453660976,73.90375509334262 76.60954063595273,73.47471633544774 76.38937211188022,73.28403226364753 76.03710247343406,72.90266378872911 75.81693394936156,72.68814382748678 75.28852949163411,72.06841870985227 74.93625985307153,71.6155419247516 74.76012503379025,71.40102112485329 74.31978798576165,70.75745788679342 74.09961946168914,70.32841502915835 73.9895351997111,70.0900576444401 73.15289480832871,68.8744322982966 72.82264202216174,68.13552058086498 72.33827126934193,66.80070811344194 72.22818700724747,66.51467616629088 72.09608589287382,65.94261152658146 72.05205218796618,65.65657883396489 71.96398477838375,65.08451270312071 70.79709160083439,64.01188602860202 70.51087251957506,64.05955839945818 69.58616471861023,64.34559247959987 69.23389508004766,64.56011787668103 68.661456917529,64.65546245267615 68.33120413147844,64.65546245267615 67.64868170686532,64.75080700110993 67.36246262560599,64.82231539429631 66.70195705350488,64.98916825136985 65.95338407170493,65.27520152385114 65.79926610481925,65.39438198070275 65.49103017116431,65.77575915274792 65.16077738499735,66.3478240823897 64.98464256583247,66.58618417638354 63.3553954877425,67.44427908587386 62.76094047294464,67.20591961313039 62.496738244080916,67.06290384664317 62.03438434342388,66.80070811344194 61.81421581946779,66.7053641586972 61.109676542459056,66.49084015953122 60.86749116599094,66.53851217142073 60.3611035606591,66.65769217093475 59.854715955327265,66.75303613947472 59.21622723550536,66.84838008048246 58.97404185915366,66.89605204059626 58.445637401309796,67.01523191065644 57.36681163345929,67.11057577567408 57.14664310938679,67.20591961313039 55.82563196506817,67.30126342290896 55.14310954057146,67.25359152143938 54.83487360691652,67.22975556814345 53.91016580583528,67.25359152143938 53.66798042925075,67.22975556814345 53.117559119244106,67.22975556814345 52.58915466151666,67.20591961313039 52.346969285048544,67.182083656342 51.77453112252988,67.182083656342 51.22410981229041,67.13441173764295 50.959907583426684,67.13441173764295 50.40948627330363,67.08673981204629 50.123267192044295,67.06290384664317 49.24259309587069,66.80070811344194 48.978390867006965,66.80070811344194 48.361918999580666,66.776872127346 48.09771677071694,66.75303613947472 47.39317749382462,66.7053641586972 46.798722478793934,66.68152816564543 46.49048654513899,66.68152816564543 45.91804838262033,66.6100201762747 45.631829301360995,66.58618417638354 45.08140799112152,66.49084015953122 44.817205762374215,66.46700415096711 44.28880130464677,66.3478240823897 44.04661592817865,66.30015204290976 43.430144060752355,66.22864397070953 43.165941832005046,66.1809719139419 42.593503669369966,66.13329985027667 42.35131829290185,66.10946381583926 41.86694753996562,66.03795570219518 41.62476216349751,66.01411966088926 41.11837455816567,66.06179174184217 40.56795324804261,66.03795570219518 39.731312856660224,66.03795570219518 39.48912748019211,66.01411966088926 38.96072302246466,66.03795570219518 38.71853764599655,66.03795570219518 37.11130742030218,66.08562777971383 36.14256591454614,66.3478240823897 35.6361783092143,66.44316814068588 34.887605327530764,66.65769217093475 34.623403098550625,66.72920014997362 34.09499864070676,66.87221606136882 33.56659418309573,67.03906787955202 32.97213916806504,67.27742747310549 32.6639032344101,67.32509937102441 32.13549877668265,67.4919509596948 31.629111171350814,67.77798205774161 31.386925794999115,67.89716160859098 30.88053818955086,68.15935646864818 30.66036966559477,68.32620763446903 30.131965207867324,68.5407304377004 29.88977983139921,68.65990971247084 29.18524055450689,69.18429800879676 28.744903506245464,69.56567079070373 28.370617015403695,69.94704313078546 27.930279967258684,70.30457929841941 26.983555313781835,71.28184284234885 26.190948627190664,71.75855571366264 25.794645283953287,72.04458310516202 25.530443055089563,72.23526789475 24.60573525412474,72.99800594890257 24.341533025261015,73.52238733615377 24.275482467957772,73.7845777166367 24.143381353467703,74.4042996041826 23.614976895740256,74.83333715077606 23.37279151927214,74.90484335413203 22.998505028430372,75.02402032530517 22.051780374953523,75.61990453425096 21.74354444129858,76.04894049689756 21.479342212318443,76.5018111843965 21.149089426384307,76.95468124907347 20.290432182489894,77.78891394822858 19.740010872366838,77.62206757749664 19.585892905597575,77.57439717030502 19.409758086199872,77.50289154658094 18.947404185892083,77.26453935552854 17.75849415594712,77.16919843069627 17.560342484270222,77.26453935552854 16.96588746935595,77.47905633525806 16.72370209277142,77.5982323747885 15.732943734619766,77.95576023447211 15.424707800964825,78.09877126966603 14.940337048028596,78.33712285695947 14.5,78.86149574178853 14.72016852395609,79.50504314090358 15.380674096057191,79.67188855761196 16.107230225461535,79.67188855761196 16.283365044742823,79.71955866116332 17.03193802642636,79.93407404163736 17.318157107802108,80.0770842176862 17.868578417925164,80.2915993652714 18.132780646905303,80.38693938602228 18.947404185892083,80.7206292412302 19.762027724762447,81.03048380406108 20.026229953742586,81.10198866180144 20.53261755895801,81.31650314174476 20.796819787938148,81.38800793734845 21.369257950340398,81.60252223096904 21.633460179320537,81.74553168247803 22.161864637047984,81.93621085447376 22.404050013399683,82.03155039911508 23.460858928970993,82.07922016104567 23.945229681790806,81.81703638492036 24.165398205863312,81.69786187217687 24.60573525412474,81.55485240006237 24.869937482872047,81.48334764066385 25.28825767862145,81.26883326939424 25.530443055089563,81.14965855830815 26.014813807909377,80.88747404207243 26.279016036889516,80.744464217918 26.785403642221354,80.50611437309999 27.02758901868947,80.38693938602228 27.533976624021307,80.0770842176862 27.776162000373006,79.95790907531045 28.282549605704844,79.67188855761196 28.52473498217296,79.52887820560136 29.031122587504797,79.26669239896 29.27330796397291,79.17135205387603 29.73566186451353,78.88533085299423 29.977847240981646,78.76615527932881 30.396167436614633,78.50396886537783 30.638352813199162,78.38479315376026 31.12272356613539,78.14644160098396 31.364908942603506,78.00343058645376 31.805245990632102,77.76507875762763 31.95936395751778,77.66973797779065 32.685920086922124,76.40647003881168 32.48776841524523,75.90592857150477 32.33365044835955,75.64373988014995 31.805245990632102,74.73799552203855 31.585077466559596,74.28512240870623 31.342892090091482,73.83224867249373 31.01263930404093,73.18869018633268 30.66036966559477,72.54513044233317 30.550285403616726,72.28293907491025 30.308100027032197,71.80622696282808 30.22003261744976,71.56787064799573 29.933813536190428,70.82896497528418 29.77969556930475,69.16046219525742 29.977847240981646,69.08895474430756 30.704403370269574,68.65990971247084 31.188774123205803,68.4215511198272 31.452976352185942,68.27853588139988 32.06944821961224,67.84948979344335 32.75197064410895,67.42044314631494 32.95012231566943,67.32509937102441 34.66743680334184,66.776872127346 35.30592552316375,66.58618417638354 36.274667028919794,66.51467616629088 36.4948355529923,66.49084015953122 37.06727371562738,66.41933212871663 37.35349279688671,66.39549611503026 37.859880402102135,66.32398806355195 38.080048926291056,66.32398806355195 38.586436531622894,66.27631602055044 38.8506387603702,66.27631602055044 39.29097580851521,66.27631602055044 39.599211742170155,66.2524799965031 40.1276161998976,66.20480794316973 40.34778472397011,66.20480794316973 40.89820603420958,66.20480794316973 41.250475672539324,66.22864397070953 41.910981244873255,66.22864397070953 42.54946996457875,66.2524799965031 42.83568904583808,66.27631602055044 43.47417776565999,66.39549611503026 43.914514813688584,66.46700415096711 44.39888556662481,66.51467616629088 44.663087795488536,66.53851217142073 45.19149225321598,66.6100201762747 45.984098939807154,66.776872127346 46.53452024993021,66.84838008048246 47.239059526938945,66.89605204059626 47.569312312989496,66.96755996783031 48.2078010328114,67.08673981204629 48.494020114070736,67.182083656342 48.956374014611356,67.27742747310549 49.572845882037655,67.25359152143938 49.9251155203674,67.25359152143938 50.51957053539809,67.32509937102441 51.75251427013427,67.3966072050971 52.06075020378921,67.3966072050971 53.161592824035324,67.25359152143938 55.27521065494511,67.20591961313039 56.177901603630744,67.34893531742273 56.70630606135819,67.32509937102441 56.94849143770989,67.27742747310549 57.763114976813085,67.182083656342 58.04933405807242,67.13441173764295 58.907991301850416,66.99139594010194 59.43639575957786,66.776872127346 60.317069855867885,66.65769217093475 60.53723837994039,66.6100201762747 61.109676542459056,66.6100201762747 61.28581136162393,66.63385617441963 61.90228322905023,66.89605204059626 62.29858657240402,67.22975556814345 62.93707529210951,67.53962282661814 63.42144604504574,67.58729468661477 64.25808643654454,67.44427908587386 64.76447404187638,66.89605204059626 64.98464256583247,66.2524799965031 65.75523240002804,65.39438198070275 65.95338407170493,65.32287371173152 66.41573797212914,65.17985712731024 66.83405816799495,65.08451270312071 66.9881761346478,65.03684048075229 67.12027724913787,64.96533213413204 67.49456373997964,64.79847926498041 67.69271541165654,64.75080700110993 67.93490078812465,64.77464313391829 68.61742321273778,64.60779016811284 69.45406360412017,64.369428641774 70.44482196238823,64.08339458226692 70.9732264202321,63.96421365079004 71.54566458275076,64.17873929635971 71.96398477838375,65.01300436691963 72.38230497401673,65.8711033767031 72.73457461257931,67.34893531742273 72.82264202216174,67.63496653974289 73.39508018468041,68.96977562489337 73.63726556126494,69.51799921714701 73.96751834731549,70.06622189644258 74.23172057617921,70.61444366301293 74.36382169055287,70.80512928086682 75.99306876864284,72.92649933137 76.36735525948461,73.23636122845346 76.58752378355712,73.45088083250448 77.02786083158571,73.87991962142405 77.53424843691755,74.30895785125904 77.75441696099006,74.49964132951573 78.12870345194824,74.8810079547693 78.2608045663219,75.1193618712714 79.14147866261192,75.59606918660575 79.9781190539943,76.16811705403961 80.24232128285803,76.28729356796248 82.37795596616343,78.24178224275238 82.88434357161168,78.36095800620387 83.21459635766223,78.38479315376026 83.94115248695016,78.76615527932881 84.6677086163545,79.24285731528653 85.70250067941379,79.91023900627624 86.42905680881813,80.33926937906654 87.26569720020052,80.88747404207243 87.44183201948181,81.05431875833892 87.94821962481365,81.31650314174476 88.60872519703116,81.79320148582337 89.09309594996739,82.07922016104567 90.39209024177399,82.74659610385424 90.65629247063771,82.84193541383138 91.42688230494969,83.05644876041333 91.82318564818706,83.41397069423692 92.1094047294464,83.6761531989905 92.37360695842654,83.81916174999787 94.15697200316936,84.82021986800828 94.57529219891876,85.2015745411918 95.5,86.03578634920996 95.36789888550993,85.9166133631661 95.19176406634506,85.77360572293401 94.97159554215614,85.60676339757629 94.31108997005504,85.1300705736212 94.09092144586612,84.98706259188475 93.49646643106826,84.67721175175393 93.03411253052764,84.41503004395054 92.83596085885074,84.20051758232876 92.04335417225957,83.6761531989905 91.58100027171895,83.31863154983148 91.31679804285523,83.19945758051472 90.78839358512778,82.86577023705468 90.34805653698277,82.67509160324698" stroke="#4dd2ff" stroke-linecap="round" stroke-linejoin="round" stroke-width="0.5"><title>2023-02-05 10.1km</title></polyline><polyline fill="none" points="185.5,82.86105791098089 183.99143282836303,82.16425242030527 183.81040476786438,82.07715162049863 183.52880556252785,81.90294994521537 183.2874348150799,81.75052339662216 182.92537869384978,81.51099580706796 182.764464862179,81.40211956694839 182.50297988578677,81.20614223545999 182.382294512121,81.11904115829384 181.31624037749134,80.37868098390754 181.17544077476487,80.29157966718776 179.38527439790778,79.28991271182895 178.86230444500688,79.07215858457494 178.60081946861465,78.91973060168675 178.13819220266305,78.5277725768392 177.8968214552151,78.37534431813401 177.21293767075986,77.80918153817765 176.4888254282996,77.50432421534788 176.32791159674525,77.41722206634586 175.14117208844982,76.58975039309007 174.7388875093311,76.30666745602502 174.55785944871604,76.13246243930189 174.01477526698727,75.63162245418062 173.67283337470144,75.30498723205528 173.51191954303067,75.10900592850521 173.06940650613979,74.52106125181308 172.9889495903626,74.43395823903847 172.44586540851742,73.88956383761251 172.30506580579095,73.6718058011611 172.0234666004544,73.27984093831037 171.86255276878364,73.08385831530904 171.2390116712777,72.06039143202361 171.15855475550052,71.88618395614321 170.65569903154392,70.88448901171796 170.51489942881744,70.47074447423802 170.39421405515168,70.27476002104231 170.19307176559232,69.5125970444642 169.7706729575293,68.70687979782815 169.50918798113707,68.03181774032419 169.4488452943042,67.77050298874383 169.3885026073549,67.33497789819376 169.3683883784106,67.09543882953585 168.5034765334567,66.24616241262993 168.20176309917588,66.3332677965227 167.69890737521928,66.4639258250827 167.51787931472063,66.5074784886383 167.01502359076403,66.61636012000963 166.33113980630878,66.76879433760769 165.747827166575,66.87767587433336 164.8829153216211,67.09543882953585 164.0582319344394,67.31320162708289 163.85708964488003,67.33497789819376 163.47491929470561,67.50918801009539 163.33411969209556,67.68339802109404 162.95194934192114,68.3149084650795 162.81114973931108,68.77220830367878 162.52955053397454,69.20773131307214 162.14738018380012,69.5125970444642 161.58418177312706,69.62147758793435 161.06121182022616,69.5125970444642 160.69915569911245,69.27305971010355 160.5181276384974,69.09885061989189 159.89458654087503,68.70687979782815 159.17047429841477,68.59799892336014 158.92910355108324,68.61977510136785 158.46647628513165,68.72865596800693 158.2251055376837,68.77220830367878 157.48087906639557,68.92464142874815 156.97802334243897,68.98996988721774 156.8171095107682,69.01174603690743 156.13322572631296,69.09885061989189 155.67059846036136,69.1641790404974 155.46945617091842,69.18595517761423 155.047057362739,69.25128357938956 154.12180283095222,69.22950744701666 153.88043208350427,69.22950744701666 153.39769058849197,69.27305971010355 153.15631984104402,69.27305971010355 152.59312143037096,69.27305971010355 152.33163645397872,69.27305971010355 151.80866650119424,69.27305971010355 151.5270672958577,69.27305971010355 151.0242115719011,69.25128357938956 150.76272659550887,69.22950744701666 150.01850012422074,69.1641790404974 149.75701514771208,69.14240290189628 149.2742736528162,69.09885061989189 149.01278867642395,69.07707447648863 148.69096101319883,69.05529833154287 148.40936180774588,69.01174603690743 147.20250807050616,68.88108911519521 146.9611373230582,68.85931295601767 146.25713930977508,68.79398446914274 146.03588279115502,68.75043213664321 145.57325552520342,68.66332745278487 145.35199900669977,68.66332745278487 144.92960019875318,68.59799892336014 144.44685870374087,68.53267037967453 144.20548795629293,68.51089419535128 143.76297491928563,68.46734182184446 143.52160417183768,68.44556563277729 143.0388626769418,68.38023705600062 142.79749192949384,68.35846086061792 142.29463620553724,68.3149084650795 142.07337968715,68.27135606322554 141.6107524211984,68.2495798599266 141.42972436058335,68.22780365508515 141.28892475785688,68.206027448643 140.88664017873816,68.22780365508515 140.6653836602345,68.22780365508515 140.14241370745003,68.22780365508515 139.9010429600021,68.206027448643 139.4384156940505,68.2495798599266 139.21715917554684,68.29313226495287 138.73441768065095,68.3149084650795 138.25167618575506,68.40201324981172 137.48733548552264,68.48911800939823 137.22585050901398,68.51089419535128 136.7229947851738,68.59799892336014 136.48162403772585,68.64155127792037 135.97876831388567,68.75043213664321 135.27477030048613,68.92464142874815 135.01328532397747,68.98996988721774 134.53054382908158,69.12062676166533 134.26905885280576,69.20773131307214 133.80643158685416,69.3383880929614 133.38403277867474,69.5125970444642 133.1426620312268,69.62147758793435 132.7403774522245,69.75213418807834 132.45877824677154,69.86101464478998 131.9156940651592,70.07877544005169 131.69443754653912,70.18765577854356 131.21169605164323,70.36186423819163 130.950211075251,70.47074447423802 130.5076980382437,70.68850482808193 130.32666997762863,70.81916096466011 129.5422150484519,71.5813206305611 129.36118698783685,71.71197637933074 128.97901663766243,72.01683957254863 128.6773032033816,72.38703017740045 128.31524708215147,72.67011680311407 128.1543332504807,72.82254795279005 127.7721629004227,73.10563416869263 127.59113483980764,73.23628925537923 127.20896448974963,73.54115090362029 126.98770797112957,73.65002998881391 126.58542339212727,73.9331154259562 125.61994040221907,75.19610874581849 125.57971194433048,75.76227644374012 125.33834119688254,76.26311621133937 125.0768562204903,76.30666745602502 124.09125900175422,76.5026479793014 123.58840327791404,77.0034865142079 123.44760367518757,77.2212421389122 123.16600446973462,77.59142633908777 123.04531909606885,77.78740602536709 122.8240625775652,78.1793650148611 122.54246337222867,78.50599711600807 121.9993791904999,79.00683231564471 121.55686615349259,78.81085342381266 121.35572386393324,78.68020075830282 120.99366774270311,78.41889525705483 120.49081201886293,78.22291598221636 119.98795629502274,78.20114049932454 119.56555748695973,78.33179337283946 119.36441519740038,78.41889525705483 118.92190216039307,78.614874404273 118.33858952077571,78.91973060168675 118.15756146016065,78.9632814618526 117.23230692825746,79.3770143186266 116.83002234913874,79.59476822521538 116.64899428852368,79.68186974377022 115.94499627512414,79.85607270506443 115.58294015389401,79.92139878956368 114.89905636943877,80.20447832520586 114.47665756149217,80.48755759446067 112.18363546067849,81.44567006774014 111.96237894217484,81.57632153228042 111.29860938654747,81.85939951066393 111.03712441027164,81.90294994521537 110.11186987825204,82.12070202353061 109.87049913080409,82.18602761629154 109.4078718648525,82.3166787593218 109.20672957540955,82.38200430953293 108.58318847778719,82.59975604110514 108.42227464623284,82.64330636849627 108.24124658561777,82.70863184778136 107.87919046438765,82.81750761510921 107.63781971682329,82.86105791098089 107.1953066799324,82.96993362312787 106.93382170354016,83.03525903151603 106.45108020864427,83.16590980568435 106.22982369014062,83.23123517149361 105.68673950829543,83.36188586056232 105.16376955539454,83.47076139145065 104.9626272659516,83.55786178782 104.5,83.6667372477823 104.60057114472147,83.75383758739918 104.82182766322512,83.68851233503665 105.54593990568537,83.47076139145065 105.78731065313332,83.42721118382178 106.18959523213562,83.31833563715918 106.43096597958356,83.25301029026741 107.75850509060547,82.86105791098089 107.99987583805341,82.773957312922 108.60330270673148,82.59975604110514 108.84467345417943,82.55620570739848 109.30730072013102,82.46910502106766 109.54867146757897,82.40377948974492 110.05152719141915,82.251353194908 111.198038241826,81.96827558524092 111.6405512788333,81.83762429095805 112.56580581073649,81.40211956694839 113.24968959519174,81.14081642997917 114.09448721131776,80.85773777539725 114.47665756149217,80.5964341655199 114.67779985093512,80.46578227551072 115.08008443005383,80.18270298576681 115.50248323811684,80.00850021350197 115.72373975662049,79.96494950470515 116.18636702257209,79.85607270506443 117.39322075981181,79.33346351838554 117.59436304937117,79.24636189904413 117.99664762848988,79.09393400442787 118.3989322076086,78.91973060168675 118.90178793144878,78.74552709815907 119.16327290784102,78.614874404273 119.60578594484832,78.44067072420148 120.47069778980222,78.35356884627254 120.91321082692593,78.5495480360405 121.05401042953599,78.614874404273 121.21492426120676,78.68020075830282 121.61720884020906,78.91973060168675 122.90451949345879,78.22291598221636 123.04531909606885,78.0051610826049 123.32691830140539,77.56965081056114 124.49354358075652,76.58975039309007 125.13719890732318,76.45909676293377 125.5193692574976,76.0453598931199 125.55959771538619,75.8493790719076 125.61994040221907,75.1307816352346 125.9216538364999,74.5863884948485 126.22336727089714,74.32507943751989 126.38428110256791,74.21620059668203 126.72622299473733,73.9331154259562 126.9273652844131,73.7371332286566 127.3899925503647,73.45404760708334 127.792277129367,73.2145134114835 127.95319096103776,73.08385831530904 128.31524708215147,72.77899620358949 129.019245095551,72.08216735938913 129.24050161405466,71.92973583453568 129.6025577352848,71.62487255310407 130.0048423144035,71.1675770515576 130.58815495402087,70.79738494587946 130.78929724358022,70.71028085480793 131.21169605164323,70.4925205167383 131.4128383412026,70.40541633733665 131.8553513782099,70.2312079029216 132.07660789671354,70.1223275802331 132.88117705495097,69.73035809196881 133.0823193443939,69.59970148236607 133.48460392351262,69.44726869947044 133.72597467096057,69.38194034027401 134.61100074497517,69.12062676166533 134.83225726347882,69.05529833154287 135.55636950582266,68.88108911519521 135.8178544822149,68.815760633006 136.2804817481665,68.70687979782815 136.52185249573085,68.70687979782815 137.04482244839892,68.68510362613597 137.78904891980346,68.53267037967453 138.0505338961957,68.51089419535128 138.4729327041423,68.4237894420803 138.69418922276236,68.40201324981172 139.07635957293678,68.40201324981172 139.25738763343543,68.38023705600062 139.4183014651062,68.33668466360541 139.8205860442249,68.3149084650795 139.98149987577926,68.3149084650795 140.64526943129022,68.3149084650795 140.86652594979387,68.33668466360541 141.36938167375047,68.35846086061792 141.89235162653495,68.38023705600062 142.35497889248654,68.44556563277729 142.5963496399345,68.44556563277729 143.0187484479975,68.48911800939823 143.21989073755685,68.51089419535128 143.70263223245274,68.5762227436935 144.12503104051575,68.61977510136785 144.3261733300751,68.64155127792037 144.768686366966,68.70687979782815 144.96982865652535,68.70687979782815 145.41234169353265,68.77220830367878 145.6335982120363,68.815760633006 146.0962254779879,68.88108911519521 146.25713930977508,68.92464142874815 146.41805314132944,68.92464142874815 147.08182269672398,69.01174603690743 147.74559225223493,69.07707447648863 147.9869629997993,69.12062676166533 148.42947603669018,69.18595517761423 148.65073255531024,69.22950744701666 149.51564440038055,69.3383880929614 150.44089893216733,69.38194034027401 150.70238390855957,69.38194034027401 151.9695803327486,69.36016421738896 152.19083685125224,69.36016421738896 152.95517755160108,69.42549258132931 153.11609138315544,69.44726869947044 153.59883287805133,69.44726869947044 153.82008939655498,69.44726869947044 154.28271666250657,69.42549258132931 154.52408740995452,69.40371646161657 154.94648621801753,69.38194034027401 155.16774273652118,69.3383880929614 155.61025577352848,69.22950744701666 155.9119692078093,69.22950744701666 156.4349391607102,69.1641790404974 156.67630990815815,69.12062676166533 157.11882294516545,69.05529833154287 157.3803079215577,69.0335221850255 157.92339210328646,68.94641758309444 158.1848770796787,68.88108911519521 158.62739011680242,68.77220830367878 158.90898932213895,68.70687979782815 159.79401539603714,68.70687979782815 160.13595728832297,68.92464142874815 160.65892724110745,69.3383880929614 160.79972684383392,69.42549258132931 160.94052644644398,69.49082093103789 161.56406754406635,69.68680589509313 162.40886516019236,69.40371646161657 162.83126396825537,68.815760633006 162.87149242614396,68.64155127792037 162.93183511309326,68.2495798599266 163.5754904395435,67.70517426534207 163.97777501866221,67.50918801009539 164.4806307425024,67.33497789819376 164.68177303206176,67.24787280440796 165.12428606906906,67.16076768533094 165.3455425875727,67.09543882953585 165.7277129376307,67.00833366636652 165.88862676930148,66.98655737165245 166.19034020369872,66.96478107533767 166.33113980630878,66.89945217696368 167.1357089645462,66.68168907982181 167.37707971187774,66.61636012000963 168.0006208095001,66.42037315521156 168.24199155694805,66.3768204790249 168.945989570464,66.3332677965227 169.16724608896766,66.81234695707099 169.22758877580054,67.0301099595672 169.34827414958272,67.42208296674653 169.50918798113707,67.83583169794292 169.60975912597496,68.01004151973757 169.81090141553432,69.01174603690743 169.81090141553432,69.22950744701666 169.89135833119508,69.66502979426878 170.09250062087085,70.03522329358384 170.2735286814859,70.40541633733665 170.63558480259962,71.12402506277431 171.01775515265763,71.79908018035349 171.2390116712777,72.19104697272996 171.33958281599917,72.36525427206652 171.56083933450282,72.77899620358949 171.7016389372293,72.97497902519535 171.98323814256582,73.30161677737487 172.0838092872873,73.51937508187257 172.36540849262383,73.84601224289509 172.62689346913248,74.1290974956064 172.74757884291466,74.32507943751989 173.02917804813478,74.71704293842777 173.21020610874984,74.86947305081412 173.57226222997997,75.2396601450746 173.69294760364573,75.39208999261609 173.99466103804298,75.71872512021218 174.3366029302124,75.98003296690877 174.69865905144252,76.28489183445345 174.7791159672197,76.41554554030881 174.87968711205758,76.4808723719616 175.1814005463384,76.72040396652301 175.30208592000417,76.82928190103848 175.44288552273065,76.93815979608917 176.1267693073023,77.4825486804184 176.50893965736032,77.78740602536709 176.73019617586397,77.89628357364563 177.19282344181556,78.1793650148611 177.4140799603192,78.28824242131668 178.50024832377676,79.11570942265098 178.90253290289547,79.28991271182895 179.14390365034342,79.3770143186266 179.56630245852284,79.50766668142751 179.7473305190215,79.63831898759236 180.27030047180597,80.03027556560119 180.83349888259545,80.37868098390754 181.0547554010991,80.46578227551072 181.4771542090457,80.68353539405507 181.83921033027582,80.92306364240358 182.02023839089088,81.03194005583646 182.58343680156395,81.38034431420965 182.96560715173837,81.59809677078738 183.18686367024202,81.70697293998091 183.56903402041644,81.92472516017733 183.77017630985938,82.03360121115111 184.2529178048717,82.29490357276518 184.47417432337534,82.46910502106766 185.17817233677488,82.88283305658842 185.43965731316712,83.03525903151603" stroke="#4dd2ff" stroke-linecap="round" stroke-linejoin="round" stroke-width="0.5"><title>2023-01-08 10.0km</title></polyline><polyline fill="none" points="95.5,251.72137707169168 94.33870967756957,251.61658977216575 87.85483871027827,248.99690481624566 86.69354838738218,248.36817972036079 81.27419354906306,247.5298791670939 80.4032258070074,248.15860462747514 76.24193548411131,250.7782911027316 70.43548387102783,247.63466676301323 68.20967741962522,245.53891340550035 65.59677419392392,242.81442949862685 63.370967742055655,241.55697365605738 56.20967741962522,241.34739757608622 53.5,241.76654970576055 51.080645161215216,242.18570171424653 48.274193548131734,243.4431570097804 45.95161290327087,244.70061121182516 41.79032258084044,245.85327660280745 38.887096773833036,245.74848887801636 36.95161290280521,246.58679046388716 35.98387096775696,247.73945435101632 32.79032258037478,250.46392897632904 30.274193548597395,251.93095164792612 29.887096774298698,257.4846668485552 29.69354838738218,257.2750930772163 29.887096774298698,257.6942405892769 29.887096774298698,257.37987996661104 30.95161290327087,252.55967519443948 32.112903226166964,251.93095164792612 34.14516129018739,250.1495667815907 35.30645161261782,244.0718842475908 34.33870967756957,243.12879328837153 32.79032258037478,241.24260952475015 29.983870967756957,237.47023461409844 19.532258064486086,232.75475213315804 18.661290322430432,231.81165379099548 15.467741935513914,229.29672187112737 14.790322580374777,227.51530911389273 18.758064516354352,223.2189516677754 24.080645161215216,219.23695043777116 25.04838709626347,218.39863299182616 26.59677419345826,216.19804738240782 27.370967742055655,214.1022484494606 27.661290322430432,212.9495577411726 28.24193548411131,210.43459300522227 28.822580645326525,207.91962389356922 29.5,206.5573471308453 30.564516128972173,204.3567434947472 31.14516129018739,203.30883582378738 36.95161290280521,204.1471620212542 38.01612903177738,204.56632493785582 39.66129032289609,203.72799898323137 40.43548387149349,201.63218196993694 41.20967741962522,200.47948131756857 42.75806451588869,198.69803304609377 42.274193548597395,194.82075568963774 40.532258064486086,193.56325809739064 33.37096774158999,198.80282418173738 34.14516129018739,202.47050914005376 38.1129032257013,204.56632493785582 39.564516129437834,203.72799898323137 39.95161290327087,202.57530000200495 42.66129032243043,198.69803304609377 43.14516129065305,197.9644948844798 42.75806451588869,194.82075568963774 41.79032258084044,194.087215560372 40.33870967756957,193.24888352816924 37.62903225841001,193.35367505881004 35.8870967742987,194.71596426528413 35.20967741915956,195.55429544695653 34.14516129018739,196.81179130682722 33.467741935513914,197.650121272658 33.66129032243043,201.94655471586157 34.43548387102783,202.47050914005376 37.14516129018739,203.83278975414578 39.370967742055655,203.41362662496977 39.66129032289609,202.57530000200495 42.370967742055655,199.01240643009078 42.85483870981261,195.13512991683092 41.30645161308348,193.982424082933 39.75806451588869,193.03930044418667 37.04838709672913,193.14409198996145 35.69354838738218,194.50638139399234 35.20967741915956,195.23992131080013 34.532258064486086,195.9734608551953 33.467741935513914,197.650121272658 32.98387096822262,198.38365959376097 33.85483871027827,201.94655471586157 34.725806451402605,202.57530000200495 36.75806451635435,203.83278975414578 39.66129032289609,203.204045015038 40.04838709672913,202.15613650833257 41.887096773833036,199.32677974563558 42.08064516168088,195.3447126968531 41.30645161308348,194.61117283359636 38.20967741962522,192.93450889061205 37.43548387102783,193.56325809739064 36.75806451635435,193.877632597927 35.69354838738218,195.23992131080013 35.20967741915956,195.6590868101921 34.822580645326525,196.28783483162988 35.20967741915956,202.88967254268937 33.274193548131734,198.0692860732088 34.725806451402605,195.76387816586066 35.69354838738218,194.61117283359636 42.56451612897217,197.9644948844798 41.79032258084044,198.80282418173738 41.30645161308348,199.32677974563558 40.24193548364565,201.21301820268854 38.40322580654174,204.1471620212542 37.14516129018739,203.72799898323137 33.56451612897217,202.15613650833257 33.080645161215216,197.9644948844798 33.85483871027827,197.02137384400703 35.20967741915956,194.82075568963774 35.98387096775696,193.7728411051212 38.69354838738218,192.93450889061205 39.95161290327087,193.56325809739064 42.75806451588869,197.1261651009554 41.98387096775696,197.9644948844798 40.725806451402605,199.95552617136855 40.14516129018739,202.57530000200495 39.85483870981261,204.880697045126 39.564516129437834,207.710042936611 38.887096773833036,209.8058511374984 38.5,210.8537540982943 37.532258064486086,213.05434784351382 37.04838709672913,214.1022484494606 35.59677419345826,217.4555252835853 35.01612903224304,218.50342269905377 34.24193548364565,220.38963613228407 33.75806451635435,221.1231629140675 33.080645161215216,222.9045835484285 32.59677419345826,225.20994816953316 32.30645161261782,226.0482616656227 32.01612903224304,227.93446525442414 31.822580645326525,228.7727771702921 31.629032257944345,229.61108860035893 31.04838709672913,231.28771000157576 30.661290322430432,232.0212312536314 30.177419355139136,232.75475213315804 26.693548386916518,234.01221563189756 25.532258064486086,233.80263845808804 24.661290322896093,234.01221563189756 23.79032258084044,234.11700420745183 22.04838709672913,234.01221563189756 20.40322580654174,233.3834840193158 19.629032257944345,232.85954079974908 18.467741935048252,231.70686504838523 17.40322580607608,230.7637660227483 16.822580644860864,230.34461070294492 15.95161290280521,229.92545526113827 14.790322580374777,228.24883227993269 15.177419354673475,226.67699646856636 15.467741935513914,226.15305081848055 17.112903225701302,224.5812127282843 17.79032258084044,224.05726631870493 18.274193548131734,223.742898381548 20.40322580654174,222.48542594967876 22.241935483645648,221.1231629140675 23.112903225701302,220.38963613228407 24.177419354673475,219.55131935479585 24.95161290327087,218.81779177556746 25.629032257944345,218.08426382404286 26.5,216.6172068042215 27.564516128972173,213.99745842302218 27.75806451588869,213.15913793840446 28.14516129018739,211.272915070178 28.338709677569568,210.5393832899863 28.338709677569568,209.7010607997654 29.112903226166964,207.605252446956 29.5,206.76692825485952 29.887096774298698,206.0333941881545 30.661290322430432,204.56632493785582 30.95161290327087,203.9375805174932 31.919354838784784,202.05134561564773 32.112903226166964,199.95552617136855 32.69354838738218,198.48845075222198 33.37096774158999,197.650121272658 33.95161290327087,196.91658257937524 34.919354838784784,195.4495040755719 35.30645161261782,194.92554710642435 36.370967742055655,193.6680496049812 36.85483870981261,193.14409198996145 37.24193548364565,192.72492576099467 40.532258064486086,193.6680496049812 41.5,194.1920070303604 42.56451612897217,197.23095635068603 42.177419355139136,198.0692860732088 40.629032257944345,200.16510825254954 40.33870967756957,201.00343627331313 39.95161290327087,202.88967254268937 39.66129032289609,204.880697045126 39.66129032289609,206.45255655772053 39.467741935513914,208.12920481991023 38.98387096775696,209.91064146789722 38.79032258084044,210.5393832899863 38.5,211.3777052940568 37.725806451868266,213.15913793840446 36.85483870981261,214.83577842160594 36.370967742055655,215.7788878387073 35.40322580654174,217.8746843407862 35.01612903224304,218.81779177556746 34.04838709672913,220.4944256953895 33.37096774158999,222.066268229275 33.080645161215216,223.00937292934395 32.79032258037478,223.84768770146184 32.30645161261782,225.83868333720602 32.112903226166964,226.88657467556186 31.919354838784784,228.66798820754047 31.435483870562166,230.23982185381465 31.24193548411131,231.07813243300188 30.274193548597395,232.64996345865075 29.790322580374777,233.3834840193158 26.40322580654174,233.80263845808804 25.725806451402605,233.69784985971637 24.274193548131734,233.80263845808804 22.725806451868266,233.9074270487763 21.85483870981261,233.9074270487763 20.40322580654174,233.59306125389412 19.04838709672913,232.23080868565012 18.370967742055655,231.70686504838523 17.693548386916518,230.9733436370734 16.14516129065305,230.13503299700096 15.274193548597395,229.71587749489117 14.596774193458259,227.82967623055447 15.177419354673475,226.46741823118646 15.661290322430432,225.94347250519786 16.822580644860864,224.7907912391238 17.596774192992598,224.2668449053308 20.887096774298698,222.066268229275 23.887096773833036,219.7608985946281 24.564516128972173,219.13216078374535 25.14516129018739,218.50342269905377 26.209677419625223,217.3507355004549 26.693548386916518,216.5124169603223 27.274193548131734,215.1501482957974 27.467741935513914,214.31182847952005 28.14516129018739,211.69207592017483 28.338709677569568,210.8537540982943 28.435483871027827,210.01543179061264 28.629032257944345,208.54836658155546 29.306451613083482,206.76692825485952 30.661290322430432,204.2519527617842 31.532258064486086,202.78488170320634 31.919354838784784,201.94655471586157 32.20967741915956,200.58427232375834 32.40322580654174,199.11719754280057 33.467741935513914,197.85970368795097 33.95161290327087,197.23095635068603 34.33870967756957,196.60220873949584 35.20967741915956,195.23992131080013 35.69354838738218,194.50638139399234 36.66129032243043,193.35367505881004 38.20967741962522,192.3057594106067 39.080645161215216,192.8297173298197 39.564516129437834,193.24888352816924 42.66129032243043,195.55429544695653 43.24193548411131,196.18304351367988 42.75806451588869,197.02137384400703 41.5,198.80282418173738 41.01612903224304,199.43157083552796 40.24193548364565,200.89864529750776 39.95161290327087,202.57530000200495 39.85483870981261,203.41362662496977 39.75806451588869,204.2519527617842 39.66129032289609,205.71902233129367 39.564516129437834,206.5573471308453 39.370967742055655,208.23399527184665 39.370967742055655,209.17710899643134 38.79032258084044,210.43459300522227 38.59677419345826,211.272915070178 38.20967741962522,212.32081696763635 37.24193548364565,214.20703846844845 36.95161290280521,215.04535834526177 36.564516129437834,215.7788878387073 35.69354838738218,217.66510482737795 35.1129032257013,218.6082123987144 34.24193548364565,220.18005698383786 33.85483871027827,220.91358387167566 33.467741935513914,221.64711038745008 32.8870967742987,223.00937292934395 32.79032258037478,223.63810905383434 32.79032258037478,224.5812127282843 32.40322580654174,227.30573099816684 31.919354838784784,229.29672187112737 31.532258064486086,230.34461070294492 30.661290322430432,232.12601997342426 30.177419355139136,232.85954079974908 29.59677419345826,233.59306125389412 27.370967742055655,234.11700420745183 26.306451613083482,233.59306125389412 25.435483871027827,233.59306125389412 24.177419354673475,233.9074270487763 23.40322580607608,234.01221563189756 20.112903225701302,233.17390675435308 19.435483871027827,232.64996345865075 17.693548386916518,231.07813243300188 16.04838709672913,230.03024413308594 15.274193548597395,229.50629969802685 14.5,227.72488719923422 14.887096773833036,227.09615285205655 15.274193548597395,226.57220735377632 16.04838709672913,225.20994816953316 16.629032257944345,224.68600198742934 17.983870967756957,223.63810905383434 20.112903225701302,222.48542594967876 21.661290322896093,221.7518998592859 23.016129032243043,220.8087943389546 23.79032258084044,219.97047780442517 26.209677419625223,217.4555252835853 26.983870967756957,215.7788878387073 27.274193548131734,215.04535834526177 27.467741935513914,214.31182847952005 27.95161290327087,212.63518738839775 28.14516129018739,211.79686611378565 28.338709677569568,210.22501241310965 28.435483871027827,209.28189937223215 29.209677419625223,207.29088093177415 29.69354838738218,206.45255655772053 30.661290322430432,204.3567434947472 31.24193548411131,203.41362662496977 32.112903226166964,200.79385431378614 33.080645161215216,198.38365959376097 34.532258064486086,196.28783483162988 35.1129032257013,195.55429544695653 35.40322580654174,195.03033851529472 36.467741935513914,193.6680496049812 37.04838709672913,193.14409198996145 38.1129032257013,192.3057594106067 40.04838709672913,192.8297173298197 42.85483870981261,194.82075568963774 43.33870967756957,196.81179130682722 42.370967742055655,198.17407725425437 41.69354838691652,199.01240643009078 40.14516129018739,202.05134561564773 40.04838709672913,202.99446337425616 39.85483870981261,203.72799898323137 39.564516129437834,205.40465040598065 39.564516129437834,207.605252446956 39.564516129437834,208.44357615266927 39.080645161215216,210.01543179061264 38.5,211.06333459948655 38.20967741962522,211.79686611378565 37.919354838784784,212.63518738839775 36.95161290280521,214.41661848314106 36.66129032243043,215.35972817381844 35.79032258084044,217.24594570940826 34.919354838784784,218.81779177556746 34.43548387102783,219.65610897843726 34.04838709672913,220.38963613228407 33.080645161215216,221.7518998592859 32.59677419345826,223.42853037605528 32.30645161261782,225.10515894845594 32.20967741915956,226.0482616656227 31.919354838784784,228.03925427037757 31.725806451402605,228.7727771702921 31.338709677569568,230.44939954404254 31.04838709672913,231.39249877491966 30.080645161215216,233.0691181103466 29.5,233.80263845808804 28.629032257944345,236.31756253924686 28.24193548411131,235.47925499803387 27.177419355139136,234.43136988859624 26.016129032243043,234.01221563189756 24.467741935513914,234.11700420745183 22.532258064486086,234.64094697125256 21.467741935513914,235.58404346741736 20.79032258084044,236.1079856994329 20.20967741915956,236.52713934821077 18.758064516354352,237.5750229388941 17.40322580607608,237.99417616263963 16.435483871027827,240.08994045760483 17.016129032708704,241.13782146561425 17.693548386916518,242.50006564054638 18.080645161215216,243.02400536625646 19.04838709672913,245.22455013974104 20.112903225701302,245.11976236943156 20.79032258084044,245.01497459143866 23.59677419392392,243.4431570097804 24.177419354673475,242.91921743622515 25.435483871027827,241.4521856198553 24.080645161215216,242.60485360084567 23.5,243.33836911036633 20.79032258084044,245.32933790259995 20.016129032243043,245.22455013974104 19.435483871027827,245.32933790259995 18.467741935048252,245.85327660280745" stroke="#4dd2ff" stroke-linecap="round" stroke-linejoin="round" stroke-width="0.5"><title>2022-08-26 8.3km</title></polyline><polyline fill="none" points="181.56168359937146,231.1409606905363 181.42452830192633,230.99247914999432 181.09143686504103,230.80157420159958 180.48403483314905,230.4197639317572 180.09216255450156,230.2500703187834 179.75907111761626,230.03795316442847 179.4455732946517,229.76220063419896 179.32801161101088,229.67735364964756 178.7793904208811,229.40160078014014 178.56386066763662,229.29554191508214 177.2119013061747,228.31979855561804 176.9767779391259,228.1925274430978 176.31059506523889,227.87434942006075 176.15384615387302,227.7895018888812 176.01669085631147,227.70465433310892 175.72278664738405,227.5561710514885 175.42888243834022,227.36526386452897 175.29172714077868,227.25920426251832 175.1349782294128,227.17435655323789 174.88026124821045,226.98344911752793 174.7431059506489,226.87738937727408 174.11611030483618,226.347090100302 173.93976777943317,226.198606130798 173.60667634254787,225.88042594271246 173.4499274310656,225.75315377078368 173.19521044997964,225.4137610419566 172.92089985485654,225.09558000169636 172.76415094349068,224.94709539801988 172.43105950660538,224.6501259649085 172.25471698120236,224.4804290108441 171.88243831635918,224.119822657216 171.72568940499332,223.9925497205404 171.35341074026655,223.46224522276316 170.8243831640575,222.82587855854945 170.62844702473376,222.40163334795216 170.53047895501368,222.23193509169505 170.3737300435314,221.82890133926412 170.07982583460398,221.27738056915405 170.02104499272536,221.08646929144743 169.8642960813595,220.72585876086669 169.6487663279986,220.38646020900342 169.472423802712,220.25918565070606 169.27648766327184,219.9197865583119 169.15892597963102,219.55917459183547 168.78664731502067,218.79552425649308 168.66908563137986,218.13793487285147 168.6298984035384,217.88338374743762 168.49274310597684,216.9712403986341 168.2380261248909,216.56819940968126 167.45428156747948,216.52577401016606 167.25834542815574,216.56819940968126 166.43541364301927,216.6954755713814 166.35703918721993,216.67426288157003 166.08272859221324,216.7166882596357 164.92670537007507,217.09851638523105 164.39767779386602,217.26821761470637 163.84905660385266,217.3742808331881 163.43759071128443,217.52276927455387 163.12409288831986,217.692470258291 162.55587808415294,218.13793487285147 162.32075471698772,218.45612346856797 162.0856313498225,218.8803743920289 161.9680696661817,219.07128710718825 160.59651669091545,219.51674962538527 160.1850507982308,219.26219969791418 159.7931785195833,219.0288620701176 159.6168359941803,218.92279945063638 158.9506531205261,218.71067409639363 158.57837445579935,218.77431171873468 158.32365747459698,218.81673679267988 157.40275761974044,219.00764954929764 156.69738751812838,219.11371213808889 156.42307692300528,219.15613716286316 155.97242380259559,219.21977468852128 155.56095791002735,219.30462470118073 155.38461538462434,219.32583720049297 154.30696661828551,219.38947468927654 154.09143686504103,219.38947468927654 153.60159651678987,219.41068718246242 153.36647314950824,219.41068718246242 152.97460087086074,219.41068718246242 152.75907111761626,219.43189967416401 152.36719883896876,219.45311216425034 152.15166908572428,219.45311216425034 151.74020319303963,219.47432465282327 151.52467343979515,219.45311216425034 151.11320754722692,219.47432465282327 150.91727140790317,219.43189967416401 150.3686502177734,219.47432465282327 149.72206095792353,219.36826219457726 149.54571843252052,219.36826219457726 149.13425253995229,219.28341220034054 148.7031930333469,219.26219969791418 148.42888243834022,219.21977468852128 147.88026124821045,219.13492465128365 147.58635703916661,219.09249962339527 147.11611030483618,219.05007458940963 146.86139332363382,218.98643702690606 145.8425253991736,218.8591618604696 145.6074020320084,218.83794932736782 145.11756168364082,218.79552425649308 144.52975326566957,218.71067409639363 144.2554426706629,218.6682490070816 143.72641509445384,218.60461136164668 143.4912917271722,218.5621862570697 142.66835994203575,218.45612346856797 142.39404934702907,218.4349109062896 141.94339622638654,218.39248577707622 141.7474600870628,218.39248577707622 141.39477503637318,218.35006064175104 141.10087082732935,218.35006064175104 140.9049346880056,218.37127321018488 140.66981132084038,218.37127321018488 140.238751814235,218.37127321018488 140.02322206099052,218.39248577707622 139.59216255450156,218.4136983424687 139.43541364301927,218.4349109062896 139.25907111761626,218.47733602936205 138.88679245277308,218.51976114624995 138.63207547180355,218.51976114624995 138.02467343979515,218.58339881012216 137.4760522497818,218.6470364601846 136.1436865022406,218.75309917947743 135.51669085642789,218.8803743920289 135.28156748914625,218.9440119775827 134.83091436873656,219.07128710718825 134.65457184321713,219.11371213808889 134.1843251088867,219.24098719395988 133.92960812768433,219.32583720049297 132.8323657475412,219.7500868646457 132.63642960810103,219.83493672372424 132.18577648769133,220.08948615363624 131.93105950660538,220.1955483508209 131.53918722795788,220.38646020900342 131.3236574747134,220.49252229873673 130.716255442705,220.789495945588 130.28519593609963,221.06525691960996 129.38388969528023,221.85011365587707 129.0899854862364,222.2531473791314 128.87445573299192,222.50769470816886 128.77648766327184,222.59254376876925 128.34542815678287,223.01678870290925 127.91436865029391,223.22891093965154 127.50290275760926,223.50466961790517 126.91509433975443,223.90770106538548 126.71915820031427,224.0773983511026 126.03338171262294,224.734974405088 125.93541364301927,224.94709539801988 125.89622641517781,225.4773972085677 124.50507982587442,226.347090100302 123.85849056614097,227.068296882062 123.50580551533494,227.5561710514885 123.32946298993193,227.87434942006075 123.21190130629111,228.08646814047825 123.01596516696736,228.51070512070146 122.42815674899612,228.74403519807674 122.07547169819009,228.61676426981285 121.85994194482919,228.48949328628078 121.46806966618169,228.25616300627007 121.03701015969273,228.08646814047825 120.62554426700808,228.06525627532392 120.4100145137636,228.15010372664256 119.54789550078567,228.48949328628078 119.35195936146192,228.57434061478125 118.99927431065589,228.70161156143877 118.76415094337426,228.78645882853016 118.3330914368853,228.9349414867902 118.15674891148228,229.04100048237888 118.03918722795788,229.10463586128026 117.6669085631147,229.27433013742848 117.45137880987022,229.35917723874445 117.00072568946052,229.50765960682475 116.21698113204911,229.76220063419896 115.9818577648839,229.8470475942595 115.5899854862364,230.08037660759874 115.04136429610662,230.44097562645038 114.2380261248909,230.8652091982367 113.37590711179655,231.16217233304633 112.9056603773497,231.33186541780015 112.6705370103009,231.4379235459637 112.20029027573764,231.62882807981805 111.69085631344933,231.69246289682633 111.5537010160042,231.71367449939135 110.80914368655067,231.96821361071488 110.59361393330619,232.01063677450293 110.16255442681722,232.1803293679841 109.30043541372288,232.39244497171603 109.10449927439913,232.41365652365494 108.45791001454927,232.58334888382524 108.22278664738405,232.64698349354148 107.59579100157134,232.83788723983162 107.1843251088867,232.965156334918 106.96879535564221,233.02879086174653 106.47895500739105,233.15605987398885 106.26342525403015,233.21969435935898 105.85195936146192,233.36817477148725 105.65602322213817,233.41059773255256 105.20537010161206,233.43180921082967 105.00943396228831,233.45302068750607 104.63715529767796,233.49544363633322 104.5,233.5378665789467 104.61756168364082,233.58028951549204 104.81349782296456,233.5378665789467 105.55805515241809,233.43180921082967 105.79317851969972,233.34696328862628 106.22423802618869,233.21969435935898 106.43976777943317,233.17727137060137 106.87082728592213,233.07121387198276 107.4586357040098,232.9439448229241 108.04644412198104,232.77425267157378 108.47750362847,232.6681950270431 108.67343976791017,232.58334888382524 109.12409288831986,232.43486807405134 109.33962264156435,232.37123341824918 109.82946298981551,232.2439640652301 110.02539912925567,232.2015409352898 110.47605224966537,232.09548308349622 111.90638606681023,231.69246289682633 112.35703918733634,231.5864048608055 112.55297532666009,231.4379235459637 113.61103047896177,231.07732575382397 113.9637155297678,230.9076325216156 114.8650217707036,230.56824576246436 115.04136429610662,230.46218731960107 115.60957910015713,230.08037660759874 116.06023222068325,229.86825933042564 116.29535558784846,229.76220063419896 117.02031930338126,229.50765960682475 117.70609579107258,229.21069479543075 118.11756168364082,229.0834240698896 118.45065312052611,228.9137296830886 118.88171262701508,228.72282338050718 119.11683599418029,228.63797609503672 119.5674891147064,228.42585777380737 119.80261248187162,228.34101040232053 120.19448476051912,228.17131558567053 121.19375907117501,228.25616300627007 121.80116110306699,228.57434061478125 122.01669085642789,228.6803997408715 123.11393323668744,228.27737485758553 123.23149492032826,228.08646814047825 123.64296081278007,227.42889960734465 123.76052249642089,227.21678041091945 124.01523947762325,226.83496547043615 124.28955007262994,226.58042190040578 124.91654571844265,226.3895140778186 125.52394775033463,226.30466611667362 125.93541364301927,225.75315377078368 125.89622641517781,225.24406453019765 125.93541364301927,225.11679208181158 126.75834542815574,224.119822657216 126.91509433975443,223.9925497205404 127.26777939056046,223.65315495255345 127.4049346880056,223.54709400690626 127.85558780853171,223.1228498405253 128.11030478950124,222.86830304583418 128.38461538462434,222.69860505989345 128.79608127719257,222.38042107129877 129.38388969528023,221.93496290683106 129.52104499272536,221.78647670152714 129.97169811325148,221.40465468514594 130.22641509433743,221.12889403061126 130.4223512337776,221.02283217122022 130.79462989838794,220.8743455036747 131.22568940499332,220.68343396339333 131.42162554431707,220.59858434996568 131.8330914368853,220.38646020900342 132.26415094349068,220.2167607856827 132.6756168360589,220.02584881687653 132.85195936146192,219.9197865583119 133.243831639993,219.728874396038 133.38098693767097,219.66523698094534 133.5181422351161,219.601599552072 133.81204644415993,219.47432465282327 134.00798258348368,219.41068718246242 134.3998548622476,219.28341220034054 134.59579100145493,219.17734967295837 135.00725689413957,219.07128710718825 135.43831640062854,218.98643702690606 135.63425253995229,218.9440119775827 136.10449927439913,218.79552425649308 136.5355587808881,218.73188663872133 136.7706821480533,218.68946155253798 137.18214804073796,218.6682490070816 137.39767779398244,218.6258239116869 137.86792452842928,218.58339881012216 138.08345428167377,218.58339881012216 138.47532656032126,218.5621862570697 138.6712626995286,218.5621862570697 139.0631349781761,218.54097370244563 139.25907111761626,218.51976114624995 139.70972423814237,218.45612346856797 140.14078374463134,218.45612346856797 140.5718432511203,218.4136983424687 140.72859216260258,218.39248577707622 141.25761973881163,218.39248577707622 141.72786647314206,218.4349109062896 141.96298984030727,218.4349109062896 142.43323657475412,218.49854858859908 143.07982583460398,218.54097370244563 143.4912917271722,218.60461136164668 143.96153846161906,218.6470364601846 144.17706821486354,218.68946155253798 144.6081277213525,218.75309917947743 144.80406386067625,218.79552425649308 145.21552975324448,218.8591618604696 145.43105950648896,218.9015869221039 145.82293178525288,218.92279945063638 146.03846153849736,218.9440119775827 146.48911465890706,218.98643702690606 146.66545718431007,219.00764954929764 147.09651669091545,219.09249962339527 147.7431059507653,219.21977468852128 147.9586357040098,219.21977468852128 148.60522496374324,219.30462470118073 148.82075471698772,219.30462470118073 149.29100145143457,219.32583720049297 149.50653120467905,219.36826219457726 150.60377358505502,219.4955371399119 150.85849056602456,219.51674962538527 151.28955007251352,219.51674962538527 151.52467343979515,219.51674962538527 152.40638606681023,219.45311216425034 152.6219158200547,219.43189967416401 153.0725689404644,219.41068718246242 153.30769230774604,219.41068718246242 153.6799709724728,219.43189967416401 153.87590711179655,219.45311216425034 154.26777939044405,219.43189967416401 154.8555878084153,219.38947468927654 155.05152394773904,219.38947468927654 155.8156748911133,219.24098719395988 156.44267053704243,219.13492465128365 157.03047895501368,219.00764954929764 157.52031930338126,218.92279945063638 158.12772133527324,218.71067409639363 158.34325108851772,218.6682490070816 158.77431059500668,218.58339881012216 158.93105950660538,218.6258239116869 159.4013062409358,218.83794932736782 159.53846153849736,218.9652245030593 159.6168359941803,219.05007458940963 159.85195936146192,219.26219969791418 160.57692307699472,219.728874396038 160.96879535564221,219.83493672372424 161.53701015969273,219.68644945418055 161.87010159657802,219.45311216425034 162.00725689413957,219.26219969791418 162.1444121915847,218.8803743920289 162.26197387522552,218.54097370244563 162.301161103067,218.35006064175104 162.45791001443285,218.03187193076883 162.73222060967237,217.81974593151244 162.96734397672117,217.7136828743387 163.43759071128443,217.5015566446964 163.7119013062911,217.41670610982692 164.08417997101787,217.31064290668292 164.75036284467205,217.11972904432332 165.47532656032126,217.11972904432332 165.6124818577664,217.11972904432332 166.08272859221324,216.8227516777406 166.53338171262294,216.610624803041 166.7880986938253,216.58941210711782 167.19956458639354,216.52577401016606 167.39550072571728,216.50456130811654 167.74818577652331,216.41971048450796 168.0812772134086,216.41971048450796 168.2380261248909,216.54698671067308 168.3555878085317,216.65305019028892 168.49274310597684,216.92881505751575 168.61030478950124,217.28943026147317 168.64949201745912,217.45913138031028 168.88461538462434,217.968234147178 168.9238026124658,218.2227851988282 168.98258345434442,218.54097370244563 169.06095791002735,218.92279945063638 169.23730043543037,219.28341220034054 169.45283018867485,219.64402450621128 169.5312046444742,219.81372426125745 170.06023222068325,221.08646929144743 170.11901306244545,221.2349558514834 170.2757619738113,221.6167780889955 170.41291727148928,222.01981213322142 170.80478955013677,222.59254376876925 171.216255442705,223.1016376160842 171.41219158202875,223.39860861857596 171.64731494931038,223.69557932003227 171.9412191582378,224.0349740389065 172.03918722795788,224.14103480792255 172.19593613932375,224.28951982005674 172.47024673444685,224.60770173561468 172.6074020320084,224.7561865112948 172.9404934688937,225.1380041603552 173.2931785195833,225.4773972085677 173.64586357038934,225.81678986368934 174.15529753267765,226.32587810930272 174.33164005808067,226.43193804910698 174.60595065320376,226.6652697817044 174.84107402036898,226.89860132841568 175.03701015969273,227.0258730029018 175.42888243834022,227.23799233751197 176.07547169807367,227.6198067528312 176.54571843252052,227.93798505228187 177.3294629898155,228.4682814503467 177.44702467345633,228.63797609503672 178.3287373004714,229.23190657768282 178.85776487656403,229.3379654656892 179.21044992737006,229.55008312672726 179.60232220613398,229.82583585652173 180.13134978234302,230.14401176078536 180.71915820019785,230.56824576246436 180.85631349787582,230.65309248911217 181.24818577652331,230.9076325216156 181.44412191584706,231.01369080324366 181.77721335273236,231.22580725136504 181.99274310597684,231.37428867368726 182.14949201745912,231.45913516695146 182.73730043543037,231.86215567454929 182.93323657475412,231.96821361071488 183.4230769231217,232.2863871890586 183.756168360007,232.51971426025557 184.34397677797824,232.79546419586404 185.14731494919397,233.34696328862628 185.5,233.43180921082967" stroke="#4dd2ff" stroke-linecap="round" stroke-linejoin="round" stroke-width="0.5"><title>2022-05-28 10.0km</title></polyline></svg>