<?xml version="1.0" encoding="utf-8" ?>
<svg baseProfile="full" height="300mm" version="1.1" viewBox="0,0,200,300" width="200mm" xmlns="http://www.w3.org/2000/svg" xmlns:ev="http://www.w3.org/2001/xml-events" xmlns:xlink="http://www.w3.org/1999/xlink"><defs /><rect fill="#222222" height="300" width="200" x="0" y="0" /><text fill="#FFFFFF" style="font-size:12px; font-family:Arial; font-weight:bold;" x="10" y="20">Over 8km Runs</text><text fill="#FFFFFF" style="font-size:4px; font-family:Arial" x="10" y="280">ATHLETE</text><text fill="#FFFFFF" style="font-size:9px; font-family:Arial" x="10" y="290">mujingy</text><text fill="#FFFFFF" style="font-size:4px; font-family:Arial" x="120" y="280">STATISTICS</text><text fill="#FFFFFF" style="font-size:3px; font-family:Arial" x="120" y="285">Number: 5</text><text fill="#FFFFFF" style="font-size:3px; font-family:Arial" x="120" y="290">Weekly: 1.0</text><text fill="#FFFFFF" style="font-size:3px; font-family:Arial" x="141" y="285">Total: 48.5 km</text><text fill="#FFFFFF" style="font-size:3px; font-family:Arial" x="141" y="290">Avg: 9.7 km</text><text fill="#FFFFFF" style="font-size:3px; font-family:Arial" x="167" y="285">Min: 8.3 km</text><text fill="#FFFFFF" style="font-size:3px; font-family:Arial" x="167" y="290">Max: 10.1 km</text><polyline fill="none" points="84.93391828902531,74.7876482673455 84.42061968741473,74.57392207003431 83.94680559355766,74.33882307432941 83.72964080062229,74.14646921129315 83.49273375363555,73.97548789455323 83.03866191382986,73.74038842236041 82.7622703590896,73.6976430437062 81.6567041403614,72.9709706591675 81.43953934742603,72.84273417035001 81.0446942691924,72.56488825354609 80.80778722232208,72.37253323491313 80.3931998902699,72.09468687564367 79.84041678078938,71.75272176694125 79.66273649560753,71.58173906401498 78.91253084724303,71.02604459581198 78.5176857690094,70.74819696947816 78.34000548394397,70.57721368485363 78.06361392920371,70.36348443981842 77.80696462839842,70.08563619002234 77.64902659715153,69.93602548568742 77.27392377296928,69.57268488808768 77.07650123385247,69.42307392376824 76.38552234717645,68.69639101889334 76.18809980805963,68.52540654610493 75.61557444464415,67.77734831310227 75.47737866744865,67.5849901754118 75.20098711270839,67.17890036205063 74.90485330403317,66.62319760702667 74.60871949535795,65.96062757060281 74.39155470242258,65.51178895909106 74.07567863992881,64.89196308809915 73.89799835486338,64.72097641188884 73.70057581563015,64.037028716848 73.64134905405808,63.887414947355865 73.36495749920141,62.09204379891162 72.57526734296698,60.93787086618249 72.18042226473335,60.8096291506663 71.78557718661614,60.87375001536566 71.56841239368077,60.93787086618249 71.3117630929919,60.980618092318764 71.11434055375867,61.023365312226815 71.01562928431667,61.066112525964854 69.53496024128981,61.38671643176349 68.86372360831592,61.5790786081634 68.35042500670534,61.7286935475131 68.11351795995142,61.7714406591258 67.28434329573065,62.17753791069845 67.00795174110681,62.43402009757119 66.81052920210641,62.775996000069426 66.711817932548,62.989730737986974 65.96161228406709,63.930161746335216 65.21140663558617,63.951535143569345 64.71785028791055,63.80192133074161 64.5401700027287,63.71642768930178 63.41486152994912,63.310332554683555 62.96078969014343,63.24621221917914 62.526460104156286,63.28895911102882 62.28955305728596,63.35307943724911 61.83548121736385,63.43857318389928 61.618316424428485,63.45994661664008 61.065533315064386,63.524066905723885 60.82862626807764,63.566813757352065 60.354812174336985,63.63093402318191 60.137647381285205,63.65230744209839 59.72306004934944,63.73780110201915 59.50589525629766,63.7591745131067 58.913627639063634,63.78054792268085 58.656978338374756,63.80192133074161 58.183164244517684,63.82329473720165 57.88703043595888,63.80192133074161 57.393474088283256,63.84466814211919 57.17630929534789,63.84466814211919 56.64326843980234,63.84466814211919 56.14971209212672,63.82329473720165 55.89306279132143,63.82329473720165 55.399506443645805,63.80192133074161 55.16259939677548,63.80192133074161 54.451878256048076,63.78054792268085 54.21497120917775,63.7591745131067 53.721414861502126,63.71642768930178 53.4845078146318,63.69505427510012 53.030435974826105,63.63093402318191 52.79352892783936,63.60956060278113 52.33945708803367,63.54544033226557 52.06306553329341,63.502693477552384 51.569509185734205,63.43857318389928 51.03646833007224,63.39582631364465 50.85878804489039,63.35307943724911 50.7008500136435,63.33170599673758 50.36523169733118,63.28895911102882 50.16780915821437,63.26758566594799 49.69399506447371,63.1820918697631 49.47683027142193,63.160718416882446 48.98327392374631,63.07522458976018 48.766109130810946,63.05385112913791 48.39100630651228,62.989730737986974 48.15409925964195,62.9469838028017 47.75925418140832,62.9256103328662 47.26569783384912,62.818742960022064 46.87085275561549,62.79736948086065 46.67343021661509,62.79736948086065 46.51549218525179,62.775996000069426 46.08116259938106,62.711875548557146 45.824513298575766,62.711875548557146 45.07430765009485,62.669128573092166 44.87688511109445,62.69050206159591 44.54126679466572,62.73324903391767 44.08719495474361,62.73324903391767 43.92925692338031,62.7546225177648 43.49492733750958,62.73324903391767 43.23827803670429,62.69050206159591 42.68549492734019,62.62638159148628 42.15245407179464,62.647755083075026 41.67863997805398,62.711875548557146 40.9086920756381,62.9256103328662 40.415135728078894,63.032477666973136 40.17822868109215,63.032477666973136 39.72415684117004,63.160718416882446 39.487249794299714,63.2248387709551 39.01343570055906,63.35307943724911 38.81601316144224,63.41719974952866 38.342199067701586,63.58818718086695 37.73018919664901,63.86604154552333 36.96024129423313,64.16526903037447 36.3679736769991,64.44312285192427 36.170551137882285,64.57136298899422 35.40060323558282,65.02020303026075 35.16369618859608,65.1484429166594 34.78859336441383,65.53316224180162 34.92678914172575,66.06749380606925 34.96627364959568,66.28122616099427 35.14395393477753,66.73006360270665 35.262407458154485,66.92242229744443 36.0126131066354,68.84600235137623 36.22977789957076,69.29483589407755 36.32848916912917,69.52993890602374 36.525911708245985,69.93602548568742 36.723334247246385,70.32073857227806 36.82204551680479,70.53446784822154 37.05895256367512,70.98329882413964 37.45379764190875,72.09468687564367 37.13792157941498,72.67175209862762 36.940499040298164,72.77861590505927 36.38771593081765,73.12057982568513 35.795448313700035,73.44117064157035 35.40060323558282,73.67627035197802 35.20318069634959,73.78313379484462 34.72936660272535,74.06097856530687 34.531944063608535,74.18921452504583 34.09761447762139,74.42431363987271 33.90019193862099,74.53117681201547 33.50534686038736,74.76627565460512 33.36715108307544,74.8731387029984 32.28132711816579,75.42882593112881 32.10364683298394,75.51431618109928 31.64957499317825,75.77078678255202 31.43241020012647,75.85627693351125 31.037565122009255,76.09137472111615 30.622977789957076,76.32647232146701 29.79380312585272,76.81803942655097 29.596380586735904,76.92490173238912 28.82643268443644,77.09588134137448 28.60926789138466,77.03176399963559 28.273649574955925,76.9035292743647 28.135453797644004,76.86078435354284 27.93803125852719,76.77529449335998 27.326021387358196,76.49745227690437 27.14834110229276,76.47607978794258 26.83246503979899,76.34784482134273 26.694269262370653,76.30509982010699 26.556073485058732,76.2409823066555 26.200712914695032,76.04862968274392 25.78612558275927,75.83490439812886 25.33205374283716,75.70666915306356 25.095146695966832,75.62117895879783 24.22648752387613,75.23647277819691 24.048807238810696,75.15098244772526 23.496024129446596,74.98000171268359 23.002467781770974,74.89451130799716 22.469426926225424,74.98000171268359 21.83767480123788,75.1937276161043 21.324376199627295,75.3433356564201 21.10721140669193,75.40745336477994 20.653139566769823,75.57843385232263 20.43597477383446,75.64255150969257 20.060871949535795,75.7494142409414 19.88319166447036,75.81353186114575 19.429119824548252,75.9845121135877 18.95530573069118,76.15549226701842 18.718398683937266,76.2409823066555 18.08664655883331,76.45470729738008 17.889224019716494,76.47607978794258 17.454894433845766,76.64705965673784 17.217987386859022,76.75392202447983 16.38881272287108,77.07450889566098 15.8162873594556,77.37372299472918 15.65834932832513,77.52332993058371 15.362215519649908,77.86528835649369 15.224019742221572,78.07901217159815 14.947628187481314,78.48508699412923 14.631752125103958,78.7629273404018 14.414587332052179,78.91253357249661 14.0,79.19037351658335 14.138195777428336,79.23311810020823 14.335618316428736,79.14762892684666 14.690978886792436,78.91253357249661 14.848916918039322,78.7629273404018 15.618864820455201,77.77979878714541 16.23087469150778,77.35235056915553 16.448039484443143,77.22411598308827 16.90211132436525,77.07450889566098 17.139018371351995,76.98901909738197 17.573347957339138,76.81803942655097 17.81025500409305,76.77529449335998 18.22484233614523,76.62568717854447 18.442007129080594,76.54019725031685 18.836852207314223,76.36921731958864 19.054017000249587,76.30509982010699 19.4488620783668,76.15549226701842 19.646284617483616,76.07000220267219 20.337263504276052,75.83490439812886 20.57417055114638,75.7494142409414 21.047984644887038,75.55706129682949 21.28489169187378,75.45019849599339 21.67973676987458,75.25784535697312 21.916643816861324,75.1937276161043 22.548395941848867,75.06549209260265 22.98272552783601,75.1937276161043 23.239374828641303,75.25784535697312 23.69344666856341,75.40745336477994 23.910611461498775,75.49294362094952 24.325198793550953,75.64255150969257 24.542363586486317,75.70666915306356 24.97669317247346,75.87764946735115 25.39128050452564,76.07000220267219 25.60844529757742,76.15549226701842 26.02303262951318,76.32647232146701 26.43761996156536,76.47607978794258 26.635042500682175,76.54019725031685 26.97066081711091,76.68980460846797 27.18782561016269,76.75392202447983 27.76035097334534,76.94627418892924 28.352618590579368,77.18137110871612 28.550041129696183,77.24548841797514 29.102824239176698,77.30960571332253 29.477927063358948,77.15999866917264 29.675349602475762,77.05313644840498 30.050452426658012,76.88215681473957 30.228132711839862,76.77529449335998 30.60323553602211,76.58294221750111 30.780915821203962,76.45470729738008 31.195503153372556,76.28372731714626 31.392925692372955,76.17686477926327 31.807513024425134,75.94176705973223 32.0246778173605,75.83490439812886 32.45900740334764,75.57843385232263 32.65642994234804,75.47157105925726 33.01179051271174,75.27921793411952 33.24869755958207,75.17235503270058 33.70276939950418,74.89451130799716 33.91993419243954,74.74490304026403 34.39374828629661,74.48843154782662 34.65039758698549,74.36019571800716 35.14395393477753,74.10372389139957 35.38086098153144,73.954115222994 35.815190567635,73.6976430437062 36.0126131066354,73.59077956987312 36.46668494655751,73.33430707495427 36.68384973949287,73.22744346965919 37.05895256367512,73.01371614303207 37.45379764190875,72.77861590505927 37.848642720025964,72.07331406796584 37.76967370440252,71.68860326494905 37.69070468877908,71.5176205248863 37.473539895843714,71.15428187357611 37.394570880103856,71.00467171071796 37.33534411841538,70.87643436790677 37.17740608716849,70.53446784822154 37.05895256367512,70.36348443981842 36.86153002467472,69.97877140893252 36.76281875523273,69.78641470556613 36.5653962159995,69.40170092269545 36.486427200376056,69.2307168583211 36.28900466137566,68.80325626416015 35.992870852700435,68.2048103925481 35.91390183719341,68.0124525334104 35.73622155201156,67.6277364390262 35.51905675895978,67.22164668451296 35.42034548940137,67.05066135755624 35.20318069634959,66.6659440099611 35.084727172972634,66.47358514816733 34.92678914172575,66.21710647075088 34.78859336441383,66.04612056206679 34.63065533316694,65.87513455437147 34.96627364959568,65.25530944616185 35.49931450502481,65.02020303026075 35.933644091011956,64.80646976240678 36.170551137882285,64.67822972740396 36.901014532428235,64.31488265909138 37.05895256367512,64.18664241052466 37.473539895843714,63.99428193329368 37.670962434844114,63.887414947355865 38.559363860753365,63.566813757352065 39.052920208428986,63.41719974952866 39.289827255299315,63.37445287624723 39.783383602974936,63.1820918697631 40.27693995065056,63.09659804889816 40.53358925145585,63.07522458976018 41.04688785306644,63.01110420326586 41.2640526460018,62.989730737986974 41.698382231988944,62.882863388367696 41.91554702492431,62.86148991383379 42.29064984922297,62.84011643769918 42.428845626534894,62.84011643769918 42.64601041947026,62.86148991383379 43.06059775163885,62.86148991383379 43.514669591444544,62.818742960022064 43.77131889224984,62.775996000069426 44.14642171643209,62.73324903391767 44.383328763302416,62.711875548557146 44.81765834928956,62.69050206159591 45.094049904029816,62.69050206159591 45.6073485056404,62.69050206159591 46.100904853316024,62.69050206159591 46.3575541540049,62.73324903391767 46.831368247861974,62.7546225177648 47.75925418140832,62.904236861359095 48.19358376751188,62.989730737986974 48.43049081438221,63.01110420326586 49.2399232245516,63.07522458976018 49.63476830266882,63.11797150640632 49.81244858785067,63.160718416882446 50.30600493552629,63.20346532113035 50.54291198251303,63.24621221917914 50.93775706063025,63.310332554683555 51.33260213874746,63.39582631364465 51.68796270911116,63.48132004789659 51.924869755865075,63.502693477552384 52.29997258016374,63.48132004789659 52.53687962703407,63.502693477552384 52.9317247052677,63.502693477552384 53.721414861502126,63.60956060278113 54.01754867006093,63.65230744209839 54.53084727167152,63.71642768930178 54.76775431865826,63.73780110201915 55.261310666333884,63.78054792268085 55.47847545926925,63.78054792268085 56.03125856863335,63.7591745131067 56.820948724867776,63.71642768930178 56.99862901016604,63.71642768930178 57.41321634221822,63.71642768930178 57.90677268989384,63.73780110201915 58.10419522889424,63.69505427510012 58.81491636962164,63.78054792268085 59.52563751023263,63.69505427510012 59.762544557102956,63.65230744209839 60.51275020558387,63.524066905723885 60.710172744700685,63.502693477552384 61.69728544005193,63.310332554683555 62.66465588158462,63.05385112913791 63.15821222914383,62.989730737986974 63.45434603781905,63.032477666973136 63.651768576935865,63.11797150640632 64.00712914718315,63.33170599673758 64.184809432365,63.48132004789659 64.55991225666367,63.73780110201915 64.75733479566406,63.86604154552333 65.23114888952114,64.037028716848 65.70496298314538,64.0156553258712 66.17877707700245,63.80192133074161 66.57362215511966,63.1820918697631 66.75130244041793,62.45539360307157 67.22511653404217,62.07067026710138 67.75815738958772,61.835561314976076 67.97532218252309,61.792814212618396 68.68604332325049,61.5790786081634 68.8834658623673,61.53633146864013 69.23882643261459,61.45083717117086 69.39676446397789,61.40809001313755 69.57444474904332,61.38671643176349 69.75212503422517,61.36534284890513 69.91006306558847,61.30122209095862 70.62078420619946,61.08748613053467 70.6997532218229,61.08748613053467 71.43021661636885,60.91649725078605 71.96325747179799,60.8096291506663 72.20016451878473,60.76688189979177 72.75294762814883,60.95924448000733 73.04908143682405,61.32259567847359 73.54263778438326,62.73324903391767 73.58212229213677,63.7591745131067 73.75980257743504,64.35762939616689 73.75980257743504,64.72097641188884 74.51000822591595,65.89650781071396 75.02330682752654,66.77280999018694 75.31944063608535,67.15752719849115 75.43789415957872,67.32851246354403 75.89196599938441,67.88421389099676 76.08938853850123,68.07657183374977 76.54346037842333,68.76051017068676 76.85933644080069,69.08110572077567 76.99753221822903,69.2307168583211 77.33315053465776,69.52993890602374 78.0241294214502,70.00014436827041 78.63613929250278,70.57721368485363 79.01124211680144,70.89780726228491 79.14943789411336,71.02604459581198 79.50479846447706,71.23977336115786 79.66273649560753,71.32526482403046 80.09706608159468,71.64585758923204 80.72881820658222,72.15880528948037 81.87386893329676,72.86410692232312 82.3081985192839,73.20607074393774 83.03866191382986,73.48391605739016 83.25582670688163,73.56940687046153 84.3811351795448,74.29607778222999 84.79572251159698,74.65941256756196 85.24979435151909,74.95862911385484 85.46695914445445,75.04411949997302 86.0,75.38608079688856" stroke="#4dd2ff" stroke-linecap="round" stroke-linejoin="round" stroke-width="0.5"><title>2023-02-12 10.1km</title></polyline><polyline fill="none" points="184.8257678716909,72.96633142841165 184.72791519435123,73.07226540970441 184.61049198149703,73.17819935265288 184.53220983967185,73.13582578008936 184.29736341384705,73.4536274248967 184.12122859468218,73.55956122987845 183.8081000271486,73.83498894327204 183.67110627889633,73.98329606623156 183.39711878215894,74.21634996475768 182.7904321826063,74.91551054702722 182.69257950526662,75.04263047347195 182.55558575689793,75.19093698456709 182.30116879579145,75.48754978130455 182.20331611845177,75.61466945934808 181.9880402282579,75.91128182671673 181.9097580863163,75.99602816220431 181.16607773851138,76.58925182356325 181.12693666748237,76.61043836068711 180.36368578416295,76.2926401431614 180.10926882294007,76.03840132075129 179.9331340037752,75.9324684128951 179.40472954604775,75.59348285014858 179.01331883657258,75.31805679135141 178.7980429463787,75.21212362287042 178.01522152754478,74.74601722585794 177.8195161728654,74.61889717061422 177.21282957307994,74.21634996475768 177.01712421851698,74.06804295988695 176.35172601242084,73.79261546576163 176.11687958682887,73.66549499644316 175.07964120688848,73.05107861646684 174.55123674904462,72.77565016548033 174.14025550417136,72.43666094691434 172.82902962761,71.63155997927242 172.20277249242645,71.20782173836778 169.61946181033272,69.0255600829696 169.20848056534305,68.64419229817577 169.01277521066368,68.47469534547417 168.6996466430137,68.13570114554022 168.50394128833432,67.94501673556806 168.03424843703397,67.39414996434061 167.7211198695004,66.9915928219998 167.5645555856172,66.80090766656213 167.17314487625845,66.2288514549291 166.97743952157907,65.84748002592823 166.87958684412297,65.63560679508373 166.13590649631806,64.55505093184183 165.84234846418258,63.89824051634059 165.41179668379482,62.711740545302746 165.31394400645513,62.45748992559675 165.19652079360094,61.94898802363605 165.15737972268835,61.69473674130859 165.07909758086316,61.18623351390124 164.04185920080636,60.23278758098604 163.78744223969989,60.27516302173899 162.96547974983696,60.52941553744313 162.6523511823034,60.72010477927688 162.14351726009045,60.804855513517396 161.84995922795497,60.804855513517396 161.24327262828592,60.88960622320883 160.98885566717945,60.9531692393939 160.40173960314132,61.101482890109764 159.73634139704518,61.35573468788061 159.59934764867648,61.461672871751944 159.32536015217192,61.800674802449066 159.03180212003645,62.309176962138736 158.87523783626966,62.52105260125245 157.4270182113396,63.28380363190081 156.89861375372857,63.07192854501773 156.66376732802019,62.944803419246455 156.25278608303051,62.711740545302746 156.05708072846755,62.62699036329286 155.430823593284,62.43630236404715 155.21554770309012,62.478677485720254 154.76542538730428,62.58461526306928 154.315303071402,62.66936545733188 153.74775754276197,62.75411562711815 153.5324816525681,62.796490702749 153.06278880115133,62.90242836505058 152.10383256315254,62.987178467272315 151.90812720835675,63.07192854501773 150.73389508004766,63.15667859815585 150.12720848049503,63.11430357462086 149.85322098387405,63.09311606058327 149.03125849401113,63.11430357462086 148.81598260381725,63.09311606058327 148.3267192171188,63.09311606058327 147.85702636570204,63.07192854501773 147.64175047562458,63.050741027866025 147.13291655341163,63.050741027866025 146.64365316648036,63.008365989036974 146.4088067408884,63.008365989036974 145.91954335407354,62.965990944052464 145.66512639296707,62.944803419246455 144.88230497413315,62.711740545302746 144.64745854842477,62.711740545302746 144.09948355518281,62.69055300208856 143.86463712959085,62.66936545733188 143.2383799945237,62.62699036329286 142.70997553679626,62.60580281392322 142.4359880401753,62.60580281392322 141.92715411784593,62.54224015669024 141.67273715673946,62.52105260125245 141.1834737699246,62.43630236404715 140.94862734433264,62.41511480088229 140.47893449303228,62.309176962138736 140.2636586028384,62.2668018159311 139.71568360959645,62.20323908509454 139.48083718400449,62.16086392352008 138.97200326167513,62.11848875581927 138.75672737148125,62.09730116966239 138.3261755910935,62.03373840196582 138.1108997008996,62.01255080969713 137.66077738511376,62.054925992764765 137.1715139982989,62.03373840196582 136.42783365037758,62.03373840196582 136.2125577601837,62.01255080969713 135.74286490888335,62.03373840196582 135.52758901868947,62.03373840196582 134.0989399291575,62.07611358197755 133.2378363684984,62.309176962138736 132.78771405271254,62.39392723617493 132.1223158466164,62.58461526306928 131.88746942090802,62.6481779110909 131.41777656960767,62.77530316566117 130.94808371830732,62.92361589295615 130.41967926057987,63.135491087217815 130.1456917639589,63.177866107580485 129.67599891265854,63.32617863084306 129.22587659675628,63.58042849578487 129.01060070667882,63.68636587432411 128.56047839077655,63.91942797214142 128.36477303609718,64.06774011954258 127.89508018479683,64.25842705574178 127.67980429460295,64.36436418886296 127.05354715953581,64.83048711896117 126.66213645006064,65.16948514730029 126.32943734701257,65.50848278292688 125.9380266375374,65.82629270970938 125.09649361227639,66.69497141544707 124.39195433526766,67.11871618994337 124.0396846968215,67.3729627601424 123.80483827122953,67.54246035088727 122.98287578148302,68.22044973236916 122.74802935577463,68.68656652104983 122.68931774934754,68.91962463701202 122.57189453649335,69.47048853707383 122.10220168507658,69.85185524515691 121.8869257948827,69.91541631480504 121.55422669195104,70.02135140028258 120.71269366657361,70.5510262526659 120.43870617006905,70.93239155282208 120.20385974436067,71.33494327502558 119.9103017123416,71.73749444363057 119.14705082890578,72.47903462065733 118.65778744209092,72.33072673557035 118.52079369383864,72.28835304027598 118.36422941007186,72.22479248586751 117.9532481651986,72.01292387158901 116.89643924974371,71.9281763828476 116.72030443046242,72.01292387158901 116.19189997273497,72.20360563136637 115.9766240825411,72.30953988869442 115.09594998636749,72.62734243065643 114.82196248974651,72.75446335082233 114.39141070935875,72.96633142841165 114.0,73.43244065938052 114.19570535456296,74.0044827919337 114.7828214187175,74.15278982900782 115.42864908929914,74.15278982900782 115.58521337306593,74.19516325437871 116.25061157904565,74.38584359257948 116.50502854026854,74.51296374906087 116.9942919270834,74.70364388024609 117.22913835279178,74.78839056537254 117.9532481651986,75.08500377000018 118.67735797760542,75.36043004808016 118.91220440331381,75.42398992160452 119.36232671909966,75.61466945934808 119.59717314480804,75.67822927766247 120.10600706702098,75.86890864977613 120.34085349272937,75.99602816220431 120.81054634402972,76.16552075954678 121.0258222342236,76.25026702144532 121.9652079368243,76.2926401431614 122.39575971721206,76.05958789773285 122.59146507189143,75.95365499751642 122.98287578148302,75.82653546673828 123.21772220695857,75.76297568061273 123.58956238091923,75.57229623947933 123.80483827122953,75.4663631629519 124.23539005150087,75.2333102596167 124.47023647720926,75.10619041594327 124.92035879311152,74.89432388721616 125.1356346833054,74.78839056537254 125.58575699909125,74.51296374906087 125.80103288928512,74.40703028917778 126.25115520518739,74.15278982900782 126.46643109526485,74.02566951610788 126.91655341116711,73.79261546576163 127.131829301361,73.70786849236174 127.54281054623425,73.4536274248967 127.75808643642813,73.34769358162885 128.1299266103888,73.11463899145019 128.34520250058267,73.00870502558246 128.77575428097043,72.79683697865403 128.9910301711643,72.66971607686719 129.38244088063948,72.45784778456436 129.51943462889176,72.37310042472382 130.1652622994734,71.25019559006614 129.9891274801921,70.80526984133758 129.85213373193983,70.57221322681289 129.38244088063948,69.7671071307268 129.1867355258437,69.36455325220595 128.9714596356498,68.96199881999928 128.67790160363074,68.38994683232158 128.36477303609718,67.81789372654748 128.2669203587575,67.58483473326487 128.0516444684472,67.16109063364274 127.97336232662201,66.94921835378045 127.71894536551554,66.29241331138473 127.58195161714684,64.80929972912418 127.75808643642813,64.74573755050369 128.40391410689335,64.36436418886296 128.83446588739753,64.15248988429084 129.0693123129895,64.0253652279207 129.61728730634786,63.64399092752137 130.2239739059005,63.26261613005772 130.40010872506537,63.177866107580485 131.9266104918206,62.69055300208856 132.49415602057707,62.52105260125245 133.35525958135258,62.45748992559675 133.55096493603196,62.43630236404715 134.0597988582449,62.372739669983275 134.3142158194678,62.35155210226367 134.76433813525364,62.287989389835275 134.96004349004943,62.287989389835275 135.41016580583528,62.24561424049898 135.64501223154366,62.24561424049898 136.0364229409024,62.24561424049898 136.3104104375234,62.22442666356801 136.78010328882374,62.18205150506401 136.97580864350311,62.18205150506401 137.46507203031797,62.18205150506401 137.77820059785154,62.20323908509454 138.3653166621225,62.20323908509454 138.93286219076253,62.22442666356801 139.187279151869,62.24561424049898 139.75482468050905,62.35155210226367 140.1462353899842,62.41511480088229 140.57678717037197,62.45748992559675 140.81163359596394,62.478677485720254 141.2813264472643,62.54224015669024 141.98586572427303,62.69055300208856 142.47512911108788,62.75411562711815 143.10138624615502,62.796490702749 143.3949442782905,62.860053304742905 143.96248980693053,62.965990944052464 144.216906768037,63.050741027866025 144.62788801291026,63.135491087217815 145.17586300626863,63.11430357462086 145.48899157368578,63.11430357462086 146.01739603141323,63.177866107580485 147.11334601789713,63.24142862675944 147.3873335144017,63.24142862675944 148.3658602880314,63.11430357462086 150.24463169334922,63.07192854501773 151.04702364769764,63.19905361550627 151.516716498998,63.177866107580485 151.73199238907546,63.135491087217815 152.4561022015987,63.050741027866025 152.71051916270517,63.008365989036974 153.473770046141,62.88124083566072 153.94346289744135,62.69055300208856 154.72628431627527,62.58461526306928 154.92198967107106,62.54224015669024 155.430823593284,62.54224015669024 155.5873878770508,62.56342771061463 156.13536287017632,62.796490702749 156.4876325087389,63.09311606058327 157.05517803749535,63.368553623673506 157.4857298177667,63.41092861033394 158.22941016580444,63.28380363190081 158.6795324815903,62.796490702749 158.87523783626966,62.22442666356801 159.5602065778803,61.461672871751944 159.73634139704518,61.39810996600136 160.14732264191844,61.270984113172744 160.51916281599551,61.18623351390124 160.65615656413138,61.143858205119614 160.77357977698557,61.08029523034929 161.10627888003364,60.931981568894116 161.28241369931493,60.88960622320883 161.4976895895088,60.910793896837276 162.10437618906144,60.76248014943849 162.84805653709918,60.55060323714861 163.7287306332728,60.29635073982354 164.19842348457314,60.19041213403398 164.7072574069025,60.381101596780354 165.07909758086316,61.12267054838594 165.4509377547074,61.885425223750644 165.76406632224098,63.19905361550627 165.84234846418258,63.45330359089712 166.35118238639552,64.63980055548018 166.56645827670582,65.12711041524017 166.86001630872488,65.61441946352716 167.09486273443326,66.10172770045756 167.21228594717104,66.27122602745658 168.6605055721011,68.15688829457213 168.99320467514917,68.43232109196833 169.18891002982855,68.62300518446136 169.5803207391873,69.00437299683108 170.03044305508956,69.38574031223834 170.22614840976894,69.5552367373457 170.558847512817,69.89422929314605 170.6762707256712,70.10609944113821 171.45909214450512,70.52983927700552 172.20277249242645,71.03832627026713 172.43761891813483,71.14426094930968 174.33596085885074,72.88158421579283 174.786083174753,72.98751822776103 175.07964120688848,73.00870502558246 175.7254688773537,73.34769358162885 176.37129654793534,73.77142872470722 177.29111171513796,74.36465689446777 177.93693938560318,74.74601722585794 178.6806197335245,75.2333102596167 178.8371840172913,75.38161667408713 179.28730633319356,75.61466945934808 179.8744223973481,76.03840132075129 180.30497417773586,76.2926401431614 181.45963577053044,76.88586320343893 181.69448219623882,76.97060925675032 182.37945093773305,77.16128778705024 182.7317205761792,77.47908506156818 182.98613753728569,77.71213617688045 183.22098396299407,77.83925488889508 184.8061973361764,78.72908432714758 185.17803751013707,79.06806625885656 186.0,79.80958786596602 185.8825767871458,79.7036563228321 185.72601250337902,79.57653842041327 185.53030714858323,79.42823413119186 184.9431910845451,79.00450717657804 184.74748572974931,78.87738897057716 184.21908127202187,78.6019660015736 183.8081000271486,78.36891559463402 183.63196520786732,78.17823785096698 182.9274259308586,77.71213617688045 182.51644468598533,77.39433915540576 182.28159826027695,77.28840673824016 181.8119054089766,76.99179576628376 181.42049469961785,76.8223036473355" stroke="#4dd2ff" stroke-linecap="round" stroke-linejoin="round" stroke-width="0.5"><title>2023-02-05 10.1km</title></polyline><polyline fill="none" points="86.0,156.9876070319733 84.65905140305404,156.36822437361116 84.49813757149968,156.29080144045292 84.24782716680784,156.1359555068484 84.03327539120801,156.00046524143545 83.71144772786647,155.78755182851455 83.56841321091633,155.69077294839371 83.3359821208287,155.51657087597414 83.22870623297058,155.43914769624826 82.28110255778302,154.78104976346367 82.15594735543709,154.70362637081416 80.56468835368287,153.8132557438512 80.0998261733912,153.61969651961408 79.86739508330356,153.48420497926418 79.45617084682453,153.13579784607282 79.24161907134112,153.0003060605668 78.6337223740993,152.4970502561482 77.99006704741623,152.2260659691965 77.8470325304661,152.14864183675672 76.79215296753682,151.41311146052612 76.43456667498685,151.16148218313174 76.2736528434325,151.00663327937946 75.7909113484202,150.56144218148256 75.48696299979929,150.27109976182692 75.34392848273274,150.09689415867615 74.95058356109075,149.57427666826698 74.87906630255748,149.49685176803905 74.39632480766159,149.01294563342526 74.27116960519925,148.81938293436542 74.02085920039099,148.47096972294094 73.87782468344085,148.29676294694946 73.32356593001168,147.38701460622542 73.25204867159482,147.23216351657175 72.80506580590736,146.34176801040303 72.67991060344502,145.97399508820672 72.57263471570332,145.79978668535477 72.39384156942833,145.12230848397303 72.01837596227415,144.4061153758521 71.78594487218652,143.80606021363928 71.73230692825746,143.5737804344244 71.67866898444481,143.1866470206005 71.6607896698406,142.97372340402217 70.8919791408116,142.21881103343912 70.62378942151554,142.2962380413519 70.17680655582808,142.4123785111733 70.01589272415731,142.4510919898894 69.56890985846985,142.5478756622324 68.96101316122804,142.6833727445337 68.4425130370073,142.78015633273753 67.67370250821114,142.97372340402217 66.94065060839057,143.16729033517186 66.761857462232,143.1866470206005 66.42215048428625,143.34150045340357 66.29699528194033,143.49635379652318 65.95728830399457,144.0576964133943 65.83213310164865,144.4641851588094 65.58182269684039,144.85131672273565 65.24211571901105,145.12230848397303 64.74149490951095,145.21909118928306 64.27663272910286,145.12230848397303 63.954805065877736,144.9093864089955 63.79389123420697,144.75453388434835 63.239632480894215,144.4061153758521 62.59597715421114,144.3093323763169 62.38142537872773,144.3286889789888 61.97020114236511,144.4254719715682 61.7556493668817,144.4641851588094 61.094114725710824,144.5996812700032 60.647131860023364,144.65775101084728 60.50409734295681,144.67710758835892 59.89620064559858,144.75453388434835 59.484976409352385,144.81260359156295 59.3061832630774,144.83196015788417 58.9307176558068,144.89002984833496 58.108269183081575,144.8706732862338 57.89371740759816,144.8706732862338 57.464613856514916,144.9093864089955 57.2500620810315,144.9093864089955 56.74944127141498,144.9093864089955 56.51701018132735,144.9093864089955 56.052148001035675,144.9093864089955 55.80183759634383,144.9093864089955 55.35485473065637,144.89002984833496 55.122423640452325,144.8706732862338 54.46088899928145,144.81260359156295 54.22845790919382,144.79324702390295 53.79935435811058,144.75453388434835 53.56692326802295,144.73517731242464 53.280854234006256,144.7158207391476 53.030543829197995,144.67710758835892 51.95778495166451,144.56096810237796 51.74323317606468,144.54161151646986 51.11745716421865,144.48354175036366 50.92078470333945,144.4448285659164 50.50956046686042,144.36740218025807 50.31288800598122,144.36740218025807 49.937422398943454,144.3093323763169 49.50831884786021,144.25126255971554 49.29376707226038,144.23190595141205 48.90042215050198,144.1931927305268 48.68587037501857,144.17383611803234 48.25676682405174,144.11576627200702 48.04221504845191,144.09640965388098 47.59523218276445,144.0576964133943 47.39855972188525,144.01898316730512 46.987335485522635,143.99962654216506 46.82642165396828,143.980269915628 46.701266451505944,143.96091328769398 46.343680158955976,143.980269915628 46.14700769807678,143.980269915628 45.6821455177851,143.980269915628 45.46759374230169,143.96091328769398 45.056369505939074,143.99962654216506 44.859697045059875,144.03833979106275 44.43059349397663,144.0576964133943 44.001489942893386,144.13512288872153 43.322075987118296,144.21254934168246 43.08964489703067,144.23190595141205 42.64266203134321,144.3093323763169 42.42811025585979,144.34804558036558 41.98112739017233,144.4448285659164 41.35535137820989,144.5996812700032 41.12292028812226,144.65775101084728 40.693816737039015,144.77389045481686 40.461385646951385,144.85131672273565 40.05016141058877,144.96745608262427 39.67469580331817,145.12230848397303 39.46014402783476,145.21909118928306 39.102557735401206,145.33523038939165 38.852247330592945,145.4320130175911 38.369505835697055,145.62557816892513 38.172833374817856,145.72236069204519 37.74372982373461,145.87721265618165 37.51129873364698,145.97399508820672 37.11795381177217,146.16755984716292 36.9570399801014,146.28369863526314 36.259746709722094,146.96117389382562 36.098832878051326,147.07731233719096 35.75912590022199,147.34830184225575 35.49093618080951,147.67736015768605 35.16910851758439,147.92899271387432 35.02607400051784,148.0644870691467 34.6863670226885,148.31611926105688 34.52545319101773,148.43225711588457 34.185746213188395,148.703245247656 33.98907375219278,148.8000266567251 33.63148745975923,149.05165815640066 32.77328035759274,150.17431888516876 32.73752172838431,150.67757906108454 32.522969952900894,151.12276996563014 32.29053886269685,151.16148218313174 31.41445244604256,151.33568709270912 30.9674695803551,151.7808769015246 30.842314378009178,151.9744374567963 30.592003973200917,152.30349007918267 30.48472808545921,152.47769424476428 30.28805562458001,152.82610223542724 30.037745219888166,153.11644188089122 29.555003724992275,153.5616287250159 29.16165880311746,153.3874252656242 28.982865656842478,153.271289562952 28.661037993617356,153.03901800626772 28.214055127929896,152.8648142064194 27.76707226235885,152.8454582216218 27.391606655088253,152.96159410919063 27.21281350881327,153.03901800626772 26.81946858705487,153.21322169268387 26.30096846295055,153.48420497926418 26.14005463127978,153.5229168549704 25.317606158554554,153.89067939433153 24.960019866004586,154.08423842240882 24.799106034333818,154.16166199445433 24.173330022371374,154.31650907117 23.851502359146252,154.37457670184085 23.243605661788024,154.6262029557256 22.868140054750256,154.87782897283614 20.829898187308572,155.72948450465628 20.633225726429373,155.84561913979996 20.04320834367536,156.09724400946288 19.81077725358773,156.1359555068484 18.988328780746087,156.32951290981146 18.773777005262673,156.38758010338643 18.362552768783644,156.5037144527305 18.183759622625075,156.56178160847048 17.62950086919591,156.75533870320942 17.48646635224577,156.79405010532355 17.325552520575002,156.8521171980392 17.003724857233465,156.94889565787162 16.78917308175005,156.9876070319733 16.39582815999165,157.08438544278033 16.163397069787607,157.14245247244253 15.734293518820778,157.25858649393194 15.537621057941578,157.31665348578827 15.054879562929273,157.43278743160772 14.590017382637598,157.52956568128138 14.411224236479029,157.60698825585132 14.0,157.70376644247153 14.089396573137492,157.78118896656088 14.286069034016691,157.72312207557843 14.929724360699765,157.52956568128138 15.14427613618318,157.4908543856145 15.501862428616732,157.3940761219128 15.716414204100147,157.33600914689305 16.896448969491757,156.9876070319733 17.111000745091587,156.91018427813833 17.647380183800124,156.75533870320942 17.861931959283538,156.7166272954637 18.273156195762567,156.6392044631648 18.48770797124598,156.5811373242177 18.93469083693344,156.445647284374 19.953811770537868,156.1940227424493 20.347156692296267,156.077888258631 21.16960516513791,155.69077294839371 21.777501862379722,155.45850349331158 22.528433076804504,155.20687802256725 22.868140054750256,154.97460814712394 23.046933200908825,154.85847313379054 23.404519493458793,154.606847098461 23.779985100612976,154.45200018979085 23.976657561492175,154.41328844863165 24.38788179785479,154.31650907117 25.460640675504692,153.85196757189988 25.639433821779676,153.77454391025822 25.997020114329644,153.6390524483868 26.354606406763196,153.48420497926418 26.801589272450656,153.32935742057452 27.034020362538286,153.21322169268387 27.427365284296684,153.05837397706637 28.196175813209265,152.9809500855772 28.58952073508408,153.15515380982833 28.714675937430002,153.21322169268387 28.857710454496555,153.271289562952 29.215296746930107,153.48420497926418 30.359572883113287,152.8648142064194 30.48472808545921,152.67125429565203 30.73503849026747,152.28413405381434 31.772038738592528,151.41311146052612 32.34417680662591,151.2969749003678 32.68388378445525,150.92920879386656 32.71964241378009,150.75500361947343 32.77328035759274,150.11625034242752 33.041470077005215,149.6323453287623 33.30965979641769,149.400070611111 33.45269431336783,149.30328941928747 33.75664266210515,149.05165815640066 33.935435808380134,148.8774517588172 34.34666004474275,148.62582009517064 34.704246337292716,148.4129008102027 34.84728085435927,148.29676294694946 35.16910851758439,148.02577440319874 35.79488452943042,147.40637098612206 35.99155699030962,147.27087629737798 36.313384653651156,146.99988671387837 36.67097094620112,146.5934018236003 37.189471070305444,146.2643421741086 37.36826421658043,146.18691631537513 37.74372982373461,145.99335157043242 37.922522970009595,145.9159256331768 38.315867891767994,145.76107369149395 38.51254035264719,145.6642911824165 39.22771293774713,145.31587385953753 39.40650608402211,145.19973465098883 39.764092376455665,145.06423884395917 39.978644152055494,145.00616919134336 40.76533399557229,144.77389045481686 40.96200645645149,144.7158207391476 41.60566178301815,144.56096810237796 41.83809287310578,144.50289834044816 42.24931710958481,144.4061153758521 42.46386888506822,144.4061153758521 42.9287310653599,144.38675877878268 43.59026570653077,144.25126255971554 43.82269679673482,144.23190595141205 44.198162403772585,144.1544795040827 44.3948348647682,144.13512288872153 44.73454184259754,144.13512288872153 44.895455674268305,144.11576627200702 45.03849019133486,144.07705303432886 45.39607648376841,144.0576964133943 45.539111000834964,144.0576964133943 46.12912838347256,144.0576964133943 46.32580084435176,144.07705303432886 46.77278371003922,144.09640965388098 47.237645890330896,144.11576627200702 47.648870126809925,144.17383611803234 47.863421902176924,144.17383611803234 48.23888750933111,144.21254934168246 48.41768065560609,144.23190595141205 48.846784206689335,144.28997577217524 49.22224981384352,144.3286889789888 49.4010429601185,144.34804558036558 49.7943878818769,144.4061153758521 49.973181028151885,144.4061153758521 50.36652594979387,144.4641851588094 50.56319841078948,144.50289834044816 50.974422647152096,144.56096810237796 51.11745716421865,144.5996812700032 51.2604916812852,144.5996812700032 51.850509063806385,144.67710758835892 52.4405264465604,144.73517731242464 52.65507822204381,144.77389045481686 53.04842314380221,144.83196015788417 53.245095604797825,144.8706732862338 54.01390613371041,144.96745608262427 54.836354606435634,145.00616919134336 55.06878569663968,145.00616919134336 56.19518251810223,144.9868126376823 56.39185497898143,144.9868126376823 57.07126893475652,145.04488229450362 57.21430345182307,145.06423884395917 57.6434070027899,145.06423884395917 57.8400794636691,145.06423884395917 58.25130370003171,145.04488229450362 58.46585547563154,145.02552574366564 58.841321082785726,145.00616919134336 59.037993543664925,144.96745608262427 59.43133846542332,144.8706732862338 59.6995281848358,144.8706732862338 60.164390365127474,144.81260359156295 60.37894214061089,144.77389045481686 60.77228706236929,144.7158207391476 61.00471815257333,144.69646416445903 61.48745964746922,144.6190378516476 61.71989073755685,144.56096810237796 62.113235659431666,144.4641851588094 62.36354606412351,144.4061153758521 63.15023590764031,144.4061153758521 63.45418425637763,144.5996812700032 63.919046436669305,144.96745608262427 64.04420163901523,145.04488229450362 64.16935684136115,145.10295193870843 64.72361559479032,145.27716079563834 65.47454680909868,145.02552574366564 65.85001241625287,144.50289834044816 65.88577104557771,144.34804558036558 65.93940898939036,143.99962654216506 66.51154705742374,143.5157104580867 66.86913334997371,143.34150045340357 67.31611621566117,143.1866470206005 67.49490936181974,143.10922027057677 67.88825428369455,143.03179349808488 68.08492674457375,142.97372340402217 68.42463372240309,142.89629659232742 68.56766823946964,142.8769398859149 68.83585795888212,142.85758317809086 68.96101316122804,142.79951304619317 69.67618574632797,142.60594584874343 69.89073752181139,142.5478756622324 70.44499627512414,142.37366502684017 70.65954805072397,142.33495153690455 71.28532406268641,142.2962380413519 71.48199652356561,142.72208618406148 71.53563446737826,142.9156532973866 71.64291035523638,143.26407374822884 71.78594487218652,143.63185039816017 71.87534144532401,143.7867035731033 72.054134591599,144.67710758835892 72.054134591599,144.8706732862338 72.12565185001586,145.2578042615787 72.30444499640726,145.5868651498604 72.46535882807802,145.9159256331768 72.78718649130315,146.55468894468504 73.12689346913248,147.1547379380936 73.32356593001168,147.50315286465047 73.41296250314917,147.65800379739085 73.60963496402837,148.02577440319874 73.73479016649071,148.19998135573405 73.98510057118256,148.49032602433 74.07449714432005,148.6838889616629 74.32480754912831,148.97423310480372 74.55723863933235,149.2258644405374 74.66451452707406,149.400070611111 74.9148249317659,149.748482611918 75.07573876343668,149.88397604518104 75.3975664266618,150.213031240055 75.5048423144035,150.3485244378826 75.77303203381598,150.63886677351547 76.0769803825533,150.871140415009 76.39880804577842,151.14212607506488 76.47032530419528,151.25826270248217 76.55972187744919,151.31633099728788 76.82791159674525,151.52924797024752 76.93518748460338,151.6260283564916 77.0603426869493,151.72280870765098 77.66823938430753,152.20670993815293 78.00794636213686,152.47769424476428 78.20461882301606,152.574474287685 78.61584305937868,152.82610223542724 78.81251552025788,152.92288215228473 79.77799851004966,153.65840837568976 80.13558480259962,153.8132557438512 80.35013657819945,153.89067939433153 80.72560218535364,154.0068148279388 80.88651601690799,154.122950211211 81.35137819731608,154.47135605831863 81.85199900681619,154.78104976346367 82.04867146769539,154.85847313379054 82.42413707473315,155.05203146138228 82.74596473807469,155.2649454599159 82.90687856974546,155.36172449406877 83.40749937924556,155.67141716819606 83.7472063570749,155.86497490736656 83.94387881807052,155.96175372443395 84.28358579601627,156.1553112534748 84.46237894217484,156.25208996547735 84.89148249325808,156.48435873133712 85.08815495413728,156.6392044631648 85.71393096609972,157.0069627169578 85.94636205618735,157.14245247244253" stroke="#4dd2ff" stroke-linecap="round" stroke-linejoin="round" stroke-width="0.5"><title>2023-01-08 10.0km</title></polyline><polyline fill="none" points="186.0,173.7523351748241 184.96774193504825,173.65919090854004 179.20430107507855,171.3305820588721 178.17204301059246,170.77171530702617 173.3548387098126,170.02655925962608 172.58064516121522,170.58542633557227 168.88172043021768,172.91403653577436 163.7204301073216,170.11970378935803 161.74193548364565,168.25681191601325 159.41935483878478,165.83504844317213 157.44086021464318,164.71730991650838 151.0752688171342,164.5310200676322 148.66666666604578,164.90359973849263 146.51612903177738,165.27617930155247 144.0215053758584,166.39391734206583 141.95698924688622,167.51165441051126 138.2580645158887,168.53624586912338 135.6774193542078,168.44310122483876 133.95698924688622,169.18825819017366 133.09677419345826,170.21284831198864 130.25806451542303,172.6346035344759 128.0215053758584,173.93862368701957 127.67741935467348,178.8752594209509 127.50537634408101,178.688971624244 127.67741935467348,179.0615471904166 127.67741935467348,178.78211552579887 128.62365591386333,174.49748906167224 129.65591397834942,173.93862368701957 131.46236559096724,172.35517047252506 132.49462365545332,166.95278599788435 131.63440860202536,166.11448292294517 130.25806451542303,164.43787513300776 127.7634408599697,161.0846529903356 118.47311827912927,156.8931130071869 117.69892473099753,156.0548033696832 114.86021505342796,153.81930832983926 114.25806451588869,152.2358303234214 117.78494623629376,148.41684592689853 122.51612903177738,144.87728927796707 123.37634408520535,144.13211821496952 124.75268817180768,142.1760421176441 125.44086021464318,140.31310973281506 125.69892473099753,139.28849576995708 126.21505376324058,137.05297156027518 126.73118279548362,134.81744346092455 127.33333333302289,133.60653078299947 128.27956989221275,131.65043866203632 128.79569892399013,130.71896517672576 133.95698924688622,131.46414401882794 134.90322580607608,131.83673327800352 136.36559139797464,131.09155465173535 137.05376344081014,129.2286061954219 137.74193548364565,128.20398339338135 139.11827956931666,126.62047381873708 138.6881720428355,123.1740050574299 137.13978494610637,122.05622941988986 130.77419354813173,126.71362149482593 131.46236559096724,129.97378590225708 134.9892473113723,131.83673327800352 136.27956989221275,131.09155465173535 136.62365591386333,130.06693333515432 139.03225806402043,126.62047381873708 139.4623655914329,125.9684398972895 139.11827956931666,123.1740050574299 138.2580645158887,122.52196938695852 136.96774193504825,121.77678535832092 134.55913978489116,121.8699333856348 133.01075268769637,123.08085712464526 132.4086021501571,123.82604039728176 131.46236559096724,124.94381449499633 130.86021505342796,125.68899668683298 131.03225806402043,129.50804863625672 131.7204301073216,129.97378590225708 134.12903225794435,131.18470200360753 136.1075268816203,130.81211255548988 136.36559139797464,130.06693333515432 138.77419354813173,126.89991682674736 139.20430107507855,123.45344881503843 137.82795698894188,122.42882140702568 136.4516129028052,121.59048928366974 134.04301075264812,121.68363732437138 132.8387096771039,122.89456123916898 132.4086021501571,123.54659672069829 131.80645161261782,124.19863187125884 130.86021505342796,125.68899668683298 130.4301075269468,126.34103075007442 131.20430107507855,129.50804863625672 131.97849462321028,130.06693333515432 133.78494623629376,131.18470200360753 136.36559139797464,130.62581779109314 136.70967741915956,129.6943435629364 138.34408602118492,127.17935977387242 138.51612903224304,123.63974461937323 137.82795698894188,122.98770918545779 135.0752688171342,121.4973412360996 134.38709677383304,122.05622941988986 133.78494623629376,122.33567342034075 132.8387096771039,123.54659672069829 132.4086021501571,123.91918827570044 132.0645161285065,124.47807540593203 132.4086021501571,130.34637559356634 130.6881720428355,126.06158762064297 131.97849462321028,124.01233614748344 132.8387096771039,122.98770918545779 138.9462365587242,125.9684398972895 138.2580645158887,126.71362149482593 137.82795698894188,127.17935977387242 136.88172042975202,128.8560161801288 135.24731182772666,131.46414401882794 134.12903225794435,131.09155465173535 130.9462365587242,129.6943435629364 130.51612903177738,125.9684398972895 131.20430107507855,125.13011008361354 132.4086021501571,123.1740050574299 133.09677419345826,122.24252542678732 135.50537634361535,121.4973412360996 136.62365591386333,122.05622941988986 139.11827956931666,125.22325786750298 138.43010752648115,125.9684398972895 137.31182795669883,127.73824548558332 136.7956989244558,130.06693333515432 136.5376344085671,132.11617515119724 136.27956989221275,134.6311492769746 135.6774193542078,136.4940898999339 135.3333333330229,137.42555919848382 134.47311827912927,139.38164252764545 134.04301075264812,140.31310973281506 132.75268817180768,143.2938002521405 132.23655913909897,144.22526462143287 131.54838709626347,145.9018987842137 131.11827956978232,146.55392259033397 130.51612903177738,148.13740759866778 130.08602150483057,150.18662059505004 129.82795698894188,150.9317881471943 129.56989247258753,152.60841355950106 129.39784946199507,153.35357970686164 129.2258064514026,154.0987454225542 128.7096774186939,155.58907555695623 128.36559139750898,156.24109444755595 127.93548387056217,156.8931130071869 124.83870967663825,158.01085833949037 123.80645161261782,157.82456751831342 123.03225806448609,158.01085833949037 122.25806451588869,158.10400374000892 120.7096774186939,158.01085833949037 119.24731182772666,157.45198579493444 118.5591397844255,156.9862584886141 117.52688171993941,155.96165782073513 116.58064516074955,155.12334757577628 116.06451612850651,154.75076506927144 115.29032257990912,154.37818245438393 114.25806451588869,152.88785091543104 114.60215053707361,151.49066352751106 114.86021505342796,151.0249340608716 116.32258064486086,149.62774464732502 116.92473118240014,149.1620145054767 117.35483870934695,148.88257633906323 119.24731182772666,147.76482306641992 120.88172042975202,146.55392259033397 121.65591397834942,145.9018987842137 122.60215053707361,145.15672831539996 123.29032258037478,144.5047038004268 123.89247311791405,143.8526789547177 124.66666666604578,142.54862827039324 125.61290322523564,140.219963042764 125.78494623629376,139.47478927858174 126.12903225747868,137.7981467290083 126.3010752685368,137.14611848001368 126.3010752685368,136.4009429330472 126.98924731183797,134.53800217504613 127.33333333302289,133.79282511549536 127.67741935467348,133.14079483388923 128.36559139750898,131.83673327800352 128.62365591386333,131.27784934884403 129.4838709672913,129.60119610279799 129.65591397834942,127.73824548558332 130.17204301059246,126.43417844641954 130.77419354813173,125.68899668683298 131.29032258037478,125.03696229273919 132.1505376342684,123.73289251152892 132.49462365545332,123.26715298346244 133.44086021464318,122.14937742659822 133.87096774159,121.68363732437138 134.21505376277491,121.31104512081947 137.13978494610637,122.14937742659822 138.0,122.6151173603721 138.9462365587242,125.31640564498957 138.60215053753927,126.06158762064297 137.2258064514026,127.9245406689588 136.96774193504825,128.6697211317951 136.62365591386333,130.34637559356634 136.36559139797464,132.11617515119724 136.36559139797464,133.51338360679802 136.19354838691652,135.0037376176333 135.7634408599697,136.58723686030135 135.59139784937724,137.14611848001368 135.3333333330229,137.8912935947301 134.6451612901874,139.47478927858174 133.87096774159,140.96513637469616 133.44086021464318,141.80345585662872 132.58064516121522,143.66638608067296 132.23655913909897,144.5047038004268 131.376344085671,145.99504506250378 130.77419354813173,147.39223842602223 130.51612903177738,148.23055371490773 130.25806451542303,148.97572240128648 129.82795698894188,150.74549629969988 129.65591397834942,151.6769552670885 129.4838709672913,153.2604339622194 129.05376344034448,154.65761942556128 128.88172042975202,155.4027843849035 128.0215053758584,156.7999675187748 127.59139784891158,157.45198579493444 124.58064516074955,157.82456751831342 123.97849462321028,157.73142209742218 122.68817204236984,157.82456751831342 121.31182795669883,157.91771293221973 120.53763440810144,157.91771293221973 119.24731182772666,157.6382766701281 118.04301075218245,156.42738549830392 117.44086021510884,155.96165782073513 116.8387096771039,155.30963878845796 115.4623655914329,154.56447377509903 114.6881720428355,154.19189110654406 114.08602150529623,152.51526776049286 114.60215053707361,151.3043717610417 115.03225806402043,150.83864222676493 116.06451612850651,149.814036656986 116.75268817134202,149.34830658242572 119.67741935467348,147.39223842602223 122.34408602118492,145.34302097302862 122.9462365587242,144.78414291888475 123.46236559096724,144.22526462143287 124.40860215062276,143.20065377815627 124.83870967663825,142.4554817425087 125.35483870888129,141.24457626289222 125.52688172040507,140.49940309289377 126.12903225747868,138.17073415126652 126.3010752685368,137.42555919848382 126.38709677383304,136.6803838138003 126.55913978489116,135.37632585025858 127.16129032243043,133.79282511549536 128.36559139750898,131.55729134380817 129.13978494610637,130.25322818069253 129.4838709672913,129.50804863625672 129.74193548364565,128.29713095445186 129.91397849470377,126.99306448246352 130.86021505342796,125.87529216706753 131.29032258037478,125.31640564498957 131.63440860202536,124.7575188796036 132.4086021501571,123.54659672069829 132.8387096771039,122.89456123916898 133.69892473053187,121.8699333856348 135.0752688171342,120.93845280946698 135.84946236526594,121.4041931820102 136.27956989221275,121.77678535832092 139.03225806402043,123.82604039728176 139.54838709672913,124.38492756767664 139.11827956931666,125.13011008361354 138.0,126.71362149482593 137.56989247258753,127.27250740933232 136.88172042975202,128.57657359773293 136.62365591386333,130.06693333515432 136.5376344085671,130.81211255548988 136.4516129028052,131.55729134380817 136.36559139797464,132.8613531832816 136.27956989221275,133.60653078299947 136.1075268816203,135.09688468603417 136.1075268816203,135.93520799675025 135.59139784937724,137.05297156027518 135.41935483831912,137.7981467290083 135.0752688171342,138.7296150822658 134.21505376277491,140.40625641634688 133.95698924688622,141.15142964024562 133.6129032257013,141.80345585662872 132.8387096771039,143.4800931798527 132.32258064486086,144.3184110210277 131.54838709626347,145.71560620784294 131.20430107507855,146.3676301081432 130.86021505342796,147.01965367770754 130.34408602118492,148.23055371490773 130.25806451542303,148.7894302699715 130.25806451542303,149.62774464732502 129.91397849470377,152.04953866510186 129.4838709672913,153.81930832983926 129.13978494610637,154.75076506927144 128.36559139750898,156.3342399763642 127.93548387056217,156.9862584886141 127.41935483831912,157.6382766701281 125.44086021464318,158.10400374000892 124.49462365545332,157.6382766701281 123.72043010732159,157.6382766701281 122.60215053707361,157.91771293221973 121.91397849423811,158.01085833949037 118.98924731137231,157.26569489273243 118.38709677383304,156.7999675187748 116.8387096771039,155.4027843849035 115.37634408567101,154.47132811835036 114.6881720428355,154.00559973157942 114.0,152.422121954849 114.34408602118492,151.86324697954115 114.6881720428355,151.39751764782704 115.37634408567101,150.18662059505004 115.89247311791405,149.72089065553155 117.0967741929926,148.7894302699715 118.98924731137231,147.76482306641992 120.36559139750898,147.11279987485614 121.56989247305319,146.27448385686148 122.25806451588869,145.52931360388175 124.40860215062276,143.2938002521405 125.09677419345826,141.80345585662872 125.35483870888129,141.15142964024562 125.52688172040507,140.49940309289377 125.95698924688622,139.009055456263 126.12903225747868,138.26388098997995 126.3010752685368,136.8666777005419 126.38709677383304,136.02835499751382 127.0752688171342,134.2585608282825 127.50537634408101,133.51338360679802 128.36559139750898,131.65043866203632 128.88172042975202,130.81211255548988 129.65591397834942,128.48342605668586 130.51612903177738,126.34103075007442 131.80645161261782,124.47807540593203 132.32258064486086,123.82604039728176 132.58064516121522,123.36030090251006 133.5268817199394,122.14937742659822 134.04301075264812,121.68363732437138 134.9892473113723,120.93845280946698 136.70967741915956,121.4041931820102 139.20430107507855,123.1740050574299 139.63440860202536,124.94381449499633 138.77419354813173,126.15473533712793 138.17204301059246,126.89991682674736 136.7956989244558,129.60119610279799 136.70967741915956,130.4395229993388 136.5376344085671,131.09155465173535 136.27956989221275,132.5819114719052 136.27956989221275,134.53800217504613 136.27956989221275,135.2831788023468 135.84946236526594,136.6803838138003 135.3333333330229,137.61185297730844 135.0752688171342,138.26388098997995 134.81720430077985,139.009055456263 133.95698924688622,140.592549762805 133.69892473053187,141.43086948781274 132.92473118240014,143.10750729730353 132.1505376342684,144.5047038004268 131.7204301073216,145.24987464747392 131.376344085671,145.9018987842137 130.51612903177738,147.11279987485614 130.08602150483057,148.6031381119974 129.82795698894188,150.0934746208368 129.74193548364565,150.9317881471943 129.4838709672913,152.70155935140792 129.31182795669883,153.35357970686164 128.9677419355139,154.84391070588026 128.7096774186939,155.68222113326192 127.84946236526594,157.17254943132866 127.33333333302289,157.82456751831342 126.55913978489116,160.06005559046753 126.21505376324058,159.31489333161153 125.26881720405072,158.38343990105204 124.23655913956463,158.01085833949037 122.86021505342796,158.10400374000892 121.13978494564071,158.56973064108752 120.19354838691652,159.40803863771725 119.59139784937724,159.87376506614964 119.07526881666854,160.2463460873114 117.78494623629376,161.1777981678024 116.58064516074955,161.55037881119642 115.72043010685593,163.41328040673397 116.23655913956463,164.34473019163124 116.8387096771039,165.55561390263028 117.18279569828883,166.02133810322266 118.04301075218245,167.9773779020179 118.98924731137231,167.88423321722075 119.59139784937724,167.7910885256715 122.08602150529623,166.39391734206583 122.60215053707361,165.92819327663165 123.72043010732159,164.62416499538813 122.51612903177738,165.64875875622965 121.99999999953434,166.3007725425996 119.59139784937724,168.07052258006297 118.90322580654174,167.9773779020179 118.38709677383304,168.07052258006297 117.52688171993941,168.53624586912338" stroke="#4dd2ff" stroke-linecap="round" stroke-linejoin="round" stroke-width="0.5"><title>2022-08-26 8.3km</title></polyline><polyline fill="none" points="82.49927431053948,235.4586317249341 82.37735849054297,235.32664813332667 82.0812772133504,235.15695484587923 81.54136429604841,234.81756793933164 81.19303338171449,234.66672917225515 80.89695210446371,234.478180590595 80.61828737292672,234.23306723040878 80.51378809858579,234.15764768856752 80.02612481854158,233.91253402679286 79.83454281563172,233.81825948007463 78.63280116103124,232.95093204943987 78.4238026124658,232.83780217164895 77.83164005796425,232.55497726227622 77.69230769225396,232.47955723456107 77.57039187225746,232.40413718498894 77.30914368649246,232.27215204577078 77.04789550066926,232.1024567684799 76.92597968067275,232.00818156669266 76.78664731490426,231.93276138065266 76.56023222056683,231.76306588224543 76.43831640051212,231.66879055758181 75.88098693755455,231.19741342248744 75.72423802613048,231.06542767181236 75.42815674893791,230.7826008379634 75.2888243831112,230.66947001848894 75.06240928877378,230.3677875928406 74.81857764872257,230.0849600015208 74.67924528301228,229.95297368713364 74.38316400581971,229.68900085770292 74.22641509433743,229.53815912075515 73.89550072565908,229.2176201397524 73.75616835989058,229.10448864048522 73.42525399127044,228.6331068646832 72.95500725682359,228.0674476076092 72.78084179968573,227.69034075374657 72.6937590711168,227.53949785928125 72.5544267053483,227.18124563491438 72.29317851958331,226.691004950364 72.24092888244195,226.52130603684054 72.10159651667345,226.20076334298938 71.9100145137636,225.89907574134122 71.75326560233952,225.78594280063407 71.57910014508525,225.48425471849623 71.47460087074433,225.16371074829658 71.14368650212418,224.48491045022092 71.03918722784147,223.9003865536506 71.0043541364139,223.67411888661445 70.88243831630098,222.8633247987891 70.65602322202176,222.50506614193728 69.9593613932957,222.46735467571125 69.78519593609963,222.50506614193728 69.05370101588778,222.6182005078881 68.98403483303264,222.59934478362266 68.74020319298143,222.63705623078567 67.71262699557701,222.97645900909265 67.24238026118837,223.12730454640405 66.75471698108595,223.22158296284033 66.38896952103823,223.35357268850203 66.11030478950124,223.50441800737462 65.60522496368503,223.9003865536506 65.3962264151196,224.18322086095577 65.18722786643775,224.5603327929275 65.08272859209683,224.73003298416734 63.863570391898975,225.12599966701237 63.497822931734845,224.8997330648126 63.14949201740092,224.69232184010616 62.992743105918635,224.59804395612446 62.40058055147529,224.40948808568646 62.069666182855144,224.4660548610991 61.84325108851772,224.5037660379312 61.024673439736944,224.67346626604558 60.39767779386602,224.76774412274244 60.153846153756604,224.80545525588968 59.75326560228132,224.86202194534417 59.3875181422336,224.93744417882408 59.23076923075132,224.956299733778 58.27285921620205,225.01286639047612 58.081277213292196,225.01286639047612 57.64586357038934,225.03172193997307 57.43686502170749,225.03172193997307 57.08853410737356,225.03172193997307 56.89695210446371,225.0505774881458 56.54862119012978,225.06943303489243 56.357039187219925,225.06943303489243 55.991291727055795,225.08828858028573 55.79970972420415,225.06943303489243 55.433962264156435,225.08828858028573 55.25979680696037,225.0505774881458 54.77213352685794,225.08828858028573 54.19738751812838,224.99401083962584 54.0406386066461,224.99401083962584 53.674891146598384,224.9185886225314 53.29172714072047,224.8997330648126 53.047895500669256,224.86202194534417 52.56023222062504,224.78659969003638 52.29898403480183,224.74888855413883 51.88098693755455,224.7111774128134 51.65457184321713,224.65461069058802 50.74891146586742,224.54147720930632 50.53991291724378,224.5226216243318 50.104499274340924,224.48491045022092 49.58200290275272,224.40948808568646 49.33817126270151,224.37177689517557 48.86792452831287,224.31521009924472 48.65892597968923,224.27749889517145 47.92743105953559,224.18322086095577 47.68359941948438,224.1643652500352 47.28301886789268,224.12665402407583 47.10885341069661,224.12665402407583 46.795355587790255,224.08894279267406 46.534107402025256,224.08894279267406 46.35994194477098,224.1077984090516 46.15094339620555,224.1077984090516 45.76777939038584,224.1077984090516 45.576197387475986,224.12665402407583 45.193033381714486,224.14550963774673 45.05370101594599,224.1643652500352 44.896952104521915,224.20207647053758 44.56603773578536,224.23978768556844 44.33962264150614,224.23978768556844 43.79970972426236,224.29635449788475 43.31204644415993,224.35292129794834 42.127721335273236,224.44719927065307 41.57039187231567,224.5603327929275 41.36139332363382,224.616899535642 40.960812772100326,224.73003298416734 40.804063860618044,224.76774412274244 40.38606676337076,224.8808775057405 40.15965166903334,224.956299733778 39.184325108886696,225.3334105463582 39.01015965163242,225.40883264331205 38.60957910009893,225.63509880323545 38.38316400581971,225.72937631183595 38.03483309142757,225.89907574134122 37.84325108851772,225.99335315442295 37.30333817121573,226.25732972941478 36.92017416539602,226.5024505952024 36.11901306238724,227.20010102745437 35.85776487662224,227.55835322588973 35.66618287371239,227.78461751836585 35.57910014508525,227.86003890557913 35.19593613932375,228.23714551370358 34.81277213356225,228.4256986130349 34.44702467339812,228.6708174381347 33.92452830192633,229.02906761367922 33.750362844672054,229.17990964541968 33.14078374451492,229.76442169341317 33.05370101588778,229.95297368713364 33.01886792451842,230.4243530742824 31.78229317854857,231.19741342248744 31.20754716981901,231.83848611738358 30.894049346912652,232.27215204577078 30.73730043543037,232.55497726227622 30.632801161089446,232.74352723597258 30.45863570389338,233.12062677394715 29.936139332363382,233.32803128717933 29.622641509457026,233.2149015731702 29.431059506488964,233.10177181003382 29.082728592096828,232.89436711667804 28.699564586335327,232.74352723597258 28.333817126229405,232.72467224473075 28.14223512331955,232.80009220146167 27.37590711179655,233.10177181003382 27.201741654542275,233.17719165758172 26.88824383163592,233.2903213879472 26.67924528301228,233.36574118091085 26.296081277134363,233.49772576605028 26.13933236571029,233.59200042879093 26.03483309148578,233.6485652100382 25.703918722749222,233.7994045666128 25.512336719839368,233.8748242122092 25.111756168305874,234.0068085394014 24.41509433957981,234.23306723040878 24.206095791014377,234.30848675045127 23.85776487662224,234.51589031786716 23.37010159646161,234.83642277907347 22.656023222079966,235.21351928732474 21.88969521044055,235.47748651826987 21.47169811319327,235.62832481582882 21.262699564627837,235.72259870752168 20.84470246732235,235.89229162651463 20.39187227858929,235.94885590828198 20.269956458650995,235.96771066612564 19.608127721294295,236.19396765396232 19.41654571844265,236.2316771328915 19.033381712681148,236.38251499376202 18.267053700983524,236.5710621970793 18.09288824390387,236.58991690991388 17.518142235116102,236.7407545633905 17.30914368649246,236.7973186609306 16.751814223534893,236.96701087984547 16.38606676342897,237.08013896437478 16.194484760519117,237.136702988224 15.759071117616259,237.24983099910605 15.567489114648197,237.30639498609526 15.201741654600482,237.4383775746537 15.027576197404414,237.47608687338652 14.62699564587092,237.49494152073748 14.452830188674852,237.5137961666769 14.12191582005471,237.5515054545249 14.0,237.58921473684313 14.104499274340924,237.62692401377717 14.278664731478784,237.58921473684313 14.940493468777277,237.49494152073748 15.149492017400917,237.41952292321366 15.532656023162417,237.30639498609526 15.724238026072271,237.26868566275516 16.10740203189198,237.1744123306562 16.629898403480183,237.06128428704687 17.15239477501018,236.91044681917992 17.535558780829888,236.8161733573652 17.709724238025956,236.7407545633905 18.11030478955945,236.60877162138058 18.301886792469304,236.5522074828914 18.737300435372163,236.43907916909666 18.91146589256823,236.40136972026085 19.312046444101725,236.3070960742334 20.58345428155735,235.94885590828198 20.984034833090845,235.85458209850185 21.158200290286914,235.72259870752168 22.09869375906419,235.40206733673404 22.412191581970546,235.251228908106 23.213352685037535,234.9495517888572 23.37010159646161,234.85527761743288 23.875181422336027,234.51589031786716 24.27576197386952,234.32734162703855 24.48476052249316,234.23306723040878 25.129172714077868,234.0068085394014 25.73875181429321,233.74283981816552 26.104499274282716,233.62971028435277 26.400580551533494,233.47887082940724 26.783744557294995,233.30917633823992 26.992743105918635,233.2337565289199 27.39332365745213,233.0452069100429 27.60232220607577,232.9697870242817 27.950653120467905,232.81894718726107 28.838896952045616,232.89436711667804 29.378809869347606,233.17719165758172 29.57039187225746,233.27146643633023 30.545718432520516,232.91322209563805 30.65021770686144,232.74352723597258 31.015965166850947,232.1590218732017 31.12046444119187,231.97047147637932 31.346879535587505,231.6310804181703 31.590711175638717,231.4048194670322 32.148040638596285,231.23512362473411 32.68795355584007,231.1597032148129 33.05370101588778,230.66947001848894 33.01886792451842,230.21694624907104 33.05370101588778,230.10381518382928 33.785195936099626,229.2176201397524 33.92452830192633,229.10448864048522 34.238026124890894,228.80280440227943 34.35994194482919,228.70852800614375 34.76052249636268,228.33142208046047 34.9869375906419,228.10515826295887 35.23076923075132,227.95431560878933 35.59651669085724,227.67148539671325 36.11901306238724,227.27552258384821 36.24092888244195,227.14353484580352 36.64150943397544,226.8041374979075 36.86792452831287,226.55901691610052 37.04208998550894,226.4647397077497 37.37300435407087,226.33275155883166 37.75616835989058,226.16305241191003 37.93033381708665,226.08763053330767 38.29608127719257,225.89907574134122 38.67924528301228,225.74823180949898 39.04499274305999,225.5785322816664 39.201741654542275,225.48425471849623 39.5500725688762,225.3145550187037 39.67198838893091,225.25798842750373 39.79390420898562,225.20142182406562 40.05515239475062,225.08828858028573 40.2293178520049,225.03172193997307 40.577648766338825,224.9185886225314 40.751814223476686,224.8243108204042 41.11756168358261,224.73003298416734 41.50072568934411,224.65461069058802 41.674891146540176,224.616899535642 42.092888243845664,224.48491045022092 42.476052249607164,224.42834367886826 42.685050798230805,224.39063249115134 43.05079825833673,224.37177689517557 43.24238026124658,224.33406569928047 43.66037735855207,224.29635449788475 43.851959361403715,224.29635449788475 44.20029027579585,224.27749889517145 44.374455732875504,224.27749889517145 44.72278664726764,224.25864329106116 44.896952104521915,224.23978768556844 45.29753265605541,224.18322086095577 45.68069666181691,224.18322086095577 46.06386066757841,224.14550963774673 46.203193033346906,224.12665402407583 46.67343976779375,224.12665402407583 47.091436864982825,224.1643652500352 47.300435413606465,224.1643652500352 47.718432510853745,224.2209320787515 48.29317851958331,224.25864329106116 48.65892597968923,224.31521009924472 49.0769230768783,224.35292129794834 49.26850507984636,224.39063249115134 49.651669085607864,224.44719927065307 49.82583454280393,224.48491045022092 50.191582002851646,224.54147720930632 50.3831640057615,224.57918837520992 50.73149492015364,224.59804395612446 50.92307692306349,224.616899535642 51.32365747453878,224.65461069058802 51.48040638602106,224.67346626604558 51.86357039184077,224.74888855413883 52.43831640057033,224.86202194534417 52.62989840348018,224.86202194534417 53.20464441209333,224.93744417882408 53.39622641506139,224.93744417882408 53.81422351230867,224.956299733778 54.00580551516032,224.99401083962584 54.98113207548158,225.10714412436937 55.2075471697608,225.12599966701237 55.5907111755223,225.12599966701237 55.79970972420415,225.12599966701237 56.58345428155735,225.06943303489243 56.775036284467205,225.0505774881458 57.17561683594249,225.03172193997307 57.38461538456613,225.03172193997307 57.71552975324448,225.0505774881458 57.88969521044055,225.06943303489243 58.23802612477448,225.0505774881458 58.76052249636268,225.01286639047612 58.93468795355875,225.01286639047612 59.61393323651282,224.8808775057405 60.1712626995286,224.78659969003638 60.693759071058594,224.67346626604558 61.12917271407787,224.59804395612446 61.66908563132165,224.40948808568646 61.860667634231504,224.37177689517557 62.243831639993005,224.29635449788475 62.3831640057615,224.33406569928047 62.80116110300878,224.5226216243318 62.9230769231217,224.63575511383533 62.992743105918635,224.7111774128134 63.201741654542275,224.8997330648126 63.84615384612698,225.3145550187037 64.19448476051912,225.40883264331205 64.69956458633533,225.27684395927645 64.9956458635861,225.06943303489243 65.11756168358261,224.8997330648126 65.23947750357911,224.5603327929275 65.34397677792003,224.25864329106116 65.3788098693476,224.08894279267406 65.5181422350579,223.80610838290886 65.76197387516731,223.6175519391254 65.97097242373275,223.5232736660837 66.38896952103823,223.33471701751114 66.63280116108945,223.25929431985423 66.96371552970959,223.1650159170531 67.55587808409473,222.9953147060587 68.20029027573764,222.9953147060587 68.32220609579235,222.9953147060587 68.74020319298143,222.731334824668 69.14078374451492,222.54277760270634 69.36719883891055,222.52392187299847 69.73294629895827,222.46735467571125 69.90711175615434,222.44849894054641 70.22060957906069,222.37307598622283 70.51669085625326,222.37307598622283 70.65602322202176,222.48621040949365 70.76052249636268,222.58048905803298 70.88243831630098,222.8256133844552 70.9869375906419,223.14616023242706 71.02177068212768,223.29700567139662 71.23076923075132,223.74954146415985 71.26560232217889,223.97580906562507 71.31785195932025,224.25864329106116 71.3875181421754,224.59804395612446 71.54426705365768,224.9185886225314 71.73584905656753,225.23913289442135 71.80551523948088,225.3899771211145 72.27576197386952,226.52130603684054 72.32801161095267,226.6532940902107 72.46734397666296,226.99269163465942 72.58925979677588,227.35094411842874 72.93759071116801,227.86003890557913 73.30333817121573,228.31256676984776 73.4775036284118,228.57654099428328 73.68650217703544,228.84051495113818 73.94775036285864,229.14219914570276 74.03483309142757,229.23647538482328 74.17416545713786,229.3684620622662 74.41799709718907,229.65129043166235 74.53991291730199,229.78327689893194 74.83599419449456,230.12267036476987 75.14949201740092,230.4243530742824 75.46298984030727,230.7260354343889 75.91582002898213,231.17855831938505 76.07256894046441,231.2728338214365 76.31640058051562,231.48023980595462 76.52539912913926,231.6876456252503 76.69956458627712,231.80077600257937 77.04789550066926,231.98932652223448 77.62264150939882,232.3287171136326 78.0406386066461,232.61154226869985 78.73730043537216,233.08291684475262 78.84179970971309,233.2337565289199 79.62554426700808,233.76169473571645 80.09579100139672,233.85596930283646 80.40928882430308,234.04451833487838 80.75761973875342,234.289631872467 81.22786647314206,234.5724548984872 81.75036284461385,234.9495517888572 81.87227866472676,235.02497110143304 82.22060957906069,235.251228908106 82.39477503625676,235.34550293622306 82.69085631344933,235.53405089009902 82.88243831635918,235.66603437661252 83.02177068212768,235.74145348173624 83.54426705359947,236.09969393293431 83.71843251085375,236.19396765396232 84.15384615381481,236.4767886125046 84.44992743100738,236.68419045355404 84.97242380259559,236.92930150743632 85.68650217703544,237.41952292321366 86.0,237.49494152073748" stroke="#4dd2ff" stroke-linecap="round" stroke-linejoin="round" stroke-width="0.5"><title>2022-05-28 10.0km</title></polyline></svg>