<?xml version="1.0" encoding="utf-8" ?>
<svg baseProfile="full" height="200mm" version="1.1" viewBox="0,0,200,200" width="200mm" xmlns="http://www.w3.org/2000/svg" xmlns:ev="http://www.w3.org/2001/xml-events" xmlns:xlink="http://www.w3.org/1999/xlink"><defs /><rect fill="#1a1a1a" height="200" width="200" x="0" y="0" /><text alignment-baseline="middle" fill="#e1ed5e" style="dominant-baseline: central; font-size:9.0px; font-family:Arial;" text-anchor="middle" x="100.0" y="100.0">2023</text><line stroke="#e1ed5e" stroke-width="0.3" x1="100.0" x2="100.0" y1="15.0" y2="10.0" /><path d="M 100.0 14.0 a86.0,86.0 0 0,1 42.46469731375804,11.215312516191453" fill="none" id="id13" stroke="none" /><text fill="#e1ed5e" style="font-size:6.75px; font-family:Arial;" text-anchor="middle"><textPath startOffset="22.20632615414155" xlink:href="#id13">January</textPath></text><path d="M 102.52436894288641 79.15227682838746 l 3.573710085843624 -29.513799389434237 a50.72937534119123,50.72937534119123 0 0,0 0.865987328181634,0.11243000920071118 l -4.081212142533104 29.447911057069387" fill="#c7ff1e" stroke="none" /><path d="M 103.95276090670814 79.375362276772 l 3.3636651301978295 -17.550865425442595 a38.87028595994214,38.87028595994214 0 0,0 0.6560445246581846,0.1315963598999771 l -3.6652760643231397 17.49036510946541" fill="#ff8e0d" stroke="none" /><path d="M 108.76106565485865 80.91482961587045 l 6.212127842942352 -13.532545354776572 a35.89027589120311,35.89027589120311 0 0,0 0.559241917812876,0.262571579028575 l -6.444147972054826 13.423608793107995" fill="#ff6008" stroke="none" /><path d="M 109.73455568895987 81.39251694778311 l 8.29295382987718 -15.851878891325638 a38.89008517614519,38.89008517614519 0 0,0 0.5904902999690377,0.31541946826934775 l -8.564589176374529 15.706780696554537" fill="#ff8f0d" stroke="none" /><path d="M 110.36928655335952 81.73862282372117 l 8.899323186779391 -15.67262091669457 a39.02301305501279,39.02301305501279 0 0,0 0.5812631425074358,0.3367051300801019 l -9.167783061752155 15.517111629224418" fill="#ff910d" stroke="none" /><line stroke="#e1ed5e" stroke-width="0.3" x1="143.23703022742887" x2="145.7803849466894" y1="26.81831364943548" y2="22.513508569990506" /><path d="M 143.74570117128098 25.957352633546492 a86.0,86.0 0 0,1 28.547481713284135,27.462654790039103" fill="none" id="id14" stroke="none" /><text fill="#e1ed5e" style="font-size:6.75px; font-family:Arial;" text-anchor="middle"><textPath startOffset="19.985693538727396" xlink:href="#id14">February</textPath></text><path d="M 111.90073688211348 82.69761687909136 l 16.862424985335448 -24.51614049902782 a50.75537802405033,50.75537802405033 0 0,0 0.7155755681705518,0.5013064149254423 l -17.28193169308965 24.222249241338442" fill="#c6ff1e" stroke="none" /><path d="M 113.89432698308785 84.25364557470407 l 19.722168166538754 -22.35101062207705 a50.808247063815,50.808247063815 0 0,0 0.6508028666511684,0.584297239457417 l -20.10398202078591 22.008214373850336" fill="#c6ff1e" stroke="none" /><path d="M 114.16331599549186 84.49514656593476 l 12.063887628881771 -13.206568969468858 a38.88716994573553,38.88716994573553 0 0,0 0.4903340963409878,0.45571210400864687 l -12.289429609017606 12.996952279385571" fill="#ff8f0d" stroke="none" /><path d="M 115.68641384162765 86.03803664274999 l 47.02965815869281 -41.859558886120155 a83.960395620295,83.960395620295 0 0,0 0.9515836807072862,1.0878246449204012 l -47.743233702977946 41.04381868499681" fill="#4dd2ff" stroke="none" /><path d="M 116.38621287248628 86.86637796730983 l 13.940749914683634 -11.173572664806466 a38.865979801831806,38.865979801831806 0 0,0 0.41391513268557606,0.5256301847708483 l -14.131019127963173 10.93195008608258" fill="#ff8e0d" stroke="none" /><path d="M 117.2510076193507 88.02491185347247 l 30.084843718856533 -20.883919557469422 a57.622887893650265,57.622887893650265 0 0,0 0.558600485364787,0.8196772845932844 l -30.439868669890053 20.36296424960573" fill="#70ff27" stroke="none" /><line stroke="#e1ed5e" stroke-width="0.3" x1="172.23445277983987" x2="176.4835382374775" y1="55.19839476539836" y2="52.563006222186495" /><path d="M 173.08426987136738 54.67131705675599 a86.0,86.0 0 0,1 12.851231095245387,41.99856678651699" fill="none" id="id15" stroke="none" /><text fill="#e1ed5e" style="font-size:6.75px; font-family:Arial;" text-anchor="middle"><textPath startOffset="22.20632615414155" xlink:href="#id15">March</textPath></text><path d="M 118.56541770881063 90.18545643968196 l 21.07081006465021 -11.139010523450578 a44.833937824499486,44.833937824499486 0 0,0 0.354808454319889,0.6853770004832395 l -21.259427952130213 10.774660800706995" fill="#ffe615" stroke="none" /><path d="M 119.47837535516314 92.15188598940014 l 27.553296645296363 -11.101614456918512 a50.70572334708855,50.70572334708855 0 0,0 0.3192201754475791,0.8123805275050953 l -27.740310370625643 10.625684924517632" fill="#c7ff1e" stroke="none" /><path d="M 120.37134235888165 94.90015583598534 l 61.11402707664495 -15.299532492043943 a84.0,84.0 0 0,0 0.33906879895672226,1.4056590733623755 l -61.36832867586249 14.245288187022162" fill="#4dd2ff" stroke="none" /><line stroke="#e1ed5e" stroke-width="0.3" x1="184.98032266829074" x2="189.97916517819016" y1="98.17113171792111" y2="98.06355123074" /><path d="M 185.9800911702706 98.14961562048488 a86.0,86.0 0 0,1 -9.607161424134198,41.387399972396054" fill="none" id="id16" stroke="none" /><text fill="#e1ed5e" style="font-size:6.75px; font-family:Arial;" text-anchor="middle"><textPath startOffset="21.466115282336823" xlink:href="#id16">April</textPath></text><path d="M 120.9764740272857 100.99374915477107 l 29.750892545835526 1.409432504369011 a50.78425938743859,50.78425938743859 0 0,0 -0.04888262855687523,0.8728321703754702 l -29.722223566391122 -1.9213363910799046" fill="#c6ff1e" stroke="none" /><path d="M 120.8583938346157 102.4346265915055 l 19.571900409564016 2.2844649286630956 a40.70477266177369,40.70477266177369 0 0,0 -0.0872215874395225,0.6952418699783829 l -19.529677312877645 -2.621024552928873" fill="#ffaa0f" stroke="none" /><path d="M 120.32669344350535 105.2749913415812 l 14.422714913885006 3.7428466417466453 a35.90045658598538,35.90045658598538 0 0,0 -0.1603757567876096,0.5968178522526237 l -14.35615108075562 -3.990555427174817" fill="#ff6008" stroke="none" /><path d="M 119.79798401119884 107.00284435728193 l 14.062600456828495 4.974153035082103 a35.91639802448331,35.91639802448331 0 0,0 -0.2111811327668329,0.581079778686802 l -13.974895063056435 -5.215480610775036" fill="#ff6108" stroke="none" /><path d="M 119.67450827220406 107.3425965602758 l 13.970840827236726 5.21396755552748 a35.912070650653376,35.912070650653376 0 0,0 -0.2211255317510294,0.5772889865658908 l -13.87902101589219 -5.453680108926514" fill="#ff6008" stroke="none" /><path d="M 119.12269723197855 108.67885076344098 l 16.327406803949483 7.410206064890307 a38.93029187899051,38.93029187899051 0 0,0 -0.2821989808484063,0.6078314991475664 l -16.197433206261245 -7.690157631316704" fill="#ff8f0d" stroke="none" /><line stroke="#e1ed5e" stroke-width="0.3" x1="174.80103733775053" x2="179.2010983576182" y1="140.37084112569926" y2="142.7455964860345" /><path d="M 175.68104954172406 140.8457921977663 a86.0,86.0 0 0,1 -30.038265399797805,32.042727171017184" fill="none" id="id17" stroke="none" /><text fill="#e1ed5e" style="font-size:6.75px; font-family:Arial;" text-anchor="middle"><textPath startOffset="22.206326154141568" xlink:href="#id17">May</textPath></text><path d="M 118.48025628344425 109.97397251340804 l 23.59671060780357 12.735372248052672 a47.8140720108845,47.8140720108845 0 0,0 -0.39713819613726453,0.720921182576018 l -23.373996002214795 -13.139663949026495" fill="#eeff19" stroke="none" /><path d="M 118.30583269289576 110.29060199501025 l 7.832963344829232 4.40329099339053 a29.985782455296395,29.985782455296395 0 0,0 -0.25680395801876454,0.4477593468757559 l -7.756007390658088 -4.537470186124601" fill="#ff0000" stroke="none" /><path d="M 117.75023020441432 111.22182372390056 l 12.639642428811205 7.990873224504954 a35.95374921611014,35.95374921611014 0 0,0 -0.3352175828512169,0.5202651327912793 l -12.500219982582937 -8.207259957217687" fill="#ff6109" stroke="none" /><path d="M 117.35343817320211 111.8261652097733 l 14.771873859649686 10.066859315056039 a38.875959101389,38.875959101389 0 0,0 -0.38161214011248684,0.5497407498103584 l -14.596400812375062 -10.319641327053418" fill="#ff8e0d" stroke="none" /><path d="M 116.0416608686014 113.55231037782055 l 11.375033715219228 9.609852042724587 a35.89095860935192,35.89095860935192 0 0,0 -0.4027606302370917,0.4685016041842419 l -11.207930575411357 -9.804230746070356" fill="#ff6008" stroke="none" /><path d="M 114.81725581225074 114.88116024355365 l 12.631781590245513 12.68626042418721 a38.902600640520475,38.902600640520475 0 0,0 -0.47859470134209153,0.4684056460952327 l -12.411536936527627 -12.901816173205015" fill="#ff8f0d" stroke="none" /><line stroke="#e1ed5e" stroke-width="0.3" x1="143.8653032363475" x2="146.44561519142675" y1="172.8068346515853" y2="177.08958963109032" /><path d="M 144.38136562736335 173.6633856474863 a86.0,86.0 0 0,1 -40.68145358897372,12.25698825130547" fill="none" id="id18" stroke="none" /><text fill="#e1ed5e" style="font-size:6.75px; font-family:Arial;" text-anchor="middle"><textPath startOffset="21.466115282336833" xlink:href="#id18">June</textPath></text><line stroke="#e1ed5e" stroke-width="0.3" x1="102.19456741930631" x2="102.32365962044197" y1="184.97166512339345" y2="189.96999836594603" /><path d="M 102.22038585953345 185.97133177190398 a86.0,86.0 0 0,1 -42.740103519485714,-10.115201625700543" fill="none" id="id19" stroke="none" /><text fill="#e1ed5e" style="font-size:6.75px; font-family:Arial;" text-anchor="middle"><textPath startOffset="22.20632615414155" xlink:href="#id19">July</textPath></text><line stroke="#e1ed5e" stroke-width="0.3" x1="58.666819895761336" x2="56.23545636021788" y1="174.27360380694188" y2="178.64263932499728" /><path d="M 58.180547188652646 175.14741091055294 a86.0,86.0 0 0,1 -31.652253787137756,-30.449443065178592" fill="none" id="id20" stroke="none" /><text fill="#e1ed5e" style="font-size:6.75px; font-family:Arial;" text-anchor="middle"><textPath startOffset="22.20632615414155" xlink:href="#id20">August</textPath></text><line stroke="#e1ed5e" stroke-width="0.3" x1="26.63291911575756" x2="22.317208475507996" y1="142.92168965132927" y2="145.44649492493687" /><path d="M 25.769776987707644 143.4266507060508 a86.0,86.0 0 0,1 -11.730757126820373,-40.83630448921669" fill="none" id="id21" stroke="none" /><text fill="#e1ed5e" style="font-size:6.75px; font-family:Arial;" text-anchor="middle"><textPath startOffset="21.46611528233685" xlink:href="#id21">September</textPath></text><line stroke="#e1ed5e" stroke-width="0.3" x1="15.007084014347285" x2="10.007500721073583" y1="101.09737516637583" y2="101.16192664675087" /><path d="M 14.007167355692545 101.11028546245083 a86.0,86.0 0 0,1 10.666146001902534,-42.60595125391555" fill="none" id="id22" stroke="none" /><text fill="#e1ed5e" style="font-size:6.75px; font-family:Arial;" text-anchor="middle"><textPath startOffset="22.20632615414155" xlink:href="#id22">October</textPath></text><line stroke="#e1ed5e" stroke-width="0.3" x1="26.266209847984243" x2="21.928928074336255" y1="57.711370442889674" y2="55.22380399835377" /><path d="M 25.398753493254645 57.213857153982495 a86.0,86.0 0 0,1 29.58750427330803,-30.492523968695096" fill="none" id="id23" stroke="none" /><text fill="#e1ed5e" style="font-size:6.75px; font-family:Arial;" text-anchor="middle"><textPath startOffset="21.46611528233685" xlink:href="#id23">November</textPath></text><line stroke="#e1ed5e" stroke-width="0.3" x1="56.762969772571076" x2="54.21961505331055" y1="26.818313649435495" y2="22.513508569990535" /><path d="M 56.25429882871897 25.957352633546506 a86.0,86.0 0 0,1 42.265352541879196,-11.944610805530505" fill="none" id="id24" stroke="none" /><text fill="#e1ed5e" style="font-size:6.75px; font-family:Arial;" text-anchor="middle"><textPath startOffset="22.20632615414155" xlink:href="#id24">December</textPath></text></svg>