<?xml version="1.0" encoding="utf-8" ?>
<svg baseProfile="full" height="300mm" version="1.1" viewBox="0,0,200,300" width="200mm" xmlns="http://www.w3.org/2000/svg" xmlns:ev="http://www.w3.org/2001/xml-events" xmlns:xlink="http://www.w3.org/1999/xlink"><defs /><rect fill="#222222" height="300" width="200" x="0" y="0" /><text fill="#FFFFFF" style="font-size:12px; font-family:Arial; font-weight:bold;" x="10" y="20">Over 8km Runs</text><text fill="#FFFFFF" style="font-size:4px; font-family:Arial" x="10" y="280">ATHLETE</text><text fill="#FFFFFF" style="font-size:9px; font-family:Arial" x="10" y="290">mujingy</text><text fill="#FFFFFF" style="font-size:4px; font-family:Arial" x="120" y="280">STATISTICS</text><text fill="#FFFFFF" style="font-size:3px; font-family:Arial" x="120" y="285">Number: 3</text><text fill="#FFFFFF" style="font-size:3px; font-family:Arial" x="120" y="290">Weekly: 1.0</text><text fill="#FFFFFF" style="font-size:3px; font-family:Arial" x="141" y="285">Total: 28.4 km</text><text fill="#FFFFFF" style="font-size:3px; font-family:Arial" x="141" y="290">Avg: 9.5 km</text><text fill="#FFFFFF" style="font-size:3px; font-family:Arial" x="167" y="285">Min: 8.3 km</text><text fill="#FFFFFF" style="font-size:3px; font-family:Arial" x="167" y="290">Max: 10.0 km</text><polyline fill="none" points="95.5,82.86105791098089 93.99143282836303,82.16425242030527 93.81040476786438,82.07715162049863 93.52880556252785,81.90294994521537 93.2874348150799,81.75052339662216 92.92537869384978,81.51099580706796 92.76446486217901,81.40211956694839 92.50297988578677,81.20614223545999 92.382294512121,81.11904115829384 91.31624037749134,80.37868098390754 91.17544077476487,80.29157966718776 89.38527439790778,79.28991271182895 88.86230444500688,79.07215858457494 88.60081946861465,78.91973060168675 88.13819220266305,78.5277725768392 87.8968214552151,78.37534431813401 87.21293767075986,77.80918153817765 86.4888254282996,77.50432421534788 86.32791159674525,77.41722206634586 85.14117208844982,76.58975039309007 84.73888750933111,76.30666745602502 84.55785944871604,76.13246243930189 84.01477526698727,75.63162245418062 83.67283337470144,75.30498723205528 83.51191954303067,75.10900592850521 83.06940650613979,74.52106125181308 82.98894959036261,74.43395823903847 82.44586540851742,73.88956383761251 82.30506580579095,73.6718058011611 82.02346660045441,73.27984093831037 81.86255276878364,73.08385831530904 81.2390116712777,72.06039143202361 81.15855475550052,71.88618395614321 80.65569903154392,70.88448901171796 80.51489942881744,70.47074447423802 80.39421405515168,70.27476002104231 80.19307176559232,69.5125970444642 79.77067295752931,68.70687979782815 79.50918798113707,68.03181774032419 79.44884529430419,67.77050298874383 79.3885026073549,67.33497789819376 79.3683883784106,67.09543882953585 78.5034765334567,66.24616241262993 78.20176309917588,66.3332677965227 77.69890737521928,66.4639258250827 77.51787931472063,66.5074784886383 77.01502359076403,66.61636012000963 76.33113980630878,66.76879433760769 75.74782716657501,66.87767587433336 74.88291532162111,67.09543882953585 74.05823193443939,67.31320162708289 73.85708964488003,67.33497789819376 73.47491929470561,67.50918801009539 73.33411969209556,67.68339802109404 72.95194934192114,68.3149084650795 72.81114973931108,68.77220830367878 72.52955053397454,69.20773131307214 72.14738018380012,69.5125970444642 71.58418177312706,69.62147758793435 71.06121182022616,69.5125970444642 70.69915569911245,69.27305971010355 70.51812763849739,69.09885061989189 69.89458654087503,68.70687979782815 69.17047429841477,68.59799892336014 68.92910355108324,68.61977510136785 68.46647628513165,68.72865596800693 68.2251055376837,68.77220830367878 67.48087906639557,68.92464142874815 66.97802334243897,68.98996988721774 66.8171095107682,69.01174603690743 66.13322572631296,69.09885061989189 65.67059846036136,69.1641790404974 65.46945617091842,69.18595517761423 65.047057362739,69.25128357938956 64.12180283095222,69.22950744701666 63.880432083504274,69.22950744701666 63.39769058849197,69.27305971010355 63.156319841044024,69.27305971010355 62.59312143037096,69.27305971010355 62.33163645397872,69.27305971010355 61.80866650119424,69.27305971010355 61.527067295857705,69.27305971010355 61.024211571901105,69.25128357938956 60.762726595508866,69.22950744701666 60.018500124220736,69.1641790404974 59.75701514771208,69.14240290189628 59.27427365281619,69.09885061989189 59.01278867642395,69.07707447648863 58.69096101319883,69.05529833154287 58.40936180774588,69.01174603690743 57.202508070506155,68.88108911519521 56.96113732305821,68.85931295601767 56.257139309775084,68.79398446914274 56.03588279115502,68.75043213664321 55.57325552520342,68.66332745278487 55.35199900669977,68.66332745278487 54.92960019875318,68.59799892336014 54.44685870374087,68.53267037967453 54.20548795629293,68.51089419535128 53.762974919285625,68.46734182184446 53.52160417183768,68.44556563277729 53.03886267694179,68.38023705600062 52.797491929493845,68.35846086061792 52.294636205537245,68.3149084650795 52.07337968715001,68.27135606322554 51.61075242119841,68.2495798599266 51.42972436058335,68.22780365508515 51.288924757856876,68.206027448643 50.88664017873816,68.22780365508515 50.66538366023451,68.22780365508515 50.14241370745003,68.22780365508515 49.90104296000209,68.206027448643 49.43841569405049,68.2495798599266 49.21715917554684,68.29313226495287 48.73441768065095,68.3149084650795 48.25167618575506,68.40201324981172 47.487335485522635,68.48911800939823 47.22585050901398,68.51089419535128 46.722994785173796,68.59799892336014 46.48162403772585,68.64155127792037 45.978768313885666,68.75043213664321 45.274770300486125,68.92464142874815 45.01328532397747,68.98996988721774 44.53054382908158,69.12062676166533 44.269058852805756,69.20773131307214 43.80643158685416,69.3383880929614 43.38403277867474,69.5125970444642 43.14266203122679,69.62147758793435 42.74037745222449,69.75213418807834 42.458778246771544,69.86101464478998 41.91569406515919,70.07877544005169 41.69443754653912,70.18765577854356 41.21169605164323,70.36186423819163 40.95021107525099,70.47074447423802 40.50769803824369,70.68850482808193 40.326669977628626,70.81916096466011 39.54221504845191,71.5813206305611 39.361186987836845,71.71197637933074 38.979016637662426,72.01683957254863 38.6773032033816,72.38703017740045 38.31524708215147,72.67011680311407 38.154333250480704,72.82254795279005 37.7721629004227,73.10563416869263 37.59113483980764,73.23628925537923 37.20896448974963,73.54115090362029 36.987707971129566,73.65002998881391 36.58542339212727,73.9331154259562 35.61994040221907,75.19610874581849 35.579711944330484,75.76227644374012 35.33834119688254,76.26311621133937 35.0768562204903,76.30666745602502 34.091259001754224,76.5026479793014 33.58840327791404,77.0034865142079 33.447603675187565,77.2212421389122 33.16600446973462,77.59142633908777 33.04531909606885,77.78740602536709 32.8240625775652,78.1793650148611 32.54246337222867,78.50599711600807 31.999379190499894,79.00683231564471 31.556866153492592,78.81085342381266 31.355723863933235,78.68020075830282 30.99366774270311,78.41889525705483 30.490812018862925,78.22291598221636 29.98795629502274,78.20114049932454 29.565557486959733,78.33179337283946 29.364415197400376,78.41889525705483 28.921902160393074,78.614874404273 28.338589520775713,78.91973060168675 28.15756146016065,78.9632814618526 27.232306928257458,79.3770143186266 26.830022349138744,79.59476822521538 26.64899428852368,79.68186974377022 25.94499627512414,79.85607270506443 25.582940153894015,79.92139878956368 24.899056369438767,80.20447832520586 24.476657561492175,80.48755759446067 22.183635460678488,81.44567006774014 21.962378942174837,81.57632153228042 21.29860938654747,81.85939951066393 21.037124410271645,81.90294994521537 20.111869878252037,82.12070202353061 19.87049913080409,82.18602761629154 19.407871864852495,82.3166787593218 19.206729575409554,82.38200430953293 18.58318847778719,82.59975604110514 18.422274646232836,82.64330636849627 18.241246585617773,82.70863184778136 17.879190464387648,82.81750761510921 17.637819716823287,82.86105791098089 17.1953066799324,82.96993362312787 16.93382170354016,83.03525903151603 16.45108020864427,83.16590980568435 16.22982369014062,83.23123517149361 15.686739508295432,83.36188586056232 15.163769555394538,83.47076139145065 14.962627265951596,83.55786178782 14.5,83.6667372477823 14.60057114472147,83.75383758739918 14.821827663225122,83.68851233503665 15.545939905685373,83.47076139145065 15.787310653133318,83.42721118382178 16.189595232135616,83.31833563715918 16.43096597958356,83.25301029026741 17.758505090605468,82.86105791098089 17.999875838053413,82.773957312922 18.603302706731483,82.59975604110514 18.84467345417943,82.55620570739848 19.307300720131025,82.46910502106766 19.54867146757897,82.40377948974492 20.051527191419154,82.251353194908 21.198038241825998,81.96827558524092 21.6405512788333,81.83762429095805 22.565805810736492,81.40211956694839 23.24968959519174,81.14081642997917 24.094487211317755,80.85773777539725 24.476657561492175,80.5964341655199 24.677799850935116,80.46578227551072 25.08008443005383,80.18270298576681 25.502483238116838,80.00850021350197 25.72373975662049,79.96494950470515 26.186367022572085,79.85607270506443 27.39322075981181,79.33346351838554 27.594363049371168,79.24636189904413 27.99664762848988,79.09393400442787 28.398932207608595,78.91973060168675 28.90178793144878,78.74552709815907 29.16327290784102,78.614874404273 29.60578594484832,78.44067072420148 30.470697789802216,78.35356884627254 30.913210826925933,78.5495480360405 31.054010429535992,78.614874404273 31.21492426120676,78.68020075830282 31.61720884020906,78.91973060168675 32.90451949345879,78.22291598221636 33.04531909606885,78.0051610826049 33.326918301405385,77.56965081056114 34.49354358075652,76.58975039309007 35.13719890732318,76.45909676293377 35.5193692574976,76.0453598931199 35.55959771538619,75.8493790719076 35.61994040221907,75.1307816352346 35.9216538364999,74.5863884948485 36.22336727089714,74.32507943751989 36.38428110256791,74.21620059668203 36.72622299473733,73.9331154259562 36.9273652844131,73.7371332286566 37.389992550364695,73.45404760708334 37.792277129366994,73.2145134114835 37.95319096103776,73.08385831530904 38.31524708215147,72.77899620358949 39.019245095551014,72.08216735938913 39.240501614054665,71.92973583453568 39.60255773528479,71.62487255310407 40.004842314403504,71.1675770515576 40.588154954020865,70.79738494587946 40.78929724358022,70.71028085480793 41.21169605164323,70.4925205167383 41.41283834120259,70.40541633733665 41.85535137820989,70.2312079029216 42.07660789671354,70.1223275802331 42.88117705495097,69.73035809196881 43.08231934439391,69.59970148236607 43.48460392351262,69.44726869947044 43.72597467096057,69.38194034027401 44.61100074497517,69.12062676166533 44.83225726347882,69.05529833154287 45.55636950582266,68.88108911519521 45.8178544822149,68.815760633006 46.280481748166494,68.70687979782815 46.521852495730855,68.70687979782815 47.04482244839892,68.68510362613597 47.78904891980346,68.53267037967453 48.0505338961957,68.51089419535128 48.472932704142295,68.4237894420803 48.69418922276236,68.40201324981172 49.07635957293678,68.40201324981172 49.25738763343543,68.38023705600062 49.4183014651062,68.33668466360541 49.82058604422491,68.3149084650795 49.981499875779264,68.3149084650795 50.64526943129022,68.3149084650795 50.86652594979387,68.33668466360541 51.36938167375047,68.35846086061792 51.892351626534946,68.38023705600062 52.35497889248654,68.44556563277729 52.59634963993449,68.44556563277729 53.018748447997496,68.48911800939823 53.21989073755685,68.51089419535128 53.70263223245274,68.5762227436935 54.12503104051575,68.61977510136785 54.32617333007511,68.64155127792037 54.768686366965994,68.70687979782815 54.96982865652535,68.70687979782815 55.41234169353265,68.77220830367878 55.633598212036304,68.815760633006 56.0962254779879,68.88108911519521 56.257139309775084,68.92464142874815 56.41805314132944,68.92464142874815 57.081822696723975,69.01174603690743 57.74559225223493,69.07707447648863 57.98696299979929,69.12062676166533 58.429476036690176,69.18595517761423 58.65073255531024,69.22950744701666 59.51564440038055,69.3383880929614 60.44089893216733,69.38194034027401 60.70238390855957,69.38194034027401 61.96958033274859,69.36016421738896 62.19083685125224,69.36016421738896 62.95517755160108,69.42549258132931 63.116091383155435,69.44726869947044 63.598832878051326,69.44726869947044 63.82008939655498,69.44726869947044 64.28271666250657,69.42549258132931 64.52408740995452,69.40371646161657 64.94648621801753,69.38194034027401 65.16774273652118,69.3383880929614 65.61025577352848,69.22950744701666 65.9119692078093,69.22950744701666 66.4349391607102,69.1641790404974 66.67630990815815,69.12062676166533 67.11882294516545,69.05529833154287 67.38030792155769,69.0335221850255 67.92339210328646,68.94641758309444 68.1848770796787,68.88108911519521 68.62739011680242,68.77220830367878 68.90898932213895,68.70687979782815 69.79401539603714,68.70687979782815 70.13595728832297,68.92464142874815 70.65892724110745,69.3383880929614 70.79972684383392,69.42549258132931 70.94052644644398,69.49082093103789 71.56406754406635,69.68680589509313 72.40886516019236,69.40371646161657 72.83126396825537,68.815760633006 72.87149242614396,68.64155127792037 72.93183511309326,68.2495798599266 73.5754904395435,67.70517426534207 73.97777501866221,67.50918801009539 74.4806307425024,67.33497789819376 74.68177303206176,67.24787280440796 75.12428606906906,67.16076768533094 75.34554258757271,67.09543882953585 75.72771293763071,67.00833366636652 75.88862676930148,66.98655737165245 76.19034020369872,66.96478107533767 76.33113980630878,66.89945217696368 77.13570896454621,66.68168907982181 77.37707971187774,66.61636012000963 78.0006208095001,66.42037315521156 78.24199155694805,66.3768204790249 78.94598957046401,66.3332677965227 79.16724608896766,66.81234695707099 79.22758877580054,67.0301099595672 79.34827414958272,67.42208296674653 79.50918798113707,67.83583169794292 79.60975912597496,68.01004151973757 79.81090141553432,69.01174603690743 79.81090141553432,69.22950744701666 79.89135833119508,69.66502979426878 80.09250062087085,70.03522329358384 80.27352868148591,70.40541633733665 80.63558480259962,71.12402506277431 81.01775515265763,71.79908018035349 81.2390116712777,72.19104697272996 81.33958281599917,72.36525427206652 81.56083933450282,72.77899620358949 81.70163893722929,72.97497902519535 81.98323814256582,73.30161677737487 82.0838092872873,73.51937508187257 82.36540849262383,73.84601224289509 82.62689346913248,74.1290974956064 82.74757884291466,74.32507943751989 83.02917804813478,74.71704293842777 83.21020610874984,74.86947305081412 83.57226222997997,75.2396601450746 83.69294760364573,75.39208999261609 83.99466103804298,75.71872512021218 84.3366029302124,75.98003296690877 84.69865905144252,76.28489183445345 84.7791159672197,76.41554554030881 84.87968711205758,76.4808723719616 85.18140054633841,76.72040396652301 85.30208592000417,76.82928190103848 85.44288552273065,76.93815979608917 86.12676930730231,77.4825486804184 86.50893965736032,77.78740602536709 86.73019617586397,77.89628357364563 87.19282344181556,78.1793650148611 87.41407996031921,78.28824242131668 88.50024832377676,79.11570942265098 88.90253290289547,79.28991271182895 89.14390365034342,79.3770143186266 89.56630245852284,79.50766668142751 89.74733051902149,79.63831898759236 90.27030047180597,80.03027556560119 90.83349888259545,80.37868098390754 91.0547554010991,80.46578227551072 91.4771542090457,80.68353539405507 91.83921033027582,80.92306364240358 92.02023839089088,81.03194005583646 92.58343680156395,81.38034431420965 92.96560715173837,81.59809677078738 93.18686367024202,81.70697293998091 93.56903402041644,81.92472516017733 93.77017630985938,82.03360121115111 94.25291780487169,82.29490357276518 94.47417432337534,82.46910502106766 95.17817233677488,82.88283305658842 95.43965731316712,83.03525903151603" stroke="#4dd2ff" stroke-linecap="round" stroke-linejoin="round" stroke-width="0.5"><title>2023-01-08 10.0km</title></polyline><polyline fill="none" points="185.5,101.72137707169168 184.33870967756957,101.61658977216575 177.85483871027827,98.99690481624566 176.69354838738218,98.36817972036079 171.27419354906306,97.5298791670939 170.4032258070074,98.15860462747514 166.2419354841113,100.7782911027316 160.43548387102783,97.63466676301323 158.20967741962522,95.53891340550035 155.59677419392392,92.81442949862685 153.37096774205565,91.55697365605738 146.20967741962522,91.34739757608622 143.5,91.76654970576055 141.08064516121522,92.18570171424653 138.27419354813173,93.4431570097804 135.95161290327087,94.70061121182516 131.79032258084044,95.85327660280745 128.88709677383304,95.74848887801636 126.95161290280521,96.58679046388716 125.98387096775696,97.73945435101632 122.79032258037478,100.46392897632904 120.2741935485974,101.93095164792612 119.8870967742987,107.48466684855521 119.69354838738218,107.2750930772163 119.8870967742987,107.69424058927689 119.8870967742987,107.37987996661104 120.95161290327087,102.55967519443948 122.11290322616696,101.93095164792612 124.14516129018739,100.14956678159069 125.30645161261782,94.07188424759079 124.33870967756957,93.12879328837153 122.79032258037478,91.24260952475015 119.98387096775696,87.47023461409844 109.53225806448609,82.75475213315804 108.66129032243043,81.81165379099548 105.46774193551391,79.29672187112737 104.79032258037478,77.51530911389273 108.75806451635435,73.2189516677754 114.08064516121522,69.23695043777116 115.04838709626347,68.39863299182616 116.59677419345826,66.19804738240782 117.37096774205565,64.1022484494606 117.66129032243043,62.94955774117261 118.24193548411131,60.43459300522227 118.82258064532652,57.919623893569224 119.5,56.5573471308453 120.56451612897217,54.35674349474721 121.14516129018739,53.308835823787376 126.95161290280521,54.14716202125419 128.01612903177738,54.566324937855825 129.6612903228961,53.72799898323137 130.4354838714935,51.63218196993694 131.20967741962522,50.47948131756857 132.7580645158887,48.69803304609377 132.2741935485974,44.820755689637735 130.5322580644861,43.563258097390644 123.37096774159,48.80282418173738 124.14516129018739,52.470509140053764 128.1129032257013,54.566324937855825 129.56451612943783,53.72799898323137 129.95161290327087,52.57530000200495 132.66129032243043,48.69803304609377 133.14516129065305,47.96449488447979 132.7580645158887,44.820755689637735 131.79032258084044,44.08721556037199 130.33870967756957,43.248883528169245 127.62903225841,43.35367505881004 125.8870967742987,44.71596426528413 125.20967741915956,45.55429544695653 124.14516129018739,46.81179130682722 123.46774193551391,47.650121272658 123.66129032243043,51.946554715861566 124.43548387102783,52.470509140053764 127.14516129018739,53.83278975414578 129.37096774205565,53.413626624969766 129.6612903228961,52.57530000200495 132.37096774205565,49.01240643009078 132.8548387098126,45.13512991683092 131.30645161308348,43.982424082932994 129.7580645158887,43.039300444186665 127.04838709672913,43.14409198996145 125.69354838738218,44.50638139399234 125.20967741915956,45.23992131080013 124.53225806448609,45.9734608551953 123.46774193551391,47.650121272658 122.98387096822262,48.38365959376097 123.85483871027827,51.946554715861566 124.7258064514026,52.57530000200495 126.75806451635435,53.83278975414578 129.6612903228961,53.20404501503799 130.04838709672913,52.156136508332565 131.88709677383304,49.32677974563558 132.08064516168088,45.344712696853094 131.30645161308348,44.611172833596356 128.20967741962522,42.93450889061205 127.43548387102783,43.563258097390644 126.75806451635435,43.877632597927004 125.69354838738218,45.23992131080013 125.20967741915956,45.65908681019209 124.82258064532652,46.28783483162988 125.20967741915956,52.88967254268937 123.27419354813173,48.06928607320879 124.7258064514026,45.76387816586066 125.69354838738218,44.611172833596356 132.56451612897217,47.96449488447979 131.79032258084044,48.80282418173738 131.30645161308348,49.32677974563558 130.24193548364565,51.213018202688545 128.40322580654174,54.14716202125419 127.14516129018739,53.72799898323137 123.56451612897217,52.156136508332565 123.08064516121522,47.96449488447979 123.85483871027827,47.02137384400703 125.20967741915956,44.820755689637735 125.98387096775696,43.77284110512119 128.69354838738218,42.93450889061205 129.95161290327087,43.563258097390644 132.7580645158887,47.126165100955404 131.98387096775696,47.96449488447979 130.7258064514026,49.95552617136855 130.1451612901874,52.57530000200495 129.8548387098126,54.880697045126 129.56451612943783,57.71004293661099 128.88709677383304,59.805851137498394 128.5,60.8537540982943 127.53225806448609,63.054347843513824 127.04838709672913,64.1022484494606 125.59677419345826,67.4555252835853 125.01612903224304,68.50342269905377 124.24193548364565,70.38963613228407 123.75806451635435,71.1231629140675 123.08064516121522,72.90458354842849 122.59677419345826,75.20994816953316 122.30645161261782,76.0482616656227 122.01612903224304,77.93446525442414 121.82258064532652,78.7727771702921 121.62903225794435,79.61108860035893 121.04838709672913,81.28771000157576 120.66129032243043,82.02123125363141 120.17741935513914,82.75475213315804 116.69354838691652,84.01221563189756 115.53225806448609,83.80263845808804 114.6612903228961,84.01221563189756 113.79032258084044,84.11700420745183 112.04838709672913,84.01221563189756 110.40322580654174,83.3834840193158 109.62903225794435,82.85954079974908 108.46774193504825,81.70686504838523 107.40322580607608,80.76376602274831 106.82258064486086,80.34461070294492 105.95161290280521,79.92545526113827 104.79032258037478,78.24883227993269 105.17741935467348,76.67699646856636 105.46774193551391,76.15305081848055 107.1129032257013,74.5812127282843 107.79032258084044,74.05726631870493 108.27419354813173,73.742898381548 110.40322580654174,72.48542594967876 112.24193548364565,71.1231629140675 113.1129032257013,70.38963613228407 114.17741935467348,69.55131935479585 114.95161290327087,68.81779177556746 115.62903225794435,68.08426382404286 116.5,66.6172068042215 117.56451612897217,63.99745842302218 117.75806451588869,63.159137938404456 118.14516129018739,61.27291507017799 118.33870967756957,60.53938328998629 118.33870967756957,59.7010607997654 119.11290322616696,57.605252446956 119.5,56.76692825485952 119.8870967742987,56.03339418815449 120.66129032243043,54.566324937855825 120.95161290327087,53.93758051749319 121.91935483878478,52.05134561564773 122.11290322616696,49.95552617136855 122.69354838738218,48.48845075222198 123.37096774159,47.650121272658 123.95161290327087,46.916582579375245 124.91935483878478,45.449504075571895 125.30645161261782,44.92554710642435 126.37096774205565,43.668049604981206 126.85483870981261,43.14409198996145 127.24193548364565,42.724925760994665 130.5322580644861,43.668049604981206 131.5,44.1920070303604 132.56451612897217,47.23095635068603 132.17741935513914,48.06928607320879 130.62903225794435,50.165108252549544 130.33870967756957,51.00343627331313 129.95161290327087,52.88967254268937 129.6612903228961,54.880697045126 129.6612903228961,56.45255655772053 129.4677419355139,58.12920481991023 128.98387096775696,59.91064146789722 128.79032258084044,60.53938328998629 128.5,61.377705294056796 127.72580645186827,63.159137938404456 126.85483870981261,64.83577842160594 126.37096774205565,65.7788878387073 125.40322580654174,67.87468434078619 125.01612903224304,68.81779177556746 124.04838709672913,70.49442569538951 123.37096774159,72.06626822927501 123.08064516121522,73.00937292934395 122.79032258037478,73.84768770146184 122.30645161261782,75.83868333720602 122.11290322616696,76.88657467556186 121.91935483878478,78.66798820754047 121.43548387056217,80.23982185381465 121.24193548411131,81.07813243300188 120.2741935485974,82.64996345865075 119.79032258037478,83.3834840193158 116.40322580654174,83.80263845808804 115.7258064514026,83.69784985971637 114.27419354813173,83.80263845808804 112.72580645186827,83.9074270487763 111.85483870981261,83.9074270487763 110.40322580654174,83.59306125389412 109.04838709672913,82.23080868565012 108.37096774205565,81.70686504838523 107.69354838691652,80.97334363707341 106.14516129065305,80.13503299700096 105.2741935485974,79.71587749489117 104.59677419345826,77.82967623055447 105.17741935467348,76.46741823118646 105.66129032243043,75.94347250519786 106.82258064486086,74.79079123912379 107.5967741929926,74.2668449053308 110.8870967742987,72.06626822927501 113.88709677383304,69.76089859462809 114.56451612897217,69.13216078374535 115.14516129018739,68.50342269905377 116.20967741962522,67.3507355004549 116.69354838691652,66.5124169603223 117.27419354813173,65.15014829579741 117.46774193551391,64.31182847952005 118.14516129018739,61.69207592017483 118.33870967756957,60.8537540982943 118.43548387102783,60.01543179061264 118.62903225794435,58.548366581555456 119.30645161308348,56.76692825485952 120.66129032243043,54.251952761784196 121.53225806448609,52.78488170320634 121.91935483878478,51.946554715861566 122.20967741915956,50.58427232375834 122.40322580654174,49.11719754280057 123.46774193551391,47.85970368795097 123.95161290327087,47.23095635068603 124.33870967756957,46.602208739495836 125.20967741915956,45.23992131080013 125.69354838738218,44.50638139399234 126.66129032243043,43.35367505881004 128.20967741962522,42.3057594106067 129.08064516121522,42.82971732981969 129.56451612943783,43.248883528169245 132.66129032243043,45.55429544695653 133.2419354841113,46.18304351367988 132.7580645158887,47.02137384400703 131.5,48.80282418173738 131.01612903224304,49.431570835527964 130.24193548364565,50.898645297507755 129.95161290327087,52.57530000200495 129.8548387098126,53.413626624969766 129.7580645158887,54.251952761784196 129.6612903228961,55.71902233129367 129.56451612943783,56.5573471308453 129.37096774205565,58.23399527184665 129.37096774205565,59.17710899643134 128.79032258084044,60.43459300522227 128.59677419345826,61.27291507017799 128.20967741962522,62.32081696763635 127.24193548364565,64.20703846844845 126.95161290280521,65.04535834526177 126.56451612943783,65.7788878387073 125.69354838738218,67.66510482737795 125.1129032257013,68.60821239871439 124.24193548364565,70.18005698383786 123.85483871027827,70.91358387167566 123.46774193551391,71.64711038745008 122.8870967742987,73.00937292934395 122.79032258037478,73.63810905383434 122.79032258037478,74.5812127282843 122.40322580654174,77.30573099816684 121.91935483878478,79.29672187112737 121.53225806448609,80.34461070294492 120.66129032243043,82.12601997342426 120.17741935513914,82.85954079974908 119.59677419345826,83.59306125389412 117.37096774205565,84.11700420745183 116.30645161308348,83.59306125389412 115.43548387102783,83.59306125389412 114.17741935467348,83.9074270487763 113.40322580607608,84.01221563189756 110.1129032257013,83.17390675435308 109.43548387102783,82.64996345865075 107.69354838691652,81.07813243300188 106.04838709672913,80.03024413308594 105.2741935485974,79.50629969802685 104.5,77.72488719923422 104.88709677383304,77.09615285205655 105.2741935485974,76.57220735377632 106.04838709672913,75.20994816953316 106.62903225794435,74.68600198742934 107.98387096775696,73.63810905383434 110.1129032257013,72.48542594967876 111.6612903228961,71.75189985928591 113.01612903224304,70.80879433895461 113.79032258084044,69.97047780442517 116.20967741962522,67.4555252835853 116.98387096775696,65.7788878387073 117.27419354813173,65.04535834526177 117.46774193551391,64.31182847952005 117.95161290327087,62.63518738839775 118.14516129018739,61.796866113785654 118.33870967756957,60.22501241310965 118.43548387102783,59.28189937223215 119.20967741962522,57.290880931774154 119.69354838738218,56.45255655772053 120.66129032243043,54.35674349474721 121.24193548411131,53.413626624969766 122.11290322616696,50.79385431378614 123.08064516121522,48.38365959376097 124.53225806448609,46.28783483162988 125.1129032257013,45.55429544695653 125.40322580654174,45.030338515294716 126.46774193551391,43.668049604981206 127.04838709672913,43.14409198996145 128.1129032257013,42.3057594106067 130.04838709672913,42.82971732981969 132.8548387098126,44.820755689637735 133.33870967756957,46.81179130682722 132.37096774205565,48.17407725425437 131.69354838691652,49.01240643009078 130.1451612901874,52.05134561564773 130.04838709672913,52.994463374256156 129.8548387098126,53.72799898323137 129.56451612943783,55.40465040598065 129.56451612943783,57.605252446956 129.56451612943783,58.443576152669266 129.08064516121522,60.01543179061264 128.5,61.06333459948655 128.20967741962522,61.796866113785654 127.91935483878478,62.63518738839775 126.95161290280521,64.41661848314106 126.66129032243043,65.35972817381844 125.79032258084044,67.24594570940826 124.91935483878478,68.81779177556746 124.43548387102783,69.65610897843726 124.04838709672913,70.38963613228407 123.08064516121522,71.75189985928591 122.59677419345826,73.42853037605528 122.30645161261782,75.10515894845594 122.20967741915956,76.0482616656227 121.91935483878478,78.03925427037757 121.7258064514026,78.7727771702921 121.33870967756957,80.44939954404254 121.04838709672913,81.39249877491966 120.08064516121522,83.06911811034661 119.5,83.80263845808804 118.62903225794435,86.31756253924686 118.24193548411131,85.47925499803387 117.17741935513914,84.43136988859624 116.01612903224304,84.01221563189756 114.46774193551391,84.11700420745183 112.53225806448609,84.64094697125256 111.46774193551391,85.58404346741736 110.79032258084044,86.1079856994329 110.20967741915956,86.52713934821077 108.75806451635435,87.57502293889411 107.40322580607608,87.99417616263963 106.43548387102783,90.08994045760483 107.0161290327087,91.13782146561425 107.69354838691652,92.50006564054638 108.08064516121522,93.02400536625646 109.04838709672913,95.22455013974104 110.1129032257013,95.11976236943156 110.79032258084044,95.01497459143866 113.59677419392392,93.4431570097804 114.17741935467348,92.91921743622515 115.43548387102783,91.4521856198553 114.08064516121522,92.60485360084567 113.5,93.33836911036633 110.79032258084044,95.32933790259995 110.01612903224304,95.22455013974104 109.43548387102783,95.32933790259995 108.46774193504825,95.85327660280745" stroke="#4dd2ff" stroke-linecap="round" stroke-linejoin="round" stroke-width="0.5"><title>2022-08-26 8.3km</title></polyline><polyline fill="none" points="91.56168359937146,231.1409606905363 91.42452830192633,230.99247914999432 91.09143686504103,230.80157420159958 90.48403483314905,230.4197639317572 90.09216255450156,230.2500703187834 89.75907111761626,230.03795316442847 89.4455732946517,229.76220063419896 89.32801161101088,229.67735364964756 88.7793904208811,229.40160078014014 88.56386066763662,229.29554191508214 87.2119013061747,228.31979855561804 86.9767779391259,228.1925274430978 86.31059506523889,227.87434942006075 86.15384615387302,227.7895018888812 86.01669085631147,227.70465433310892 85.72278664738405,227.5561710514885 85.42888243834022,227.36526386452897 85.29172714077868,227.25920426251832 85.13497822941281,227.17435655323789 84.88026124821045,226.98344911752793 84.7431059506489,226.87738937727408 84.11611030483618,226.347090100302 83.93976777943317,226.198606130798 83.60667634254787,225.88042594271246 83.44992743106559,225.75315377078368 83.19521044997964,225.4137610419566 82.92089985485654,225.09558000169636 82.76415094349068,224.94709539801988 82.43105950660538,224.6501259649085 82.25471698120236,224.4804290108441 81.88243831635918,224.119822657216 81.72568940499332,223.9925497205404 81.35341074026655,223.46224522276316 80.82438316405751,222.82587855854945 80.62844702473376,222.40163334795216 80.53047895501368,222.23193509169505 80.3737300435314,221.82890133926412 80.07982583460398,221.27738056915405 80.02104499272536,221.08646929144743 79.8642960813595,220.72585876086669 79.6487663279986,220.38646020900342 79.472423802712,220.25918565070606 79.27648766327184,219.9197865583119 79.15892597963102,219.55917459183547 78.78664731502067,218.79552425649308 78.66908563137986,218.13793487285147 78.62989840353839,217.88338374743762 78.49274310597684,216.9712403986341 78.2380261248909,216.56819940968126 77.45428156747948,216.52577401016606 77.25834542815574,216.56819940968126 76.43541364301927,216.6954755713814 76.35703918721993,216.67426288157003 76.08272859221324,216.7166882596357 74.92670537007507,217.09851638523105 74.39767779386602,217.26821761470637 73.84905660385266,217.3742808331881 73.43759071128443,217.52276927455387 73.12409288831986,217.692470258291 72.55587808415294,218.13793487285147 72.32075471698772,218.45612346856797 72.0856313498225,218.8803743920289 71.96806966618169,219.07128710718825 70.59651669091545,219.51674962538527 70.1850507982308,219.26219969791418 69.79317851958331,219.0288620701176 69.61683599418029,218.92279945063638 68.95065312052611,218.71067409639363 68.57837445579935,218.77431171873468 68.32365747459698,218.81673679267988 67.40275761974044,219.00764954929764 66.69738751812838,219.11371213808889 66.42307692300528,219.15613716286316 65.97242380259559,219.21977468852128 65.56095791002735,219.30462470118073 65.38461538462434,219.32583720049297 64.30696661828551,219.38947468927654 64.09143686504103,219.38947468927654 63.60159651678987,219.41068718246242 63.36647314950824,219.41068718246242 62.97460087086074,219.41068718246242 62.75907111761626,219.43189967416401 62.36719883896876,219.45311216425034 62.15166908572428,219.45311216425034 61.74020319303963,219.47432465282327 61.52467343979515,219.45311216425034 61.11320754722692,219.47432465282327 60.91727140790317,219.43189967416401 60.36865021777339,219.47432465282327 59.72206095792353,219.36826219457726 59.545718432520516,219.36826219457726 59.134252539952286,219.28341220034054 58.703193033346906,219.26219969791418 58.428882438340224,219.21977468852128 57.880261248210445,219.13492465128365 57.586357039166614,219.09249962339527 57.116110304836184,219.05007458940963 56.86139332363382,218.98643702690606 55.84252539917361,218.8591618604696 55.607402032008395,218.83794932736782 55.117561683640815,218.79552425649308 54.52975326566957,218.71067409639363 54.25544267066289,218.6682490070816 53.72641509445384,218.60461136164668 53.49129172717221,218.5621862570697 52.66835994203575,218.45612346856797 52.39404934702907,218.4349109062896 51.94339622638654,218.39248577707622 51.74746008706279,218.39248577707622 51.394775036373176,218.35006064175104 51.100870827329345,218.35006064175104 50.904934688005596,218.37127321018488 50.66981132084038,218.37127321018488 50.238751814235,218.37127321018488 50.02322206099052,218.39248577707622 49.592162554501556,218.4136983424687 49.435413643019274,218.4349109062896 49.25907111761626,218.47733602936205 48.88679245277308,218.51976114624995 48.632075471803546,218.51976114624995 48.02467343979515,218.58339881012216 47.47605224978179,218.6470364601846 46.1436865022406,218.75309917947743 45.516690856427886,218.8803743920289 45.281567489146255,218.9440119775827 44.83091436873656,219.07128710718825 44.65457184321713,219.11371213808889 44.184325108886696,219.24098719395988 43.92960812768433,219.32583720049297 42.83236574754119,219.7500868646457 42.636429608101025,219.83493672372424 42.18577648769133,220.08948615363624 41.93105950660538,220.1955483508209 41.53918722795788,220.38646020900342 41.3236574747134,220.49252229873673 40.716255442705005,220.789495945588 40.285195936099626,221.06525691960996 39.38388969528023,221.85011365587707 39.0899854862364,222.2531473791314 38.87445573299192,222.50769470816886 38.77648766327184,222.59254376876925 38.34542815678287,223.01678870290925 37.91436865029391,223.22891093965154 37.50290275760926,223.50466961790517 36.91509433975443,223.90770106538548 36.71915820031427,224.0773983511026 36.03338171262294,224.734974405088 35.935413643019274,224.94709539801988 35.89622641517781,225.4773972085677 34.50507982587442,226.347090100302 33.85849056614097,227.068296882062 33.50580551533494,227.5561710514885 33.329462989931926,227.87434942006075 33.21190130629111,228.08646814047825 33.01596516696736,228.51070512070146 32.428156748996116,228.74403519807674 32.075471698190086,228.61676426981285 31.85994194482919,228.48949328628078 31.46806966618169,228.25616300627007 31.037010159692727,228.08646814047825 30.62554426700808,228.06525627532392 30.4100145137636,228.15010372664256 29.54789550078567,228.48949328628078 29.351959361461923,228.57434061478125 28.999274310655892,228.70161156143877 28.76415094337426,228.78645882853016 28.333091436885297,228.9349414867902 28.156748911482282,229.04100048237888 28.039187227957882,229.10463586128026 27.666908563114703,229.27433013742848 27.45137880987022,229.35917723874445 27.000725689460523,229.50765960682475 26.216981132049114,229.76220063419896 25.981857764883898,229.8470475942595 25.5899854862364,230.08037660759874 25.04136429610662,230.44097562645038 24.238026124890894,230.8652091982367 23.37590711179655,231.16217233304633 22.905660377349705,231.33186541780015 22.670537010300905,231.4379235459637 22.200290275737643,231.62882807981805 21.69085631344933,231.69246289682633 21.553701016004197,231.71367449939135 20.80914368655067,231.96821361071488 20.593613933306187,232.01063677450293 20.162554426817223,232.1803293679841 19.30043541372288,232.39244497171603 19.10449927439913,232.41365652365494 18.45791001454927,232.58334888382524 18.222786647384055,232.64698349354148 17.595791001571342,232.83788723983162 17.184325108886696,232.965156334918 16.968795355642214,233.02879086174653 16.47895500739105,233.15605987398885 16.263425254030153,233.21969435935898 15.851959361461923,233.36817477148725 15.656023222138174,233.41059773255256 15.205370101612061,233.43180921082967 15.009433962288313,233.45302068750607 14.637155297677964,233.49544363633322 14.5,233.5378665789467 14.617561683640815,233.58028951549204 14.813497822964564,233.5378665789467 15.558055152418092,233.43180921082967 15.793178519699723,233.34696328862628 16.224238026188686,233.21969435935898 16.43976777943317,233.17727137060137 16.870827285922132,233.07121387198276 17.458635704009794,232.9439448229241 18.04644412198104,232.77425267157378 18.477503628470004,232.6681950270431 18.673439767910168,232.58334888382524 19.124092888319865,232.43486807405134 19.339622641564347,232.37123341824918 19.82946298981551,232.2439640652301 20.025399129255675,232.2015409352898 20.476052249665372,232.09548308349622 21.906386066810228,231.69246289682633 22.35703918733634,231.5864048608055 22.55297532666009,231.4379235459637 23.611030478961766,231.07732575382397 23.963715529767796,230.9076325216156 24.865021770703606,230.56824576246436 25.04136429610662,230.46218731960107 25.609579100157134,230.08037660759874 26.060232220683247,229.86825933042564 26.295355587848462,229.76220063419896 27.020319303381257,229.50765960682475 27.706095791072585,229.21069479543075 28.117561683640815,229.0834240698896 28.450653120526113,228.9137296830886 28.881712627015077,228.72282338050718 29.116835994180292,228.63797609503672 29.567489114706405,228.42585777380737 29.80261248187162,228.34101040232053 30.194484760519117,228.17131558567053 31.19375907117501,228.25616300627007 31.80116110306699,228.57434061478125 32.016690856427886,228.6803997408715 33.113933236687444,228.27737485758553 33.23149492032826,228.08646814047825 33.642960812780075,227.42889960734465 33.76052249642089,227.21678041091945 34.015239477623254,226.83496547043615 34.289550072629936,226.58042190040578 34.91654571844265,226.3895140778186 35.52394775033463,226.30466611667362 35.935413643019274,225.75315377078368 35.89622641517781,225.24406453019765 35.935413643019274,225.11679208181158 36.758345428155735,224.119822657216 36.91509433975443,223.9925497205404 37.26777939056046,223.65315495255345 37.404934688005596,223.54709400690626 37.85558780853171,223.1228498405253 38.11030478950124,222.86830304583418 38.38461538462434,222.69860505989345 38.79608127719257,222.38042107129877 39.38388969528023,221.93496290683106 39.521044992725365,221.78647670152714 39.97169811325148,221.40465468514594 40.226415094337426,221.12889403061126 40.42235123377759,221.02283217122022 40.79462989838794,220.8743455036747 41.22568940499332,220.68343396339333 41.42162554431707,220.59858434996568 41.8330914368853,220.38646020900342 42.26415094349068,220.2167607856827 42.67561683605891,220.02584881687653 42.85195936146192,219.9197865583119 43.243831639993005,219.728874396038 43.38098693767097,219.66523698094534 43.5181422351161,219.601599552072 43.81204644415993,219.47432465282327 44.00798258348368,219.41068718246242 44.399854862247594,219.28341220034054 44.59579100145493,219.17734967295837 45.00725689413957,219.07128710718825 45.43831640062854,218.98643702690606 45.634252539952286,218.9440119775827 46.10449927439913,218.79552425649308 46.535558780888095,218.73188663872133 46.77068214805331,218.68946155253798 47.18214804073796,218.6682490070816 47.39767779398244,218.6258239116869 47.867924528429285,218.58339881012216 48.08345428167377,218.58339881012216 48.475326560321264,218.5621862570697 48.6712626995286,218.5621862570697 49.063134978176095,218.54097370244563 49.25907111761626,218.51976114624995 49.70972423814237,218.45612346856797 50.140783744631335,218.45612346856797 50.5718432511203,218.4136983424687 50.72859216260258,218.39248577707622 51.25761973881163,218.39248577707622 51.72786647314206,218.4349109062896 51.96298984030727,218.4349109062896 52.43323657475412,218.49854858859908 53.07982583460398,218.54097370244563 53.49129172717221,218.60461136164668 53.96153846161906,218.6470364601846 54.17706821486354,218.68946155253798 54.6081277213525,218.75309917947743 54.80406386067625,218.79552425649308 55.21552975324448,218.8591618604696 55.431059506488964,218.9015869221039 55.82293178525288,218.92279945063638 56.03846153849736,218.9440119775827 56.489114658907056,218.98643702690606 56.66545718431007,219.00764954929764 57.09651669091545,219.09249962339527 57.74310595076531,219.21977468852128 57.958635704009794,219.21977468852128 58.60522496374324,219.30462470118073 58.82075471698772,219.30462470118073 59.29100145143457,219.32583720049297 59.50653120467905,219.36826219457726 60.60377358505502,219.4955371399119 60.85849056602456,219.51674962538527 61.28955007251352,219.51674962538527 61.52467343979515,219.51674962538527 62.40638606681023,219.45311216425034 62.62191582005471,219.43189967416401 63.07256894046441,219.41068718246242 63.30769230774604,219.41068718246242 63.6799709724728,219.43189967416401 63.87590711179655,219.45311216425034 64.26777939044405,219.43189967416401 64.8555878084153,219.38947468927654 65.05152394773904,219.38947468927654 65.8156748911133,219.24098719395988 66.44267053704243,219.13492465128365 67.03047895501368,219.00764954929764 67.52031930338126,218.92279945063638 68.12772133527324,218.71067409639363 68.34325108851772,218.6682490070816 68.77431059500668,218.58339881012216 68.93105950660538,218.6258239116869 69.40130624093581,218.83794932736782 69.53846153849736,218.9652245030593 69.61683599418029,219.05007458940963 69.85195936146192,219.26219969791418 70.57692307699472,219.728874396038 70.96879535564221,219.83493672372424 71.53701015969273,219.68644945418055 71.87010159657802,219.45311216425034 72.00725689413957,219.26219969791418 72.1444121915847,218.8803743920289 72.26197387522552,218.54097370244563 72.30116110306699,218.35006064175104 72.45791001443285,218.03187193076883 72.73222060967237,217.81974593151244 72.96734397672117,217.7136828743387 73.43759071128443,217.5015566446964 73.71190130629111,217.41670610982692 74.08417997101787,217.31064290668292 74.75036284467205,217.11972904432332 75.47532656032126,217.11972904432332 75.6124818577664,217.11972904432332 76.08272859221324,216.8227516777406 76.53338171262294,216.610624803041 76.7880986938253,216.58941210711782 77.19956458639354,216.52577401016606 77.39550072571728,216.50456130811654 77.74818577652331,216.41971048450796 78.08127721340861,216.41971048450796 78.2380261248909,216.54698671067308 78.35558780853171,216.65305019028892 78.49274310597684,216.92881505751575 78.61030478950124,217.28943026147317 78.64949201745912,217.45913138031028 78.88461538462434,217.968234147178 78.9238026124658,218.2227851988282 78.98258345434442,218.54097370244563 79.06095791002735,218.92279945063638 79.23730043543037,219.28341220034054 79.45283018867485,219.64402450621128 79.5312046444742,219.81372426125745 80.06023222068325,221.08646929144743 80.11901306244545,221.2349558514834 80.27576197381131,221.6167780889955 80.41291727148928,222.01981213322142 80.80478955013677,222.59254376876925 81.216255442705,223.1016376160842 81.41219158202875,223.39860861857596 81.64731494931038,223.69557932003227 81.9412191582378,224.0349740389065 82.03918722795788,224.14103480792255 82.19593613932375,224.28951982005674 82.47024673444685,224.60770173561468 82.6074020320084,224.7561865112948 82.94049346889369,225.1380041603552 83.29317851958331,225.4773972085677 83.64586357038934,225.81678986368934 84.15529753267765,226.32587810930272 84.33164005808067,226.43193804910698 84.60595065320376,226.6652697817044 84.84107402036898,226.89860132841568 85.03701015969273,227.0258730029018 85.42888243834022,227.23799233751197 86.07547169807367,227.6198067528312 86.54571843252052,227.93798505228187 87.32946298981551,228.4682814503467 87.44702467345633,228.63797609503672 88.3287373004714,229.23190657768282 88.85776487656403,229.3379654656892 89.21044992737006,229.55008312672726 89.60232220613398,229.82583585652173 90.13134978234302,230.14401176078536 90.71915820019785,230.56824576246436 90.85631349787582,230.65309248911217 91.24818577652331,230.9076325216156 91.44412191584706,231.01369080324366 91.77721335273236,231.22580725136504 91.99274310597684,231.37428867368726 92.14949201745912,231.45913516695146 92.73730043543037,231.86215567454929 92.93323657475412,231.96821361071488 93.4230769231217,232.2863871890586 93.756168360007,232.51971426025557 94.34397677797824,232.79546419586404 95.14731494919397,233.34696328862628 95.5,233.43180921082967" stroke="#4dd2ff" stroke-linecap="round" stroke-linejoin="round" stroke-width="0.5"><title>2022-05-28 10.0km</title></polyline></svg>